<svg xmlns="http://www.w3.org/2000/svg" xmlns:xlink="http://www.w3.org/1999/xlink" width="200" zoomAndPan="magnify" viewBox="0 0 150 149.999998" height="200" preserveAspectRatio="xMidYMid meet" version="1.0"><defs><clipPath id="abd4733240"><path d="M 75 11.476562 L 84 11.476562 L 84 14 L 75 14 Z M 75 11.476562 " clip-rule="nonzero"/></clipPath><clipPath id="830a0a04ff"><path d="M 59 11.476562 L 68 11.476562 L 68 13 L 59 13 Z M 59 11.476562 " clip-rule="nonzero"/></clipPath><clipPath id="1c8437dc9b"><path d="M 67 11.476562 L 77 11.476562 L 77 13 L 67 13 Z M 67 11.476562 " clip-rule="nonzero"/></clipPath><clipPath id="f113949d78"><path d="M 61 11.476562 L 70 11.476562 L 70 13 L 61 13 Z M 61 11.476562 " clip-rule="nonzero"/></clipPath><clipPath id="f703033665"><path d="M 131 65 L 132.367188 65 L 132.367188 70 L 131 70 Z M 131 65 " clip-rule="nonzero"/></clipPath><clipPath id="9831ad083b"><path d="M 131 81 L 132.367188 81 L 132.367188 86 L 131 86 Z M 131 81 " clip-rule="nonzero"/></clipPath><clipPath id="197ecfc96a"><path d="M 60 137 L 67 137 L 67 138.226562 L 60 138.226562 Z M 60 137 " clip-rule="nonzero"/></clipPath><clipPath id="07a2791bab"><path d="M 67 135 L 75 135 L 75 138.226562 L 67 138.226562 Z M 67 135 " clip-rule="nonzero"/></clipPath></defs><g clip-path="url(#abd4733240)"><path fill="#2a2c2d" d="M 78.90625 12.414062 C 77.648438 12.21875 76.382812 12.113281 75.125 11.910156 C 75.25 11.890625 76.320312 12.007812 77.011719 12.097656 C 78.507812 12.292969 80.007812 12.546875 81.507812 12.855469 C 82.535156 13.066406 83.359375 13.265625 83.449219 13.285156 C 82.496094 13.066406 80.984375 12.738281 78.90625 12.414062 " fill-opacity="1" fill-rule="nonzero"/></g><g clip-path="url(#830a0a04ff)"><path fill="#2a2c2d" d="M 63.203125 11.960938 C 59.207031 12.335938 59.207031 12.335938 59.148438 12.332031 C 59.179688 12.28125 59.195312 12.253906 59.808594 12.148438 C 62.21875 11.8125 64.664062 11.609375 67.128906 11.554688 C 67.53125 11.558594 67.820312 11.5625 67.90625 11.585938 C 67.8125 11.609375 67.792969 11.617188 66.972656 11.667969 C 66.097656 11.722656 64.902344 11.800781 63.203125 11.960938 " fill-opacity="1" fill-rule="nonzero"/></g><g clip-path="url(#1c8437dc9b)"><path fill="#2a2c2d" d="M 71.824219 11.875 C 67.980469 11.773438 67.980469 11.773438 67.972656 11.769531 C 69.320312 11.480469 75.203125 11.851562 76.125 12.082031 C 74.683594 12.15625 73.257812 11.910156 71.824219 11.875 " fill-opacity="1" fill-rule="nonzero"/></g><path fill="#2a2c2d" d="M 80.199219 12.699219 C 79.085938 12.53125 77.964844 12.4375 76.855469 12.253906 C 76.96875 12.242188 79.519531 12.410156 83.707031 13.347656 C 83.234375 13.246094 81.980469 12.96875 80.199219 12.699219 " fill-opacity="1" fill-rule="nonzero"/><path fill="#2a2c2d" d="M 48.183594 15.246094 C 45.746094 16.085938 44.457031 16.523438 44.066406 16.546875 C 44.0625 16.535156 44.050781 16.519531 44.042969 16.507812 C 44.101562 16.457031 44.117188 16.441406 44.214844 16.386719 C 46.9375 15.261719 49.746094 14.320312 52.617188 13.574219 C 52.804688 13.550781 52.816406 13.550781 52.859375 13.566406 C 52.734375 13.683594 52.734375 13.683594 48.183594 15.246094 " fill-opacity="1" fill-rule="nonzero"/><path fill="#2a2c2d" d="M 56.691406 13.394531 C 54.160156 13.960938 52.816406 14.230469 52.503906 14.140625 C 52.503906 14.121094 52.503906 14.097656 52.507812 14.078125 C 53.496094 13.332031 60.066406 12.101562 60.949219 12.34375 C 60.898438 12.453125 60.617188 12.519531 56.691406 13.394531 " fill-opacity="1" fill-rule="nonzero"/><g clip-path="url(#f113949d78)"><path fill="#2a2c2d" d="M 65.414062 12.429688 C 63.1875 12.671875 61.84375 12.820312 61.484375 12.726562 C 61.480469 12.710938 61.476562 12.695312 61.46875 12.679688 C 62.289062 12.136719 68.390625 11.746094 69.28125 11.972656 C 69.207031 12.015625 69.207031 12.015625 65.414062 12.429688 " fill-opacity="1" fill-rule="nonzero"/></g><path fill="#2a2c2d" d="M 73.84375 12.300781 C 70.570312 12.273438 70.570312 12.273438 70.421875 12.238281 C 70.746094 11.875 76.550781 12.203125 77.347656 12.390625 C 76.179688 12.480469 75.015625 12.308594 73.84375 12.300781 " fill-opacity="1" fill-rule="nonzero"/><path fill="#2a2c2d" d="M 81.496094 12.96875 C 80.578125 12.835938 79.648438 12.824219 78.742188 12.621094 C 78.871094 12.613281 80.644531 12.714844 83.707031 13.347656 C 83.191406 13.246094 82.476562 13.113281 81.496094 12.96875 " fill-opacity="1" fill-rule="nonzero"/><path fill="#2a2c2d" d="M 34.460938 21.917969 C 31.03125 24.085938 30.667969 24.15625 30.53125 24.183594 C 30.523438 24.167969 30.515625 24.148438 30.507812 24.132812 C 33.15625 22.171875 35.953125 20.421875 38.867188 18.890625 L 38.894531 18.898438 C 38.820312 19.015625 38.671875 19.253906 34.460938 21.917969 " fill-opacity="1" fill-rule="nonzero"/><path fill="#2a2c2d" d="M 42.449219 18.460938 C 39.722656 19.78125 37.984375 20.394531 38.121094 19.984375 C 38.429688 19.070312 45.453125 15.800781 46.472656 16.101562 C 46.480469 16.109375 46.492188 16.125 46.496094 16.132812 C 46.394531 16.523438 43.371094 18.015625 42.449219 18.460938 " fill-opacity="1" fill-rule="nonzero"/><path fill="#2a2c2d" d="M 51.105469 15.863281 C 47.828125 17.058594 46.554688 17.1875 46.753906 16.800781 C 47.207031 15.941406 53.5625 13.828125 54.753906 14.136719 C 54.765625 14.148438 54.78125 14.160156 54.792969 14.167969 C 54.820312 14.488281 51.976562 15.546875 51.105469 15.863281 " fill-opacity="1" fill-rule="nonzero"/><path fill="#2a2c2d" d="M 59.9375 14.078125 C 56.714844 14.902344 55.726562 14.878906 55.855469 14.609375 C 56.171875 13.941406 61.96875 12.644531 63.234375 12.960938 C 63.246094 12.964844 63.261719 12.976562 63.273438 12.984375 C 63.253906 13.050781 63.1875 13.25 59.9375 14.078125 " fill-opacity="1" fill-rule="nonzero"/><path fill="#2a2c2d" d="M 68.457031 13.0625 C 66.871094 13.296875 65.035156 13.535156 64.894531 13.304688 C 65.097656 12.742188 70.488281 12.285156 71.414062 12.503906 C 71.425781 12.507812 71.433594 12.515625 71.445312 12.519531 C 71.390625 12.582031 71.34375 12.636719 68.457031 13.0625 " fill-opacity="1" fill-rule="nonzero"/><path fill="#2a2c2d" d="M 76.175781 12.769531 C 73.855469 12.832031 73.5 12.84375 73.332031 12.761719 C 73.503906 12.429688 78.039062 12.558594 78.800781 12.726562 C 78.738281 12.742188 78.738281 12.742188 78.347656 12.742188 C 77.855469 12.742188 77.242188 12.742188 76.175781 12.769531 " fill-opacity="1" fill-rule="nonzero"/><path fill="#2a2c2d" d="M 82.621094 13.183594 C 81.949219 13.097656 81.265625 13.101562 80.59375 12.960938 C 80.707031 12.945312 81.808594 13.003906 83.707031 13.347656 C 83.527344 13.316406 83.152344 13.253906 82.621094 13.183594 " fill-opacity="1" fill-rule="nonzero"/><path fill="#2a2c2d" d="M 29.699219 26.707031 C 27.296875 28.644531 25.457031 29.699219 25.511719 29.105469 C 25.625 27.875 32.21875 22.695312 33.265625 23.015625 C 33.648438 23.511719 29.738281 26.675781 29.699219 26.707031 " fill-opacity="1" fill-rule="nonzero"/><path fill="#2a2c2d" d="M 37.859375 22.636719 C 35.300781 24.292969 33.207031 25.070312 33.292969 24.332031 C 33.4375 23.03125 39.707031 19.230469 41.085938 19.605469 C 41.652344 20.011719 38.949219 21.929688 37.859375 22.636719 " fill-opacity="1" fill-rule="nonzero"/><path fill="#2a2c2d" d="M 46.660156 19.355469 C 43.808594 20.851562 41.882812 21.167969 42.070312 20.457031 C 42.394531 19.230469 48.070312 16.585938 49.566406 16.964844 C 50.359375 17.410156 46.699219 19.335938 46.660156 19.355469 " fill-opacity="1" fill-rule="nonzero"/><path fill="#2a2c2d" d="M 55.621094 16.8125 C 52.816406 17.988281 50.996094 18.117188 51.355469 17.4375 C 51.910156 16.394531 56.785156 14.695312 58.21875 15.039062 C 58.964844 15.398438 55.757812 16.753906 55.621094 16.8125 " fill-opacity="1" fill-rule="nonzero"/><path fill="#2a2c2d" d="M 64.246094 14.964844 C 61.761719 15.769531 60.210938 15.816406 60.53125 15.320312 C 61.058594 14.519531 65.402344 13.511719 66.546875 13.777344 C 66.648438 13.820312 66.964844 13.960938 65.285156 14.601562 C 65.0625 14.6875 64.699219 14.820312 64.246094 14.964844 " fill-opacity="1" fill-rule="nonzero"/><path fill="#2a2c2d" d="M 72.054688 13.78125 C 69.6875 14.308594 68.960938 14.183594 69.0625 13.980469 C 69.3125 13.476562 73.09375 12.910156 74.070312 13.128906 C 74.089844 13.132812 74.113281 13.148438 74.125 13.164062 C 74.039062 13.289062 73.339844 13.496094 72.054688 13.78125 " fill-opacity="1" fill-rule="nonzero"/><path fill="#2a2c2d" d="M 78.585938 13.234375 C 77.640625 13.328125 76.570312 13.429688 76.441406 13.300781 C 76.472656 13.023438 79.695312 12.929688 80.328125 13.0625 C 80.320312 13.070312 80.320312 13.070312 78.585938 13.234375 " fill-opacity="1" fill-rule="nonzero"/><path fill="#2a2c2d" d="M 83.429688 13.316406 C 83.101562 13.285156 82.808594 13.269531 82.527344 13.25 C 82.292969 13.238281 82.203125 13.230469 82.152344 13.222656 C 82.226562 13.199219 82.839844 13.222656 83.707031 13.347656 C 83.613281 13.335938 83.519531 13.324219 83.429688 13.316406 " fill-opacity="1" fill-rule="nonzero"/><path fill="#2a2c2d" d="M 26.285156 32.367188 C 24.03125 34.667969 21.886719 35.851562 21.785156 34.859375 C 21.636719 33.335938 27.09375 27.542969 28.867188 28.027344 C 29.582031 28.542969 27.664062 30.964844 26.285156 32.367188 " fill-opacity="1" fill-rule="nonzero"/><path fill="#2a2c2d" d="M 34.59375 27.738281 C 31.839844 30.050781 29.511719 30.59375 29.710938 29.328125 C 30.015625 27.410156 35.199219 23.621094 36.914062 24.0625 C 37.820312 24.558594 35.972656 26.582031 34.59375 27.738281 " fill-opacity="1" fill-rule="nonzero"/><path fill="#2a2c2d" d="M 43.527344 23.828125 C 40.890625 25.703125 38.523438 26.070312 38.613281 24.992188 C 38.75 23.371094 43.777344 20.355469 45.597656 20.800781 C 46.558594 21.253906 44.839844 22.898438 43.527344 23.828125 " fill-opacity="1" fill-rule="nonzero"/><path fill="#2a2c2d" d="M 52.613281 20.589844 C 50.070312 22.140625 47.75 22.316406 48.03125 21.273438 C 48.398438 19.898438 52.765625 17.796875 54.433594 18.191406 C 55.453125 18.621094 53.464844 20.066406 52.613281 20.589844 " fill-opacity="1" fill-rule="nonzero"/><path fill="#2a2c2d" d="M 61.355469 17.980469 C 59.085938 19.183594 57.113281 19.257812 57.351562 18.433594 C 57.652344 17.382812 61.460938 15.84375 62.933594 16.179688 C 63.789062 16.519531 62.085938 17.59375 61.355469 17.980469 " fill-opacity="1" fill-rule="nonzero"/><path fill="#2a2c2d" d="M 69.28125 15.96875 C 67.421875 16.8125 65.835938 16.847656 66.050781 16.253906 C 66.34375 15.445312 69.542969 14.484375 70.621094 14.722656 C 71.25 14.957031 69.867188 15.703125 69.28125 15.96875 " fill-opacity="1" fill-rule="nonzero"/><path fill="#a8a8a8" d="M 75.933594 14.527344 C 74.398438 15.105469 73.410156 15.039062 73.605469 14.6875 C 73.90625 14.15625 76.355469 13.644531 77.046875 13.789062 C 77.121094 13.816406 77.347656 13.902344 76.488281 14.296875 C 76.367188 14.351562 76.175781 14.433594 75.933594 14.527344 " fill-opacity="1" fill-rule="nonzero"/><path fill="#2a2c2d" d="M 80.894531 13.652344 C 79.632812 13.980469 79.417969 13.839844 79.484375 13.75 C 79.679688 13.476562 81.414062 13.289062 81.792969 13.359375 C 81.796875 13.363281 81.804688 13.363281 81.808594 13.367188 C 81.808594 13.371094 81.804688 13.378906 81.804688 13.382812 C 81.722656 13.433594 81.035156 13.613281 80.894531 13.652344 " fill-opacity="1" fill-rule="nonzero"/><path fill="#2a2c2d" d="M 83.695312 13.347656 C 83.617188 13.351562 83.535156 13.355469 83.457031 13.359375 C 83.335938 13.371094 83.246094 13.375 83.234375 13.367188 C 83.246094 13.351562 83.421875 13.335938 83.707031 13.347656 C 83.703125 13.347656 83.699219 13.347656 83.695312 13.347656 " fill-opacity="1" fill-rule="nonzero"/><path fill="#2a2c2d" d="M 24.3125 38.859375 C 22.074219 41.738281 19.507812 42.910156 19.40625 41.097656 C 19.273438 38.800781 23.730469 33.359375 25.84375 33.90625 C 27.027344 34.554688 25.53125 37.289062 24.3125 38.859375 " fill-opacity="1" fill-rule="nonzero"/><path fill="#2a2c2d" d="M 32.742188 33.722656 C 30.328125 36.308594 27.398438 37.136719 27.425781 35.21875 C 27.457031 33.066406 31.839844 28.878906 34.097656 29.4375 C 35.4375 30.0625 33.976562 32.398438 32.742188 33.722656 " fill-opacity="1" fill-rule="nonzero"/><path fill="#2a2c2d" d="M 41.800781 29.238281 C 39.472656 31.40625 36.535156 32.027344 36.472656 30.359375 C 36.398438 28.511719 40.65625 25.054688 42.976562 25.609375 C 44.34375 26.183594 42.980469 28.140625 41.800781 29.238281 " fill-opacity="1" fill-rule="nonzero"/><path fill="#a8a8a8" d="M 51.011719 25.363281 C 48.792969 27.222656 45.851562 27.597656 46.015625 26.003906 C 46.195312 24.261719 50.054688 21.921875 52 22.371094 C 53.289062 22.871094 52.078125 24.472656 51.011719 25.363281 " fill-opacity="1" fill-rule="nonzero"/><path fill="#46376d" d="M 59.886719 22.058594 C 57.832031 23.652344 55.390625 23.710938 55.492188 22.507812 C 55.609375 21.113281 58.964844 19.28125 60.695312 19.671875 C 61.816406 20.082031 60.792969 21.351562 59.886719 22.058594 " fill-opacity="1" fill-rule="nonzero"/><path fill="#2a2c2d" d="M 67.953125 19.277344 C 66.289062 20.515625 64.292969 20.542969 64.359375 19.601562 C 64.433594 18.535156 67.152344 17.160156 68.578125 17.46875 C 69.472656 17.78125 68.667969 18.746094 67.953125 19.277344 " fill-opacity="1" fill-rule="nonzero"/><path fill="#2a2c2d" d="M 74.75 17.007812 C 73.546875 17.90625 72.039062 17.925781 72.085938 17.246094 C 72.136719 16.507812 74.175781 15.515625 75.207031 15.730469 C 75.839844 15.945312 75.261719 16.628906 74.75 17.007812 " fill-opacity="1" fill-rule="nonzero"/><path fill="#2a2c2d" d="M 79.871094 15.242188 C 79.132812 15.832031 78.140625 15.859375 78.171875 15.417969 C 78.210938 14.914062 79.5625 14.324219 80.164062 14.441406 C 80.570312 14.578125 80.074219 15.078125 79.871094 15.242188 " fill-opacity="1" fill-rule="nonzero"/><path fill="#2a2c2d" d="M 82.9375 13.984375 C 82.605469 14.339844 82.191406 14.316406 82.171875 14.140625 C 82.140625 13.875 82.878906 13.566406 83.089844 13.605469 C 83.230469 13.652344 82.941406 13.980469 82.9375 13.984375 " fill-opacity="1" fill-rule="nonzero"/><path fill="#2a2c2d" d="M 83.707031 13.355469 C 83.710938 13.371094 83.710938 13.378906 83.707031 13.378906 C 83.707031 13.378906 83.695312 13.375 83.707031 13.347656 C 83.707031 13.351562 83.707031 13.351562 83.707031 13.355469 " fill-opacity="1" fill-rule="nonzero"/><path fill="#a8a8a8" d="M 23.820312 46.113281 C 21.894531 49.246094 19.105469 50.472656 18.488281 48.457031 C 17.699219 45.886719 21.582031 39.929688 24.28125 40.597656 C 25.847656 41.335938 24.957031 44.265625 23.820312 46.113281 " fill-opacity="1" fill-rule="nonzero"/><path fill="#2a2c2d" d="M 32.335938 40.523438 C 30.222656 43.394531 27.035156 44.277344 26.554688 42.121094 C 25.996094 39.617188 29.871094 34.992188 32.710938 35.675781 C 34.394531 36.382812 33.507812 38.9375 32.335938 40.523438 " fill-opacity="1" fill-rule="nonzero"/><path fill="#2a2c2d" d="M 41.507812 35.527344 C 39.371094 38.082031 35.945312 38.65625 35.6875 36.503906 C 35.421875 34.285156 39.140625 30.71875 41.777344 31.335938 C 43.460938 31.988281 42.632812 34.179688 41.507812 35.527344 " fill-opacity="1" fill-rule="nonzero"/><path fill="#2a2c2d" d="M 50.851562 31.074219 C 48.808594 33.339844 45.363281 33.648438 45.355469 31.566406 C 45.34375 29.636719 48.605469 26.984375 51 27.527344 C 52.585938 28.105469 51.867188 29.949219 50.851562 31.074219 " fill-opacity="1" fill-rule="nonzero"/><path fill="#2a2c2d" d="M 59.871094 27.128906 C 57.984375 29.160156 55.0625 29.101562 55 27.484375 C 54.941406 25.890625 57.765625 23.730469 59.902344 24.199219 C 61.304688 24.6875 60.730469 26.203125 59.871094 27.128906 " fill-opacity="1" fill-rule="nonzero"/><path fill="#2a2c2d" d="M 68.101562 23.648438 C 66.640625 25.269531 64.164062 25.214844 64.058594 23.921875 C 63.953125 22.679688 66.257812 20.9375 68.003906 21.3125 C 69.171875 21.699219 68.765625 22.914062 68.101562 23.648438 " fill-opacity="1" fill-rule="nonzero"/><path fill="#2a2c2d" d="M 75.074219 20.617188 C 74.042969 21.902344 72.136719 21.867188 71.984375 20.839844 C 71.832031 19.8125 73.605469 18.574219 74.863281 18.832031 C 75.765625 19.121094 75.53125 20.050781 75.074219 20.617188 " fill-opacity="1" fill-rule="nonzero"/><path fill="#2a2c2d" d="M 80.386719 18.023438 C 79.828125 18.964844 78.476562 18.964844 78.289062 18.222656 C 78.101562 17.484375 79.199219 16.574219 80.070312 16.742188 C 80.695312 16.941406 80.632812 17.609375 80.386719 18.023438 " fill-opacity="1" fill-rule="nonzero"/><path fill="#2a2c2d" d="M 83.660156 15.878906 C 83.550781 16.445312 82.886719 16.554688 82.59375 16.171875 C 82.246094 15.714844 82.738281 14.984375 83.210938 15.042969 C 83.226562 15.042969 83.246094 15.046875 83.257812 15.050781 C 83.621094 15.164062 83.710938 15.609375 83.660156 15.878906 " fill-opacity="1" fill-rule="nonzero"/><path fill="#2a2c2d" d="M 84.5625 14.203125 C 84.714844 14.429688 84.675781 14.566406 84.542969 14.535156 C 84.238281 14.464844 84.011719 13.84375 84.089844 13.773438 C 84.097656 13.765625 84.109375 13.769531 84.117188 13.769531 C 84.207031 13.800781 84.441406 14.015625 84.5625 14.203125 " fill-opacity="1" fill-rule="nonzero"/><path fill="#46376d" d="M 24.773438 54.050781 C 23.074219 57.570312 19.847656 58.734375 18.921875 56.160156 C 17.820312 53.089844 21.019531 47.277344 24.195312 48.039062 C 26.1875 48.882812 25.734375 52.058594 24.773438 54.050781 " fill-opacity="1" fill-rule="nonzero"/><path fill="#2a2c2d" d="M 33.351562 48.0625 C 31.421875 51.355469 27.753906 52.140625 27.023438 49.414062 C 26.246094 46.53125 29.613281 41.96875 32.777344 42.707031 C 34.863281 43.519531 34.371094 46.328125 33.351562 48.0625 " fill-opacity="1" fill-rule="nonzero"/><path fill="#46376d" d="M 42.625 42.609375 C 40.644531 45.617188 36.703125 46.066406 36.238281 43.339844 C 35.808594 40.800781 39.074219 37.242188 42.015625 37.910156 C 44.078125 38.664062 43.613281 41.113281 42.625 42.609375 " fill-opacity="1" fill-rule="nonzero"/><path fill="#2a2c2d" d="M 52.101562 37.644531 C 50.285156 40.246094 46.570312 40.578125 46.082031 38.1875 C 45.632812 35.992188 48.652344 32.972656 51.4375 33.589844 C 53.378906 34.261719 52.992188 36.363281 52.101562 37.644531 " fill-opacity="1" fill-rule="nonzero"/><path fill="#2a2c2d" d="M 61.289062 33.117188 C 59.777344 35.292969 56.414062 35.554688 55.914062 33.539062 C 55.453125 31.683594 58.058594 29.15625 60.554688 29.691406 C 62.296875 30.269531 62.03125 32.042969 61.289062 33.117188 " fill-opacity="1" fill-rule="nonzero"/><path fill="#2a2c2d" d="M 69.699219 29.003906 C 68.476562 30.929688 65.445312 31.023438 65.132812 29.140625 C 64.882812 27.640625 66.898438 25.757812 68.902344 26.175781 C 70.386719 26.652344 70.265625 28.113281 69.699219 29.003906 " fill-opacity="1" fill-rule="nonzero"/><path fill="#46376d" d="M 76.886719 25.273438 C 76.09375 26.824219 73.679688 26.917969 73.292969 25.410156 C 72.988281 24.210938 74.425781 22.695312 76.023438 23.015625 C 77.222656 23.386719 77.25 24.558594 76.886719 25.273438 " fill-opacity="1" fill-rule="nonzero"/><path fill="#2a2c2d" d="M 82.421875 21.917969 C 82.058594 23.15625 80.421875 23.164062 79.914062 22.195312 C 79.4375 21.285156 80.296875 19.957031 81.511719 20.191406 C 82.410156 20.460938 82.585938 21.363281 82.421875 21.917969 " fill-opacity="1" fill-rule="nonzero"/><path fill="#2a2c2d" d="M 85.867188 18.929688 C 85.90625 19.710938 85.175781 19.894531 84.628906 19.4375 C 83.9375 18.855469 84.125 17.757812 84.761719 17.683594 C 84.84375 17.675781 84.917969 17.6875 84.972656 17.699219 C 85.550781 17.867188 85.847656 18.535156 85.867188 18.929688 " fill-opacity="1" fill-rule="nonzero"/><path fill="#2a2c2d" d="M 86.929688 16.351562 C 87.164062 16.738281 87.070312 16.941406 86.835938 16.890625 C 86.324219 16.773438 85.730469 15.734375 85.957031 15.5625 C 85.992188 15.539062 86.027344 15.542969 86.066406 15.546875 C 86.34375 15.628906 86.742188 16.035156 86.929688 16.351562 " fill-opacity="1" fill-rule="nonzero"/><path fill="#2a2c2d" d="M 85.578125 14.273438 C 85.78125 14.398438 86.003906 14.554688 86.03125 14.621094 C 86.027344 14.625 86.023438 14.628906 86.023438 14.628906 C 85.867188 14.613281 84.757812 13.84375 84.746094 13.839844 C 84.75 13.835938 84.75 13.835938 84.75 13.835938 C 84.820312 13.855469 85.222656 14.050781 85.578125 14.273438 " fill-opacity="1" fill-rule="nonzero"/><path fill="#2a2c2d" d="M 27.066406 62.570312 C 25.664062 66.269531 22.226562 67.46875 20.832031 64.738281 C 19.152344 61.449219 21.875 55.28125 25.527344 56.132812 C 27.917969 57.066406 27.867188 60.457031 27.066406 62.570312 " fill-opacity="1" fill-rule="nonzero"/><path fill="#2a2c2d" d="M 35.691406 56.242188 C 34.046875 59.734375 30.113281 60.550781 28.90625 57.644531 C 27.605469 54.527344 30.621094 49.628906 34.230469 50.453125 C 36.691406 51.351562 36.566406 54.378906 35.691406 56.242188 " fill-opacity="1" fill-rule="nonzero"/><path fill="#2a2c2d" d="M 45.058594 50.394531 C 43.34375 53.621094 39.09375 54.09375 38.164062 51.160156 C 37.289062 48.382812 40.304688 44.507812 43.632812 45.25 C 46.054688 46.089844 45.921875 48.761719 45.058594 50.394531 " fill-opacity="1" fill-rule="nonzero"/><path fill="#2a2c2d" d="M 54.675781 44.972656 C 53.101562 47.816406 49.082031 48.179688 48.160156 45.566406 C 47.304688 43.136719 50.109375 39.789062 53.253906 40.472656 C 55.535156 41.226562 55.457031 43.558594 54.675781 44.972656 " fill-opacity="1" fill-rule="nonzero"/><path fill="#2a2c2d" d="M 64.042969 39.9375 C 62.65625 42.535156 58.769531 42.667969 58.097656 40.140625 C 57.554688 38.085938 59.921875 35.496094 62.605469 36.0625 C 64.671875 36.71875 64.691406 38.722656 64.042969 39.9375 " fill-opacity="1" fill-rule="nonzero"/><path fill="#2a2c2d" d="M 72.671875 35.25 C 71.664062 37.425781 68.296875 37.542969 67.597656 35.425781 C 67.027344 33.695312 68.902344 31.511719 71.214844 31.984375 C 73.007812 32.535156 73.144531 34.222656 72.671875 35.25 " fill-opacity="1" fill-rule="nonzero"/><path fill="#2a2c2d" d="M 80.101562 30.878906 C 79.535156 32.585938 77.007812 32.820312 76.125 31.253906 C 75.3125 29.808594 76.625 27.804688 78.628906 28.199219 C 80.113281 28.640625 80.382812 30.03125 80.101562 30.878906 " fill-opacity="1" fill-rule="nonzero"/><path fill="#2a2c2d" d="M 85.800781 26.804688 C 85.632812 28.132812 84.007812 28.441406 83.085938 27.324219 C 82.132812 26.167969 82.878906 24.476562 84.261719 24.664062 C 84.304688 24.671875 84.359375 24.683594 84.402344 24.691406 C 85.515625 25.011719 85.890625 26.121094 85.800781 26.804688 " fill-opacity="1" fill-rule="nonzero"/><path fill="#2a2c2d" d="M 89.324219 23.015625 C 89.476562 24 88.628906 24.25 87.914062 23.6875 C 86.945312 22.921875 86.976562 21.515625 87.75 21.40625 C 87.851562 21.394531 87.949219 21.410156 88.019531 21.421875 C 88.773438 21.636719 89.246094 22.5 89.324219 23.015625 " fill-opacity="1" fill-rule="nonzero"/><path fill="#2a2c2d" d="M 90.542969 19.585938 C 90.835938 20.113281 90.730469 20.441406 90.3125 20.300781 C 89.570312 20.054688 88.8125 18.683594 89.152344 18.472656 C 89.207031 18.4375 89.265625 18.445312 89.328125 18.457031 C 89.753906 18.578125 90.289062 19.136719 90.542969 19.585938 " fill-opacity="1" fill-rule="nonzero"/><path fill="#2a2c2d" d="M 89.414062 16.613281 C 89.808594 16.949219 89.921875 17.148438 89.800781 17.144531 C 89.53125 17.144531 88.105469 15.972656 88.261719 15.882812 C 88.269531 15.875 88.285156 15.878906 88.296875 15.882812 C 88.496094 15.9375 89.03125 16.285156 89.414062 16.613281 " fill-opacity="1" fill-rule="nonzero"/><path fill="#2a2c2d" d="M 85.988281 14.210938 C 86.316406 14.355469 86.613281 14.5 86.675781 14.546875 C 86.617188 14.546875 85 13.816406 84.988281 13.808594 C 85.066406 13.835938 85.511719 14.003906 85.988281 14.210938 " fill-opacity="1" fill-rule="nonzero"/><path fill="#2a2c2d" d="M 30.535156 71.542969 C 29.339844 75.515625 25.492188 76.492188 23.789062 73.257812 C 21.9375 69.742188 24.324219 63.914062 28.160156 64.785156 C 30.894531 65.792969 31.195312 69.34375 30.535156 71.542969 " fill-opacity="1" fill-rule="nonzero"/><path fill="#2a2c2d" d="M 39.183594 64.953125 C 37.691406 68.824219 33.222656 69.460938 31.828125 65.996094 C 30.460938 62.601562 33.15625 57.957031 36.960938 58.804688 C 39.753906 59.777344 39.941406 62.984375 39.183594 64.953125 " fill-opacity="1" fill-rule="nonzero"/><path fill="#2a2c2d" d="M 48.652344 58.769531 C 47.121094 62.257812 42.664062 62.746094 41.308594 59.574219 C 40.042969 56.601562 42.84375 52.453125 46.515625 53.253906 C 49.257812 54.164062 49.414062 57.027344 48.652344 58.769531 " fill-opacity="1" fill-rule="nonzero"/><path fill="#2a2c2d" d="M 58.429688 52.960938 C 56.949219 56.222656 52.367188 56.414062 51.324219 53.253906 C 50.46875 50.664062 53.058594 47.382812 56.34375 48.078125 C 58.933594 48.902344 59.121094 51.429688 58.429688 52.960938 " fill-opacity="1" fill-rule="nonzero"/><path fill="#a8a8a8" d="M 68.003906 47.476562 C 66.808594 50.28125 62.597656 50.433594 61.566406 47.707031 C 60.714844 45.453125 62.957031 42.597656 65.945312 43.214844 C 68.304688 43.941406 68.570312 46.140625 68.003906 47.476562 " fill-opacity="1" fill-rule="nonzero"/><path fill="#46376d" d="M 76.882812 42.277344 C 76.023438 44.726562 72.394531 44.867188 71.332031 42.492188 C 70.46875 40.5625 72.230469 38.109375 74.84375 38.628906 C 76.914062 39.242188 77.28125 41.132812 76.882812 42.277344 " fill-opacity="1" fill-rule="nonzero"/><path fill="#2a2c2d" d="M 84.480469 37.316406 C 84.054688 39.25 81.371094 39.542969 80.191406 37.78125 C 79.09375 36.144531 80.277344 33.84375 82.550781 34.277344 C 84.234375 34.761719 84.691406 36.347656 84.480469 37.316406 " fill-opacity="1" fill-rule="nonzero"/><path fill="#46376d" d="M 90.191406 32.546875 C 90.132812 34.058594 88.398438 34.449219 87.289062 33.195312 C 86.171875 31.9375 86.667969 30.027344 88.101562 30.054688 C 88.199219 30.054688 88.324219 30.078125 88.421875 30.09375 C 89.691406 30.453125 90.222656 31.742188 90.191406 32.546875 " fill-opacity="1" fill-rule="nonzero"/><path fill="#2a2c2d" d="M 93.789062 28.007812 C 94 29.042969 93.265625 29.511719 92.363281 28.925781 C 91.195312 28.164062 90.847656 26.25 91.847656 26.085938 C 91.964844 26.066406 92.078125 26.085938 92.160156 26.097656 C 93.058594 26.347656 93.664062 27.382812 93.789062 28.007812 " fill-opacity="1" fill-rule="nonzero"/><path fill="#2a2c2d" d="M 95.148438 23.78125 C 95.488281 24.433594 95.351562 24.84375 94.84375 24.679688 C 93.890625 24.367188 92.976562 22.667969 93.433594 22.386719 C 93.507812 22.339844 93.582031 22.351562 93.660156 22.363281 C 94.199219 22.511719 94.855469 23.214844 95.148438 23.78125 " fill-opacity="1" fill-rule="nonzero"/><path fill="#2a2c2d" d="M 94.234375 19.964844 C 94.617188 20.367188 94.761719 20.667969 94.570312 20.664062 C 94.15625 20.65625 92.613281 19.183594 92.8125 18.984375 C 92.828125 18.96875 92.863281 18.972656 92.890625 18.976562 C 93.207031 19.0625 93.839844 19.558594 94.234375 19.964844 " fill-opacity="1" fill-rule="nonzero"/><path fill="#2a2c2d" d="M 91.089844 16.671875 C 91.183594 16.730469 91.660156 17.027344 91.730469 17.140625 C 91.730469 17.144531 91.726562 17.148438 91.722656 17.152344 C 91.53125 17.140625 89.945312 16.128906 89.898438 16.050781 C 89.902344 16.050781 89.90625 16.046875 89.910156 16.046875 C 90.058594 16.085938 90.640625 16.398438 91.089844 16.671875 " fill-opacity="1" fill-rule="nonzero"/><path fill="#2a2c2d" d="M 85.859375 14.042969 C 86.203125 14.167969 86.507812 14.285156 86.601562 14.324219 C 86.566406 14.320312 84.882812 13.714844 84.871094 13.710938 C 84.9375 13.730469 85.371094 13.871094 85.859375 14.042969 " fill-opacity="1" fill-rule="nonzero"/><path fill="#2a2c2d" d="M 35.003906 80.546875 C 34.046875 84.378906 30.0625 85.261719 28.011719 82.097656 C 25.660156 78.46875 27.898438 73.152344 31.53125 73.730469 C 31.648438 73.75 31.804688 73.792969 31.921875 73.816406 C 34.941406 74.875 35.542969 78.390625 35.003906 80.546875 " fill-opacity="1" fill-rule="nonzero"/><path fill="#2a2c2d" d="M 43.617188 74.066406 C 42.316406 78.027344 37.71875 78.636719 35.929688 75.082031 C 34.191406 71.636719 36.714844 66.773438 40.785156 67.652344 C 43.855469 68.679688 44.289062 72.023438 43.617188 74.066406 " fill-opacity="1" fill-rule="nonzero"/><path fill="#46376d" d="M 53.195312 67.621094 C 51.832031 71.242188 47.144531 71.753906 45.480469 68.46875 C 43.855469 65.261719 46.441406 60.957031 50.492188 61.8125 C 53.503906 62.777344 53.886719 65.792969 53.195312 67.621094 " fill-opacity="1" fill-rule="nonzero"/><path fill="#2a2c2d" d="M 63.152344 61.484375 C 61.828125 64.898438 56.96875 65.109375 55.617188 61.808594 C 54.464844 58.992188 56.898438 55.542969 60.53125 56.292969 C 63.386719 57.171875 63.785156 59.859375 63.152344 61.484375 " fill-opacity="1" fill-rule="nonzero"/><path fill="#2a2c2d" d="M 72.96875 55.617188 C 71.878906 58.671875 67.449219 58.84375 66.09375 55.886719 C 64.988281 53.460938 67.144531 50.386719 70.402344 51.039062 C 73.023438 51.816406 73.480469 54.183594 72.96875 55.617188 " fill-opacity="1" fill-rule="nonzero"/><path fill="#2a2c2d" d="M 82.027344 49.953125 C 81.285156 52.628906 77.496094 52.808594 76.152344 50.234375 C 75.050781 48.132812 76.742188 45.449219 79.601562 46 C 81.851562 46.652344 82.375 48.703125 82.027344 49.953125 " fill-opacity="1" fill-rule="nonzero"/><path fill="#2a2c2d" d="M 89.585938 44.40625 C 89.25 46.566406 86.523438 46.933594 85.167969 45.003906 C 83.882812 43.175781 85.082031 40.769531 87.140625 41.042969 C 87.210938 41.050781 87.300781 41.070312 87.371094 41.082031 C 89.175781 41.589844 89.75 43.332031 89.585938 44.40625 " fill-opacity="1" fill-rule="nonzero"/><path fill="#a8a8a8" d="M 95.308594 38.996094 C 95.320312 40.617188 93.714844 41.152344 92.441406 39.949219 C 91 38.589844 91.316406 36.222656 92.941406 36.226562 C 93.042969 36.226562 93.179688 36.246094 93.285156 36.265625 C 94.667969 36.648438 95.300781 38.09375 95.308594 38.996094 " fill-opacity="1" fill-rule="nonzero"/><path fill="#46376d" d="M 98.984375 33.769531 C 99.238281 34.945312 98.457031 35.5 97.46875 34.851562 C 96.15625 33.992188 95.695312 31.796875 96.785156 31.585938 C 96.914062 31.5625 97.039062 31.582031 97.132812 31.59375 C 98.144531 31.867188 98.824219 33.03125 98.984375 33.769531 " fill-opacity="1" fill-rule="nonzero"/><path fill="#2a2c2d" d="M 100.480469 28.808594 C 100.84375 29.566406 100.675781 30.054688 100.117188 29.875 C 99.042969 29.527344 98.023438 27.5 98.535156 27.171875 C 98.625 27.113281 98.710938 27.125 98.804688 27.140625 C 99.425781 27.304688 100.15625 28.132812 100.480469 28.808594 " fill-opacity="1" fill-rule="nonzero"/><path fill="#2a2c2d" d="M 99.761719 24.199219 C 100.160156 24.691406 100.285156 25.058594 100.050781 25.058594 C 99.511719 25.058594 97.847656 23.25 98.160156 23 C 98.1875 22.980469 98.234375 22.984375 98.265625 22.988281 C 98.648438 23.089844 99.347656 23.695312 99.761719 24.199219 " fill-opacity="1" fill-rule="nonzero"/><path fill="#2a2c2d" d="M 96.878906 20.070312 C 97.304688 20.402344 97.5625 20.671875 97.464844 20.683594 C 97.253906 20.714844 95.519531 19.417969 95.550781 19.253906 C 95.558594 19.25 95.574219 19.25 95.582031 19.25 C 95.800781 19.308594 96.4375 19.726562 96.878906 20.070312 " fill-opacity="1" fill-rule="nonzero"/><path fill="#2a2c2d" d="M 91.976562 16.550781 C 92.28125 16.703125 92.617188 16.882812 92.679688 16.941406 C 92.574219 16.949219 90.914062 16.074219 90.902344 16.0625 C 90.902344 16.0625 90.902344 16.058594 90.902344 16.058594 C 90.992188 16.082031 91.503906 16.3125 91.976562 16.550781 " fill-opacity="1" fill-rule="nonzero"/><path fill="#46376d" d="M 40.175781 89.347656 C 39.300781 93.269531 34.925781 93.84375 32.742188 90.320312 C 30.5625 86.8125 32.441406 81.875 36.613281 82.789062 C 39.835938 83.867188 40.636719 87.273438 40.175781 89.347656 " fill-opacity="1" fill-rule="nonzero"/><path fill="#2a2c2d" d="M 48.765625 83.1875 C 47.617188 86.984375 42.886719 87.519531 40.859375 84.082031 C 38.847656 80.675781 41.183594 75.917969 45.476562 76.828125 C 48.753906 77.882812 49.375 81.183594 48.765625 83.1875 " fill-opacity="1" fill-rule="nonzero"/><path fill="#2a2c2d" d="M 58.421875 76.8125 C 57.082031 80.6875 51.863281 80.96875 50.210938 77.257812 C 48.789062 74.066406 51.332031 69.972656 55.324219 70.796875 C 58.546875 71.796875 59.074219 74.917969 58.421875 76.8125 " fill-opacity="1" fill-rule="nonzero"/><path fill="#2a2c2d" d="M 68.59375 70.417969 C 67.320312 74.015625 62.308594 74.242188 60.710938 70.78125 C 59.347656 67.835938 61.730469 64.21875 65.59375 64.992188 C 68.660156 65.910156 69.195312 68.71875 68.59375 70.417969 " fill-opacity="1" fill-rule="nonzero"/><path fill="#2a2c2d" d="M 78.597656 64.21875 C 77.597656 67.378906 72.984375 67.589844 71.445312 64.546875 C 70.125 61.933594 72.203125 58.722656 75.75 59.410156 C 78.515625 60.207031 79.082031 62.703125 78.597656 64.21875 " fill-opacity="1" fill-rule="nonzero"/><path fill="#2a2c2d" d="M 87.582031 58.085938 C 86.9375 60.773438 83.449219 61.199219 81.839844 58.789062 C 80.335938 56.539062 81.914062 53.351562 84.996094 53.914062 C 87.3125 54.570312 87.902344 56.75 87.582031 58.085938 " fill-opacity="1" fill-rule="nonzero"/><path fill="#2a2c2d" d="M 95.105469 52.015625 C 94.828125 54.226562 92.335938 54.785156 90.808594 52.976562 C 89.175781 51.050781 90.257812 48.15625 92.507812 48.425781 C 92.578125 48.433594 92.675781 48.453125 92.746094 48.464844 C 94.617188 48.984375 95.253906 50.851562 95.105469 52.015625 " fill-opacity="1" fill-rule="nonzero"/><path fill="#2a2c2d" d="M 100.851562 46.027344 C 100.894531 47.785156 99.25 48.402344 97.925781 47.132812 C 96.398438 45.667969 96.664062 43.066406 98.339844 43.035156 C 98.449219 43.035156 98.59375 43.054688 98.699219 43.074219 C 100.148438 43.464844 100.832031 45.035156 100.851562 46.027344 " fill-opacity="1" fill-rule="nonzero"/><path fill="#2a2c2d" d="M 104.609375 40.175781 C 104.875 41.472656 104.066406 42.109375 103.03125 41.417969 C 101.640625 40.484375 101.132812 38.035156 102.273438 37.777344 C 102.410156 37.746094 102.546875 37.765625 102.644531 37.777344 C 103.714844 38.0625 104.4375 39.351562 104.609375 40.175781 " fill-opacity="1" fill-rule="nonzero"/><path fill="#2a2c2d" d="M 106.234375 34.53125 C 106.628906 35.441406 106.382812 36.007812 105.714844 35.714844 C 104.601562 35.226562 103.492188 32.945312 104.230469 32.667969 C 104.308594 32.636719 104.402344 32.648438 104.464844 32.65625 C 105.210938 32.847656 105.949219 33.867188 106.234375 34.53125 " fill-opacity="1" fill-rule="nonzero"/><path fill="#2a2c2d" d="M 105.699219 29.1875 C 106.132812 29.804688 106.21875 30.242188 105.890625 30.1875 C 105.210938 30.070312 103.640625 28.089844 104.003906 27.804688 C 104.039062 27.777344 104.089844 27.78125 104.128906 27.785156 C 104.5625 27.894531 105.28125 28.597656 105.699219 29.1875 " fill-opacity="1" fill-rule="nonzero"/><path fill="#2a2c2d" d="M 103.050781 24.265625 C 103.480469 24.671875 103.714844 24.992188 103.59375 25.011719 C 103.339844 25.050781 101.515625 23.425781 101.664062 23.289062 C 101.671875 23.28125 101.691406 23.28125 101.703125 23.285156 C 101.953125 23.347656 102.601562 23.84375 103.050781 24.265625 " fill-opacity="1" fill-rule="nonzero"/><path fill="#2a2c2d" d="M 98.449219 19.90625 C 98.730469 20.089844 99.070312 20.328125 99.109375 20.402344 C 99.015625 20.457031 97.402344 19.386719 97.332031 19.285156 C 97.332031 19.285156 97.335938 19.28125 97.339844 19.277344 C 97.46875 19.3125 98.03125 19.636719 98.449219 19.90625 " fill-opacity="1" fill-rule="nonzero"/><path fill="#2a2c2d" d="M 45.710938 97.804688 C 44.902344 101.457031 40.480469 101.949219 38.199219 98.640625 C 35.78125 95.132812 37.753906 90.820312 41.492188 91.425781 C 41.621094 91.449219 41.792969 91.492188 41.917969 91.519531 C 45.257812 92.589844 46.148438 95.839844 45.710938 97.804688 " fill-opacity="1" fill-rule="nonzero"/><path fill="#2a2c2d" d="M 54.328125 92.03125 C 53.167969 95.832031 47.984375 96.058594 46.054688 92.390625 C 44.34375 89.144531 46.628906 85.019531 50.792969 85.886719 C 54.203125 86.941406 54.914062 90.117188 54.328125 92.03125 " fill-opacity="1" fill-rule="nonzero"/><path fill="#a8a8a8" d="M 64.058594 85.988281 C 62.742188 89.765625 57.488281 89.988281 55.667969 86.34375 C 54.101562 83.207031 56.589844 79.214844 60.734375 80.042969 C 64.101562 81.058594 64.707031 84.128906 64.058594 85.988281 " fill-opacity="1" fill-rule="nonzero"/><path fill="#2a2c2d" d="M 74.375 79.609375 C 73.117188 83.226562 67.988281 83.488281 66.300781 80.023438 C 64.960938 77.28125 66.941406 73.21875 71.246094 74.054688 C 74.230469 74.921875 75.082031 77.5625 74.375 79.609375 " fill-opacity="1" fill-rule="nonzero"/><path fill="#2a2c2d" d="M 84.285156 73.066406 C 83.273438 76.363281 78.78125 76.660156 77.21875 73.539062 C 75.875 70.847656 77.917969 67.480469 81.464844 68.132812 C 84.21875 68.914062 84.773438 71.488281 84.285156 73.066406 " fill-opacity="1" fill-rule="nonzero"/><path fill="#46376d" d="M 93.207031 66.535156 C 92.558594 69.316406 89.097656 69.828125 87.511719 67.375 C 86.003906 65.050781 87.558594 61.683594 90.628906 62.21875 C 92.953125 62.859375 93.535156 65.128906 93.207031 66.535156 " fill-opacity="1" fill-rule="nonzero"/><path fill="#2a2c2d" d="M 100.722656 60.003906 C 100.433594 62.332031 97.945312 62.972656 96.429688 61.109375 C 94.796875 59.101562 95.871094 56.015625 98.121094 56.253906 C 98.195312 56.261719 98.289062 56.28125 98.363281 56.292969 C 100.246094 56.800781 100.875 58.769531 100.722656 60.003906 " fill-opacity="1" fill-rule="nonzero"/><path fill="#46376d" d="M 106.511719 53.507812 C 106.535156 55.375 104.882812 56.074219 103.5625 54.753906 C 102.03125 53.222656 102.300781 50.421875 103.988281 50.347656 C 104.097656 50.34375 104.242188 50.363281 104.351562 50.378906 C 105.820312 50.769531 106.5 52.441406 106.511719 53.507812 " fill-opacity="1" fill-rule="nonzero"/><path fill="#2a2c2d" d="M 110.347656 47.085938 C 110.597656 48.484375 109.773438 49.199219 108.742188 48.480469 C 107.277344 47.457031 106.835938 44.632812 108.125 44.503906 C 108.199219 44.496094 108.304688 44.507812 108.382812 44.515625 C 109.472656 44.800781 110.1875 46.191406 110.347656 47.085938 " fill-opacity="1" fill-rule="nonzero"/><path fill="#2a2c2d" d="M 112.097656 40.816406 C 112.476562 41.816406 112.210938 42.457031 111.542969 42.152344 C 110.414062 41.640625 109.328125 39.132812 110.089844 38.796875 C 110.171875 38.757812 110.265625 38.769531 110.332031 38.773438 C 111.015625 38.949219 111.78125 39.96875 112.097656 40.816406 " fill-opacity="1" fill-rule="nonzero"/><path fill="#2a2c2d" d="M 111.726562 34.789062 C 112.144531 35.480469 112.210938 35.976562 111.878906 35.925781 C 111.171875 35.820312 109.636719 33.601562 110.035156 33.261719 C 110.070312 33.226562 110.125 33.230469 110.167969 33.234375 C 110.613281 33.34375 111.320312 34.128906 111.726562 34.789062 " fill-opacity="1" fill-rule="nonzero"/><path fill="#2a2c2d" d="M 109.289062 29.132812 C 109.734375 29.628906 109.945312 30.019531 109.765625 30 C 109.375 29.953125 107.726562 28.199219 107.910156 28.023438 C 107.921875 28.011719 107.945312 28.011719 107.957031 28.011719 C 108.222656 28.074219 108.855469 28.644531 109.289062 29.132812 " fill-opacity="1" fill-rule="nonzero"/><path fill="#2a2c2d" d="M 104.945312 23.980469 C 105.21875 24.199219 105.546875 24.484375 105.574219 24.574219 C 105.570312 24.574219 105.5625 24.582031 105.558594 24.582031 C 105.347656 24.535156 103.921875 23.421875 103.847656 23.246094 C 103.847656 23.246094 103.855469 23.238281 103.855469 23.238281 C 103.992188 23.269531 104.539062 23.652344 104.945312 23.980469 " fill-opacity="1" fill-rule="nonzero"/><path fill="#a8a8a8" d="M 51.285156 105.785156 C 50.378906 109.382812 45.667969 109.570312 43.535156 106.089844 C 41.570312 102.890625 43.355469 99 47.5 99.871094 C 50.875 100.914062 51.746094 103.957031 51.285156 105.785156 " fill-opacity="1" fill-rule="nonzero"/><path fill="#2a2c2d" d="M 59.953125 100.464844 C 58.6875 104.1875 53.128906 104.097656 51.460938 100.328125 C 50.089844 97.242188 52.332031 93.789062 56.414062 94.621094 C 59.875 95.660156 60.566406 98.664062 59.953125 100.464844 " fill-opacity="1" fill-rule="nonzero"/><path fill="#2a2c2d" d="M 69.753906 94.804688 C 68.324219 98.570312 62.699219 98.503906 61.15625 94.703125 C 60.0625 91.996094 62.21875 88.289062 66.457031 89.117188 C 69.847656 90.105469 70.429688 93.039062 69.753906 94.804688 " fill-opacity="1" fill-rule="nonzero"/><path fill="#46376d" d="M 79.863281 88.679688 C 78.566406 92.160156 73.667969 92.4375 72.042969 89.125 C 70.628906 86.25 73.0625 82.539062 76.957031 83.257812 C 80.027344 84.136719 80.507812 86.957031 79.863281 88.679688 " fill-opacity="1" fill-rule="nonzero"/><path fill="#2a2c2d" d="M 89.660156 82.019531 C 88.570312 85.355469 84.195312 85.746094 82.777344 82.636719 C 81.535156 79.917969 83.609375 76.441406 87.050781 77.042969 C 89.882812 77.832031 90.15625 80.515625 89.660156 82.019531 " fill-opacity="1" fill-rule="nonzero"/><path fill="#2a2c2d" d="M 98.5625 75.160156 C 97.84375 78.011719 94.453125 78.609375 92.980469 76.140625 C 91.570312 73.777344 93.175781 70.277344 96.160156 70.761719 C 98.425781 71.378906 98.929688 73.703125 98.5625 75.160156 " fill-opacity="1" fill-rule="nonzero"/><path fill="#2a2c2d" d="M 106.101562 68.246094 C 105.746094 70.652344 103.296875 71.371094 101.875 69.488281 C 100.324219 67.4375 101.453125 64.199219 103.652344 64.394531 C 103.722656 64.402344 103.816406 64.417969 103.886719 64.429688 C 105.730469 64.921875 106.289062 66.957031 106.101562 68.246094 " fill-opacity="1" fill-rule="nonzero"/><path fill="#a8a8a8" d="M 111.953125 61.300781 C 111.917969 63.296875 110.308594 64.0625 109.035156 62.695312 C 107.472656 61.011719 107.9375 57.917969 109.738281 58.03125 C 109.792969 58.035156 109.863281 58.046875 109.917969 58.054688 C 111.351562 58.429688 111.972656 60.175781 111.953125 61.300781 " fill-opacity="1" fill-rule="nonzero"/><path fill="#2a2c2d" d="M 115.878906 54.371094 C 116.082031 55.878906 115.273438 56.65625 114.273438 55.910156 C 112.863281 54.859375 112.503906 51.847656 113.769531 51.671875 C 113.847656 51.664062 113.949219 51.671875 114.023438 51.679688 C 115.085938 51.949219 115.746094 53.417969 115.878906 54.371094 " fill-opacity="1" fill-rule="nonzero"/><path fill="#2a2c2d" d="M 117.746094 47.53125 C 118.089844 48.628906 117.824219 49.320312 117.175781 49.011719 C 116.058594 48.480469 115.054688 45.585938 115.914062 45.371094 C 115.960938 45.359375 116.03125 45.363281 116.082031 45.367188 C 116.820312 45.546875 117.5 46.742188 117.746094 47.53125 " fill-opacity="1" fill-rule="nonzero"/><path fill="#2a2c2d" d="M 117.519531 40.878906 C 117.929688 41.679688 117.960938 42.253906 117.585938 42.128906 C 116.863281 41.894531 115.496094 39.445312 115.960938 39.214844 C 115.988281 39.203125 116.027344 39.203125 116.054688 39.207031 C 116.480469 39.304688 117.144531 40.152344 117.519531 40.878906 " fill-opacity="1" fill-rule="nonzero"/><path fill="#2a2c2d" d="M 115.261719 34.53125 C 115.683594 35.09375 115.878906 35.527344 115.710938 35.515625 C 115.339844 35.488281 113.796875 33.539062 113.972656 33.316406 C 113.980469 33.308594 114 33.304688 114.015625 33.304688 C 114.261719 33.359375 114.855469 33.984375 115.261719 34.53125 " fill-opacity="1" fill-rule="nonzero"/><path fill="#2a2c2d" d="M 111.136719 28.632812 C 111.367188 28.855469 111.75 29.253906 111.734375 29.332031 C 111.609375 29.378906 110.097656 27.949219 110.117188 27.804688 C 110.117188 27.800781 110.121094 27.800781 110.125 27.800781 C 110.242188 27.824219 110.742188 28.25 111.136719 28.632812 " fill-opacity="1" fill-rule="nonzero"/><path fill="#46376d" d="M 56.554688 113.15625 C 55.472656 116.539062 50.515625 116.4375 48.753906 112.996094 C 47.277344 110.117188 49.152344 106.917969 53.019531 107.714844 C 56.339844 108.707031 57.085938 111.496094 56.554688 113.15625 " fill-opacity="1" fill-rule="nonzero"/><path fill="#2a2c2d" d="M 65.277344 108.34375 C 63.863281 111.796875 58.476562 111.683594 56.925781 108.167969 C 55.65625 105.292969 57.972656 102.105469 61.992188 102.902344 C 65.390625 103.890625 65.960938 106.679688 65.277344 108.34375 " fill-opacity="1" fill-rule="nonzero"/><path fill="#2a2c2d" d="M 74.875 103.066406 C 73.324219 106.570312 68.042969 106.53125 66.6875 103.007812 C 65.613281 100.222656 68.183594 97.039062 72.003906 97.761719 C 75.199219 98.667969 75.605469 101.410156 74.875 103.066406 " fill-opacity="1" fill-rule="nonzero"/><path fill="#2a2c2d" d="M 84.753906 97.246094 C 83.328125 100.5625 78.738281 100.859375 77.316406 97.726562 C 76.085938 95.019531 78.550781 91.488281 82.230469 92.140625 C 85.136719 92.949219 85.453125 95.613281 84.753906 97.246094 " fill-opacity="1" fill-rule="nonzero"/><path fill="#2a2c2d" d="M 94.40625 90.835938 C 93.179688 94.078125 89.050781 94.492188 87.816406 91.5 C 86.753906 88.925781 88.9375 85.460938 92.160156 85.988281 C 94.710938 86.6875 95.011719 89.246094 94.40625 90.835938 " fill-opacity="1" fill-rule="nonzero"/><path fill="#2a2c2d" d="M 103.308594 83.832031 C 102.453125 86.71875 99.171875 87.398438 97.90625 84.957031 C 96.65625 82.53125 98.347656 78.988281 101.25 79.421875 C 103.40625 80 103.75 82.351562 103.308594 83.832031 " fill-opacity="1" fill-rule="nonzero"/><path fill="#2a2c2d" d="M 110.914062 76.605469 C 110.441406 79.0625 108.0625 79.863281 106.808594 77.988281 C 105.449219 75.949219 106.542969 72.417969 108.996094 72.742188 C 110.746094 73.203125 111.171875 75.277344 110.914062 76.605469 " fill-opacity="1" fill-rule="nonzero"/><path fill="#46376d" d="M 116.847656 69.277344 C 116.710938 71.339844 115.148438 72.183594 114.011719 70.808594 C 112.605469 69.109375 113.195312 65.882812 114.898438 65.945312 C 114.953125 65.949219 115.019531 65.960938 115.070312 65.964844 C 116.425781 66.3125 116.925781 68.109375 116.847656 69.277344 " fill-opacity="1" fill-rule="nonzero"/><path fill="#2a2c2d" d="M 120.875 61.90625 C 121 63.480469 120.207031 64.328125 119.304688 63.582031 C 117.953125 62.46875 117.820312 59.132812 119.125 59.121094 C 119.164062 59.121094 119.210938 59.128906 119.246094 59.132812 C 120.238281 59.378906 120.796875 60.902344 120.875 61.90625 " fill-opacity="1" fill-rule="nonzero"/><path fill="#a8a8a8" d="M 122.855469 54.554688 C 123.152344 55.789062 122.832031 56.542969 122.191406 56.109375 C 121.101562 55.367188 120.410156 52.375 121.3125 52.296875 C 121.335938 52.296875 121.367188 52.300781 121.390625 52.300781 C 122.066406 52.460938 122.652344 53.714844 122.855469 54.554688 " fill-opacity="1" fill-rule="nonzero"/><path fill="#2a2c2d" d="M 122.757812 47.324219 C 123.121094 48.195312 123.148438 48.816406 122.8125 48.703125 C 122.167969 48.484375 120.964844 45.859375 121.382812 45.582031 C 121.40625 45.566406 121.441406 45.566406 121.46875 45.5625 C 121.886719 45.660156 122.472656 46.652344 122.757812 47.324219 " fill-opacity="1" fill-rule="nonzero"/><path fill="#2a2c2d" d="M 120.640625 40.335938 C 121.042969 40.988281 121.230469 41.484375 121.042969 41.421875 C 120.65625 41.289062 119.308594 39.167969 119.527344 39.035156 C 119.535156 39.03125 119.542969 39.03125 119.546875 39.03125 C 119.75 39.070312 120.273438 39.742188 120.640625 40.335938 " fill-opacity="1" fill-rule="nonzero"/><path fill="#2a2c2d" d="M 116.679688 33.734375 C 116.890625 33.980469 117.246094 34.425781 117.257812 34.523438 C 117.121094 34.554688 115.8125 32.957031 115.792969 32.835938 C 115.796875 32.835938 115.796875 32.832031 115.800781 32.832031 C 115.882812 32.847656 116.324219 33.3125 116.679688 33.734375 " fill-opacity="1" fill-rule="nonzero"/><path fill="#2a2c2d" d="M 61.195312 119.800781 C 59.816406 122.953125 54.839844 122.601562 53.585938 119.261719 C 52.644531 116.753906 54.609375 114.203125 58.15625 114.917969 C 61.035156 115.75 61.960938 118.054688 61.195312 119.800781 " fill-opacity="1" fill-rule="nonzero"/><path fill="#2a2c2d" d="M 69.722656 115.492188 C 68.015625 118.777344 62.761719 118.457031 61.804688 115.007812 C 61.109375 112.5 63.542969 109.902344 67.085938 110.582031 C 70.207031 111.464844 70.507812 113.984375 69.722656 115.492188 " fill-opacity="1" fill-rule="nonzero"/><path fill="#2a2c2d" d="M 79.074219 110.640625 C 77.359375 113.796875 72.453125 113.804688 71.464844 110.648438 C 70.660156 108.066406 73.199219 105.136719 76.800781 105.789062 C 79.746094 106.605469 79.902344 109.117188 79.074219 110.640625 " fill-opacity="1" fill-rule="nonzero"/><path fill="#2a2c2d" d="M 88.761719 105.195312 C 87.109375 108.367188 82.476562 108.488281 81.675781 105.382812 C 81.035156 102.890625 83.570312 99.933594 86.785156 100.472656 C 89.464844 101.203125 89.554688 103.675781 88.761719 105.195312 " fill-opacity="1" fill-rule="nonzero"/><path fill="#46376d" d="M 98.285156 99.117188 C 96.894531 102.128906 93.007812 102.566406 92.074219 99.820312 C 91.257812 97.410156 93.546875 94.125 96.535156 94.582031 C 98.890625 95.214844 98.976562 97.617188 98.285156 99.117188 " fill-opacity="1" fill-rule="nonzero"/><path fill="#a8a8a8" d="M 107.140625 92.359375 C 106.097656 95.171875 103.023438 95.871094 102.003906 93.535156 C 101.007812 91.246094 102.898438 87.710938 105.5625 88.070312 C 107.554688 88.597656 107.683594 90.898438 107.140625 92.359375 " fill-opacity="1" fill-rule="nonzero"/><path fill="#46376d" d="M 114.835938 84.960938 C 114.191406 87.441406 111.914062 88.320312 110.902344 86.480469 C 109.792969 84.457031 111.097656 80.851562 113.355469 81.109375 C 114.960938 81.523438 115.1875 83.609375 114.835938 84.960938 " fill-opacity="1" fill-rule="nonzero"/><path fill="#2a2c2d" d="M 120.886719 77.320312 C 120.609375 79.417969 119.109375 80.335938 118.167969 78.984375 C 117.039062 77.363281 117.683594 73.839844 119.492188 73.996094 C 120.71875 74.300781 121.046875 76.125 120.886719 77.320312 " fill-opacity="1" fill-rule="nonzero"/><path fill="#2a2c2d" d="M 125.027344 69.566406 C 125.042969 71.1875 124.28125 72.101562 123.519531 71.375 C 122.363281 70.273438 122.441406 66.816406 123.621094 66.75 C 123.65625 66.746094 123.699219 66.75 123.730469 66.753906 C 124.609375 66.964844 125.019531 68.527344 125.027344 69.566406 " fill-opacity="1" fill-rule="nonzero"/><path fill="#2a2c2d" d="M 127.113281 61.761719 C 127.320312 63.039062 127.015625 63.859375 126.488281 63.441406 C 125.609375 62.746094 125.121094 59.582031 125.871094 59.457031 C 125.894531 59.457031 125.921875 59.457031 125.941406 59.457031 C 126.515625 59.589844 126.972656 60.882812 127.113281 61.761719 " fill-opacity="1" fill-rule="nonzero"/><path fill="#2a2c2d" d="M 127.117188 54.003906 C 127.414062 54.921875 127.441406 55.589844 127.183594 55.496094 C 126.632812 55.300781 125.625 52.367188 126.046875 52.191406 C 126.058594 52.1875 126.074219 52.1875 126.082031 52.1875 C 126.414062 52.257812 126.886719 53.292969 127.117188 54.003906 " fill-opacity="1" fill-rule="nonzero"/><path fill="#2a2c2d" d="M 125.101562 46.421875 C 125.449219 47.117188 125.636719 47.664062 125.515625 47.617188 C 125.246094 47.511719 124.066406 45.171875 124.230469 45.058594 C 124.359375 45.082031 124.785156 45.785156 125.101562 46.421875 " fill-opacity="1" fill-rule="nonzero"/><path fill="#2a2c2d" d="M 121.253906 39.160156 C 121.519531 39.546875 121.804688 39.984375 121.820312 40.042969 C 121.742188 39.992188 120.582031 38.3125 120.550781 38.207031 C 120.609375 38.242188 120.996094 38.785156 121.253906 39.160156 " fill-opacity="1" fill-rule="nonzero"/><path fill="#2a2c2d" d="M 64.722656 125.558594 C 62.988281 128.34375 58.304688 127.828125 57.765625 124.792969 C 57.398438 122.742188 59.445312 120.75 62.539062 121.351562 C 65.355469 122.148438 65.511719 124.289062 64.722656 125.558594 " fill-opacity="1" fill-rule="nonzero"/><path fill="#2a2c2d" d="M 73.003906 121.800781 C 71.023438 124.675781 66.355469 124.425781 65.871094 121.421875 C 65.511719 119.210938 68.019531 116.902344 71.171875 117.484375 C 73.957031 118.253906 73.917969 120.472656 73.003906 121.800781 " fill-opacity="1" fill-rule="nonzero"/><path fill="#2a2c2d" d="M 82.140625 117.445312 C 80.160156 120.304688 75.738281 120.347656 75.179688 117.511719 C 74.726562 115.199219 77.375 112.546875 80.601562 113.101562 C 83.242188 113.816406 83.09375 116.074219 82.140625 117.445312 " fill-opacity="1" fill-rule="nonzero"/><path fill="#2a2c2d" d="M 91.660156 112.445312 C 89.863281 115.210938 85.875 115.546875 85.199219 112.988281 C 84.582031 110.660156 87.238281 107.660156 90.351562 108.152344 C 92.765625 108.796875 92.570312 111.050781 91.660156 112.445312 " fill-opacity="1" fill-rule="nonzero"/><path fill="#2a2c2d" d="M 101.066406 106.75 C 99.4375 109.585938 95.878906 110.039062 95.296875 107.484375 C 94.792969 105.269531 97.234375 102.199219 99.933594 102.578125 C 102.050781 103.132812 101.867188 105.351562 101.066406 106.75 " fill-opacity="1" fill-rule="nonzero"/><path fill="#2a2c2d" d="M 109.867188 100.332031 C 108.628906 102.949219 105.757812 103.660156 105.066406 101.519531 C 104.378906 99.402344 106.453125 96.058594 108.851562 96.34375 C 110.632812 96.804688 110.515625 98.953125 109.867188 100.332031 " fill-opacity="1" fill-rule="nonzero"/><path fill="#2a2c2d" d="M 117.582031 93.160156 C 116.730469 95.59375 114.617188 96.488281 113.878906 94.726562 C 113.082031 92.835938 114.664062 89.230469 116.65625 89.410156 C 118.074219 89.769531 118.054688 91.820312 117.582031 93.160156 " fill-opacity="1" fill-rule="nonzero"/><path fill="#2a2c2d" d="M 123.773438 85.320312 C 123.339844 87.328125 122.046875 88.347656 121.304688 87.269531 C 120.332031 85.855469 121.234375 81.929688 122.871094 82.015625 C 123.933594 82.273438 124.039062 84.105469 123.773438 85.320312 " fill-opacity="1" fill-rule="nonzero"/><path fill="#2a2c2d" d="M 128.039062 77.238281 C 127.914062 78.890625 127.199219 79.863281 126.617188 79.167969 C 125.765625 78.148438 125.980469 74.441406 127.179688 74.429688 C 127.90625 74.597656 128.121094 76.175781 128.039062 77.238281 " fill-opacity="1" fill-rule="nonzero"/><path fill="#2a2c2d" d="M 130.230469 69.035156 C 130.316406 70.273438 130.082031 71.136719 129.722656 70.886719 C 129.050781 70.417969 128.765625 66.914062 129.378906 66.722656 C 129.394531 66.71875 129.417969 66.71875 129.433594 66.714844 C 129.875 66.8125 130.164062 68.128906 130.230469 69.035156 " fill-opacity="1" fill-rule="nonzero"/><path fill="#2a2c2d" d="M 130.304688 60.804688 C 130.519531 61.753906 130.558594 62.472656 130.394531 62.40625 C 130.035156 62.257812 129.3125 59.105469 129.601562 58.964844 C 129.808594 59 130.140625 60.0625 130.304688 60.804688 " fill-opacity="1" fill-rule="nonzero"/><path fill="#2a2c2d" d="M 128.347656 52.671875 C 128.523438 53.140625 128.789062 53.871094 128.785156 53.96875 C 128.65625 53.867188 127.75 51.390625 127.753906 51.277344 C 127.828125 51.335938 128.214844 52.328125 128.347656 52.671875 " fill-opacity="1" fill-rule="nonzero"/><path fill="#2a2c2d" d="M 66.894531 130.335938 C 65.019531 132.359375 60.894531 132.304688 60.921875 129.71875 C 60.9375 128.023438 63.070312 126.375 65.695312 126.863281 C 67.894531 127.472656 68.03125 129.105469 66.894531 130.335938 " fill-opacity="1" fill-rule="nonzero"/><path fill="#2a2c2d" d="M 74.957031 127.203125 C 72.902344 129.375 68.601562 129.558594 68.660156 126.910156 C 68.699219 125.011719 71.242188 123.035156 74.035156 123.523438 C 76.230469 124.117188 76.226562 125.863281 74.957031 127.203125 " fill-opacity="1" fill-rule="nonzero"/><path fill="#46376d" d="M 83.914062 123.410156 C 81.6875 125.863281 77.703125 125.9375 77.644531 123.527344 C 77.597656 121.511719 80.390625 119.167969 83.207031 119.621094 C 85.511719 120.234375 85.007812 122.207031 83.914062 123.410156 " fill-opacity="1" fill-rule="nonzero"/><path fill="#2a2c2d" d="M 93.28125 118.914062 C 91.246094 121.359375 87.605469 121.707031 87.378906 119.472656 C 87.171875 117.40625 90.003906 114.699219 92.734375 115.09375 C 94.84375 115.644531 94.324219 117.65625 93.28125 118.914062 " fill-opacity="1" fill-rule="nonzero"/><path fill="#a8a8a8" d="M 102.570312 113.664062 C 100.8125 116.085938 97.726562 116.679688 97.328125 114.675781 C 96.933594 112.679688 99.648438 109.585938 102.140625 109.902344 C 103.980469 110.371094 103.5 112.386719 102.570312 113.664062 " fill-opacity="1" fill-rule="nonzero"/><path fill="#2a2c2d" d="M 111.296875 107.636719 C 109.925781 109.917969 107.4375 110.730469 106.9375 109.058594 C 106.386719 107.21875 108.765625 103.777344 110.941406 103.992188 C 112.46875 104.375 112.070312 106.351562 111.296875 107.636719 " fill-opacity="1" fill-rule="nonzero"/><path fill="#2a2c2d" d="M 119 100.796875 C 118 102.953125 116.179688 103.910156 115.644531 102.5625 C 115.003906 100.949219 116.878906 97.230469 118.675781 97.339844 C 119.871094 97.632812 119.585938 99.539062 119 100.796875 " fill-opacity="1" fill-rule="nonzero"/><path fill="#2a2c2d" d="M 125.246094 93.144531 C 124.625 95.09375 123.414062 96.140625 122.933594 95.144531 C 122.292969 93.808594 123.5625 89.925781 124.933594 89.925781 C 125.792969 90.132812 125.632812 91.929688 125.246094 93.144531 " fill-opacity="1" fill-rule="nonzero"/><path fill="#2a2c2d" d="M 129.652344 84.824219 C 129.382812 86.382812 128.773438 87.414062 128.390625 86.945312 C 127.789062 86.199219 128.308594 82.15625 129.3125 82.054688 C 129.855469 82.171875 129.839844 83.746094 129.652344 84.824219 " fill-opacity="1" fill-rule="nonzero"/><path fill="#2a2c2d" d="M 131.9375 76.277344 C 131.90625 77.535156 131.695312 78.449219 131.484375 78.230469 C 131.160156 77.898438 131.066406 74.167969 131.59375 73.972656 C 131.867188 74.023438 131.957031 75.351562 131.9375 76.277344 " fill-opacity="1" fill-rule="nonzero"/><g clip-path="url(#f703033665)"><path fill="#2a2c2d" d="M 132.058594 67.621094 C 132.121094 68.15625 132.234375 69.199219 132.191406 69.324219 C 132.042969 69.183594 131.699219 65.921875 131.746094 65.777344 C 131.84375 65.867188 132.054688 67.605469 132.058594 67.621094 " fill-opacity="1" fill-rule="nonzero"/></g><path fill="#2a2c2d" d="M 67.609375 134.074219 C 65.683594 135.390625 62.167969 135.695312 62.59375 133.765625 C 62.875 132.507812 65.042969 130.949219 67.46875 131.382812 C 69.277344 131.871094 68.949219 133.160156 67.609375 134.074219 " fill-opacity="1" fill-rule="nonzero"/><path fill="#2a2c2d" d="M 75.492188 131.636719 C 73.242188 133.296875 69.636719 133.566406 70 131.621094 C 70.265625 130.195312 72.964844 128.214844 75.539062 128.636719 C 77.363281 129.125 76.9375 130.574219 75.492188 131.636719 " fill-opacity="1" fill-rule="nonzero"/><path fill="#2a2c2d" d="M 84.285156 128.472656 C 82.097656 130.257812 78.507812 130.757812 78.695312 128.832031 C 78.847656 127.269531 81.816406 124.875 84.464844 125.273438 C 86.421875 125.78125 85.535156 127.453125 84.285156 128.472656 " fill-opacity="1" fill-rule="nonzero"/><path fill="#2a2c2d" d="M 93.507812 124.542969 C 91.507812 126.394531 88.210938 127.128906 88.1875 125.320312 C 88.167969 123.683594 91.179688 120.890625 93.785156 121.234375 C 95.566406 121.6875 94.695312 123.441406 93.507812 124.542969 " fill-opacity="1" fill-rule="nonzero"/><path fill="#2a2c2d" d="M 102.679688 119.800781 C 100.691406 121.953125 97.886719 122.535156 97.917969 120.792969 C 97.949219 119.1875 100.757812 116.230469 103.007812 116.46875 C 104.550781 116.855469 103.746094 118.648438 102.679688 119.800781 " fill-opacity="1" fill-rule="nonzero"/><path fill="#2a2c2d" d="M 111.320312 114.210938 C 109.734375 116.289062 107.460938 117.085938 107.332031 115.609375 C 107.1875 113.925781 109.796875 110.808594 111.664062 110.941406 C 112.917969 111.246094 112.21875 113.035156 111.320312 114.210938 " fill-opacity="1" fill-rule="nonzero"/><path fill="#2a2c2d" d="M 118.964844 107.753906 C 117.847656 109.613281 116.261719 110.601562 115.933594 109.636719 C 115.492188 108.328125 117.746094 104.582031 119.296875 104.613281 C 120.238281 104.835938 119.671875 106.582031 118.964844 107.753906 " fill-opacity="1" fill-rule="nonzero"/><path fill="#2a2c2d" d="M 125.195312 100.421875 C 124.445312 102.132812 123.402344 103.1875 123.128906 102.507812 C 122.730469 101.523438 124.398438 97.554688 125.496094 97.472656 C 126.121094 97.613281 125.695312 99.28125 125.195312 100.421875 " fill-opacity="1" fill-rule="nonzero"/><path fill="#2a2c2d" d="M 129.648438 92.226562 C 129.246094 93.664062 128.71875 94.707031 128.515625 94.457031 C 128.203125 94.066406 129.167969 89.746094 129.898438 89.527344 C 130.230469 89.59375 129.953125 91.144531 129.648438 92.226562 " fill-opacity="1" fill-rule="nonzero"/><g clip-path="url(#9831ad083b)"><path fill="#2a2c2d" d="M 132.019531 83.398438 C 131.929688 84.097656 131.75 85.324219 131.65625 85.46875 C 131.496094 85.289062 132.078125 81.308594 132.191406 81.136719 C 132.292969 81.246094 132.027344 83.308594 132.019531 83.398438 " fill-opacity="1" fill-rule="nonzero"/></g><path fill="#2a2c2d" d="M 66.832031 136.742188 C 65.066406 137.410156 62.167969 137.699219 62.535156 136.796875 C 62.871094 135.972656 65.625 134.492188 67.773438 134.855469 C 69.074219 135.199219 68.378906 135.96875 67.59375 136.398438 C 67.433594 136.488281 67.128906 136.632812 66.832031 136.742188 " fill-opacity="1" fill-rule="nonzero"/><path fill="#2a2c2d" d="M 74.5625 135.0625 C 72.546875 136.03125 69.269531 136.539062 69.710938 135.320312 C 70.082031 134.289062 73.253906 132.410156 75.597656 132.773438 C 76.902344 133.113281 76.328125 134.050781 75.125 134.765625 C 74.960938 134.863281 74.734375 134.980469 74.5625 135.0625 " fill-opacity="1" fill-rule="nonzero"/><path fill="#2a2c2d" d="M 83.210938 132.59375 C 80.921875 133.925781 77.761719 134.40625 78.210938 133.074219 C 78.636719 131.808594 82.074219 129.707031 84.304688 130.007812 C 85.742188 130.375 84.855469 131.636719 83.210938 132.59375 " fill-opacity="1" fill-rule="nonzero"/><path fill="#2a2c2d" d="M 92.300781 129.289062 C 90.222656 130.738281 87.273438 131.464844 87.476562 130.171875 C 87.679688 128.871094 91.207031 126.265625 93.414062 126.515625 C 94.71875 126.839844 93.851562 128.207031 92.300781 129.289062 " fill-opacity="1" fill-rule="nonzero"/><path fill="#2a2c2d" d="M 101.347656 125.105469 C 99.371094 126.769531 97.023438 127.46875 97.015625 126.390625 C 97.011719 125.148438 100.378906 122.066406 102.457031 122.238281 C 103.6875 122.535156 102.550781 124.09375 101.347656 125.105469 " fill-opacity="1" fill-rule="nonzero"/><path fill="#2a2c2d" d="M 109.878906 120.011719 C 108.164062 121.785156 106.207031 122.601562 106.265625 121.523438 C 106.335938 120.167969 109.371094 117.082031 110.945312 117.136719 C 111.808594 117.339844 111.066406 118.785156 109.878906 120.011719 " fill-opacity="1" fill-rule="nonzero"/><path fill="#2a2c2d" d="M 117.425781 113.984375 C 116.207031 115.582031 114.820312 116.554688 114.675781 115.914062 C 114.453125 114.933594 117.15625 111.238281 118.433594 111.179688 C 119.105469 111.324219 118.25 112.910156 117.425781 113.984375 " fill-opacity="1" fill-rule="nonzero"/><path fill="#2a2c2d" d="M 123.574219 107.015625 C 122.703125 108.53125 121.820312 109.539062 121.71875 109.128906 C 121.5625 108.496094 123.707031 104.53125 124.5 104.351562 C 124.875 104.421875 124.183594 105.953125 123.574219 107.015625 " fill-opacity="1" fill-rule="nonzero"/><path fill="#2a2c2d" d="M 127.960938 99.117188 C 127.664062 99.863281 127.117188 101.171875 126.960938 101.324219 C 126.804688 101.125 128.605469 96.832031 128.796875 96.648438 C 128.894531 96.777344 128 99.023438 127.960938 99.117188 " fill-opacity="1" fill-rule="nonzero"/><g clip-path="url(#197ecfc96a)"><path fill="#2a2c2d" d="M 64.582031 138.308594 C 62.988281 138.53125 60.871094 138.515625 60.699219 138.339844 C 60.847656 138.09375 64.917969 136.980469 66.582031 137.246094 C 66.738281 137.289062 67.214844 137.410156 66.738281 137.71875 C 66.382812 137.949219 65.574219 138.171875 64.582031 138.308594 " fill-opacity="1" fill-rule="nonzero"/></g><g clip-path="url(#07a2791bab)"><path fill="#2a2c2d" d="M 72.183594 137.457031 C 70.128906 138.011719 67.554688 138.195312 67.738281 137.769531 C 67.945312 137.300781 72.160156 135.601562 74.195312 135.890625 C 74.976562 136.089844 74.46875 136.496094 74.097656 136.71875 C 73.679688 136.96875 72.980469 137.238281 72.183594 137.457031 " fill-opacity="1" fill-rule="nonzero"/></g><path fill="#2a2c2d" d="M 80.703125 135.742188 C 78.546875 136.582031 75.707031 137.03125 76.109375 136.308594 C 76.527344 135.566406 80.734375 133.554688 82.695312 133.792969 C 83.753906 134.054688 82.445312 134.882812 82.171875 135.046875 C 81.988281 135.15625 81.484375 135.4375 80.703125 135.742188 " fill-opacity="1" fill-rule="nonzero"/><path fill="#2a2c2d" d="M 89.667969 133.125 C 87.503906 134.226562 85.089844 134.753906 85.210938 134.09375 C 85.367188 133.242188 89.738281 130.730469 91.609375 130.902344 C 92.453125 131.105469 91.65625 131.9375 90.554688 132.625 C 90.316406 132.773438 89.953125 132.980469 89.667969 133.125 " fill-opacity="1" fill-rule="nonzero"/><path fill="#2a2c2d" d="M 98.589844 129.558594 C 96.566406 130.867188 94.441406 131.542969 94.59375 130.828125 C 94.789062 129.933594 98.8125 127.085938 100.453125 127.167969 C 101.285156 127.359375 100.132812 128.558594 98.589844 129.558594 " fill-opacity="1" fill-rule="nonzero"/><path fill="#2a2c2d" d="M 106.984375 125.011719 C 105.339844 126.359375 103.632812 127.191406 103.660156 126.636719 C 103.699219 125.90625 107.390625 122.574219 108.753906 122.542969 C 109.363281 122.675781 108.308594 123.925781 106.984375 125.011719 " fill-opacity="1" fill-rule="nonzero"/><path fill="#2a2c2d" d="M 114.390625 119.460938 C 113.097656 120.8125 111.875 121.738281 111.871094 121.363281 C 111.863281 120.777344 115.160156 117.152344 116.050781 117.003906 C 116.410156 117.070312 115.46875 118.332031 114.390625 119.460938 " fill-opacity="1" fill-rule="nonzero"/><path fill="#2a2c2d" d="M 119.25 114.40625 C 118.839844 114.917969 118.757812 114.972656 118.722656 115 C 118.714844 114.992188 118.710938 114.984375 118.707031 114.976562 C 118.886719 114.46875 121.570312 110.761719 121.929688 110.519531 C 121.933594 110.527344 121.941406 110.535156 121.945312 110.542969 C 121.921875 110.601562 121.882812 110.71875 121.480469 111.328125 L 119.25 114.40625 " fill-opacity="1" fill-rule="nonzero"/></svg>