<svg xmlns="http://www.w3.org/2000/svg" xmlns:xlink="http://www.w3.org/1999/xlink" width="1280" zoomAndPan="magnify" viewBox="0 0 960 149.999998" height="200" preserveAspectRatio="xMidYMid meet" version="1.0"><defs><g/><clipPath id="e05c9ec02a"><path d="M 0.558594 29 L 8 29 L 8 39 L 0.558594 39 Z M 0.558594 29 " clip-rule="nonzero"/></clipPath><clipPath id="3d17fab06b"><path d="M 109 55 L 111.34375 55 L 111.34375 60 L 109 60 Z M 109 55 " clip-rule="nonzero"/></clipPath><clipPath id="12de8b1065"><path d="M 110 47 L 111.34375 47 L 111.34375 52 L 110 52 Z M 110 47 " clip-rule="nonzero"/></clipPath><clipPath id="298811a3f3"><path d="M 44 122 L 51 122 L 51 124 L 44 124 Z M 44 122 " clip-rule="nonzero"/></clipPath><clipPath id="54afd981ba"><path d="M 49 123 L 57 123 L 57 124 L 49 124 Z M 49 123 " clip-rule="nonzero"/></clipPath><clipPath id="228c428ba9"><path d="M 57 121 L 65 121 L 65 124 L 57 124 Z M 57 121 " clip-rule="nonzero"/></clipPath><clipPath id="e219aab661"><path d="M 131 40 L 838.398438 40 L 838.398438 106 L 131 106 Z M 131 40 " clip-rule="nonzero"/></clipPath><clipPath id="91b775e619"><rect x="0" width="708" y="0" height="66"/></clipPath><clipPath id="c477bdfa47"><rect x="0" width="839" y="0" height="127"/></clipPath></defs><g transform="matrix(1, 0, 0, 1, 52, 14)"><g clip-path="url(#c477bdfa47)"><path fill="#d9d9d9" d="M 60.46875 1.925781 C 59.230469 1.734375 57.980469 1.628906 56.742188 1.425781 C 56.867188 1.40625 57.921875 1.523438 58.605469 1.609375 C 60.078125 1.804688 61.554688 2.054688 63.03125 2.359375 C 64.046875 2.570312 64.859375 2.761719 64.945312 2.785156 C 64.003906 2.570312 62.515625 2.242188 60.46875 1.925781 " fill-opacity="1" fill-rule="nonzero"/><path fill="#d9d9d9" d="M 44.996094 1.476562 C 41.054688 1.84375 41.054688 1.84375 40.996094 1.839844 C 41.027344 1.792969 41.046875 1.765625 41.648438 1.660156 C 44.027344 1.328125 46.433594 1.132812 48.863281 1.074219 C 49.261719 1.082031 49.546875 1.085938 49.628906 1.105469 C 49.535156 1.132812 49.519531 1.136719 48.710938 1.1875 C 47.847656 1.242188 46.667969 1.320312 44.996094 1.476562 " fill-opacity="1" fill-rule="nonzero"/><path fill="#d9d9d9" d="M 53.492188 1.390625 C 49.703125 1.292969 49.703125 1.292969 49.695312 1.289062 C 51.023438 1.003906 56.820312 1.367188 57.726562 1.597656 C 56.308594 1.671875 54.90625 1.429688 53.492188 1.390625 " fill-opacity="1" fill-rule="nonzero"/><path fill="#d9d9d9" d="M 61.742188 2.207031 C 60.648438 2.039062 59.539062 1.949219 58.445312 1.769531 C 58.558594 1.753906 61.074219 1.917969 65.199219 2.84375 C 64.734375 2.742188 63.496094 2.472656 61.742188 2.207031 " fill-opacity="1" fill-rule="nonzero"/><path fill="#d9d9d9" d="M 30.195312 4.714844 C 27.792969 5.542969 26.519531 5.976562 26.136719 5.996094 C 26.132812 5.984375 26.121094 5.96875 26.113281 5.957031 C 26.171875 5.90625 26.183594 5.894531 26.28125 5.839844 C 28.964844 4.730469 31.734375 3.800781 34.5625 3.066406 C 34.746094 3.046875 34.757812 3.046875 34.804688 3.058594 C 34.675781 3.175781 34.675781 3.175781 30.195312 4.714844 " fill-opacity="1" fill-rule="nonzero"/><path fill="#d9d9d9" d="M 38.578125 2.890625 C 36.082031 3.445312 34.757812 3.714844 34.449219 3.625 C 34.453125 3.605469 34.453125 3.582031 34.453125 3.5625 C 35.425781 2.832031 41.902344 1.613281 42.777344 1.855469 C 42.722656 1.960938 42.449219 2.03125 38.578125 2.890625 " fill-opacity="1" fill-rule="nonzero"/><path fill="#d9d9d9" d="M 47.171875 1.941406 C 44.976562 2.179688 43.65625 2.324219 43.300781 2.234375 C 43.296875 2.21875 43.292969 2.199219 43.289062 2.1875 C 44.09375 1.652344 50.105469 1.265625 50.984375 1.488281 C 50.910156 1.53125 50.910156 1.53125 47.171875 1.941406 " fill-opacity="1" fill-rule="nonzero"/><path fill="#d9d9d9" d="M 55.480469 1.8125 C 52.253906 1.785156 52.253906 1.785156 52.109375 1.75 C 52.429688 1.394531 58.148438 1.71875 58.933594 1.898438 C 57.78125 1.988281 56.632812 1.820312 55.480469 1.8125 " fill-opacity="1" fill-rule="nonzero"/><path fill="#d9d9d9" d="M 63.019531 2.46875 C 62.117188 2.339844 61.203125 2.328125 60.308594 2.128906 C 60.433594 2.121094 62.183594 2.222656 65.199219 2.84375 C 64.695312 2.746094 63.988281 2.613281 63.019531 2.46875 " fill-opacity="1" fill-rule="nonzero"/><path fill="#d9d9d9" d="M 16.671875 11.289062 C 13.289062 13.425781 12.933594 13.496094 12.796875 13.519531 C 12.792969 13.503906 12.78125 13.484375 12.777344 13.472656 C 15.386719 11.539062 18.140625 9.8125 21.011719 8.304688 L 21.039062 8.316406 C 20.96875 8.429688 20.820312 8.664062 16.671875 11.289062 " fill-opacity="1" fill-rule="nonzero"/><path fill="#d9d9d9" d="M 24.542969 7.882812 C 21.855469 9.1875 20.144531 9.789062 20.277344 9.386719 C 20.578125 8.484375 27.5 5.261719 28.507812 5.554688 C 28.515625 5.566406 28.523438 5.578125 28.53125 5.589844 C 28.429688 5.972656 25.449219 7.441406 24.542969 7.882812 " fill-opacity="1" fill-rule="nonzero"/><path fill="#d9d9d9" d="M 33.070312 5.324219 C 29.84375 6.5 28.585938 6.628906 28.785156 6.25 C 29.230469 5.402344 35.496094 3.316406 36.667969 3.621094 C 36.679688 3.632812 36.695312 3.644531 36.707031 3.652344 C 36.730469 3.96875 33.929688 5.011719 33.070312 5.324219 " fill-opacity="1" fill-rule="nonzero"/><path fill="#d9d9d9" d="M 41.777344 3.566406 C 38.601562 4.375 37.625 4.355469 37.753906 4.085938 C 38.066406 3.429688 43.777344 2.152344 45.023438 2.460938 C 45.035156 2.46875 45.050781 2.476562 45.0625 2.484375 C 45.042969 2.550781 44.980469 2.75 41.777344 3.566406 " fill-opacity="1" fill-rule="nonzero"/><path fill="#d9d9d9" d="M 50.171875 2.5625 C 48.609375 2.792969 46.800781 3.027344 46.660156 2.800781 C 46.863281 2.246094 52.175781 1.796875 53.085938 2.011719 C 53.097656 2.019531 53.105469 2.023438 53.117188 2.027344 C 53.0625 2.089844 53.015625 2.140625 50.171875 2.5625 " fill-opacity="1" fill-rule="nonzero"/><path fill="#d9d9d9" d="M 57.777344 2.277344 C 55.492188 2.335938 55.140625 2.347656 54.976562 2.265625 C 55.144531 1.9375 59.613281 2.066406 60.367188 2.234375 C 60.304688 2.25 60.304688 2.25 59.917969 2.25 C 59.433594 2.25 58.828125 2.25 57.777344 2.277344 " fill-opacity="1" fill-rule="nonzero"/><path fill="#d9d9d9" d="M 64.132812 2.683594 C 63.46875 2.597656 62.792969 2.601562 62.132812 2.464844 C 62.242188 2.449219 63.332031 2.503906 65.199219 2.84375 C 65.019531 2.8125 64.652344 2.75 64.132812 2.683594 " fill-opacity="1" fill-rule="nonzero"/><path fill="#d9d9d9" d="M 11.980469 16.007812 C 9.609375 17.917969 7.796875 18.957031 7.851562 18.371094 C 7.964844 17.160156 14.460938 12.054688 15.492188 12.371094 C 15.871094 12.859375 12.015625 15.976562 11.976562 16.007812 L 11.980469 16.007812 " fill-opacity="1" fill-rule="nonzero"/><path fill="#d9d9d9" d="M 20.023438 11.996094 C 17.496094 13.632812 15.433594 14.394531 15.519531 13.667969 C 15.664062 12.386719 21.839844 8.644531 23.199219 9.011719 C 23.757812 9.414062 21.09375 11.300781 20.023438 11.996094 " fill-opacity="1" fill-rule="nonzero"/><path fill="#d9d9d9" d="M 28.695312 8.765625 C 25.878906 10.238281 23.984375 10.550781 24.171875 9.847656 C 24.492188 8.640625 30.082031 6.035156 31.558594 6.410156 C 32.339844 6.84375 28.730469 8.746094 28.695312 8.765625 " fill-opacity="1" fill-rule="nonzero"/><path fill="#d9d9d9" d="M 37.523438 6.257812 C 34.757812 7.417969 32.964844 7.542969 33.320312 6.875 C 33.867188 5.847656 38.667969 4.171875 40.082031 4.511719 C 40.816406 4.867188 37.65625 6.199219 37.523438 6.257812 " fill-opacity="1" fill-rule="nonzero"/><path fill="#d9d9d9" d="M 46.023438 4.4375 C 43.574219 5.230469 42.046875 5.277344 42.363281 4.789062 C 42.878906 4 47.160156 3.003906 48.289062 3.265625 C 48.390625 3.3125 48.699219 3.445312 47.046875 4.078125 C 46.824219 4.164062 46.46875 4.292969 46.023438 4.4375 " fill-opacity="1" fill-rule="nonzero"/><path fill="#d9d9d9" d="M 53.714844 3.273438 C 51.382812 3.789062 50.667969 3.667969 50.769531 3.46875 C 51.015625 2.972656 54.742188 2.414062 55.703125 2.628906 C 55.722656 2.632812 55.746094 2.648438 55.757812 2.664062 C 55.671875 2.785156 54.984375 2.992188 53.714844 3.273438 " fill-opacity="1" fill-rule="nonzero"/><path fill="#d9d9d9" d="M 60.152344 2.734375 C 59.222656 2.824219 58.167969 2.925781 58.039062 2.800781 C 58.070312 2.523438 61.246094 2.433594 61.871094 2.5625 C 61.863281 2.570312 61.863281 2.570312 60.152344 2.734375 " fill-opacity="1" fill-rule="nonzero"/><path fill="#d9d9d9" d="M 64.925781 2.8125 C 64.601562 2.78125 64.316406 2.765625 64.035156 2.75 C 63.808594 2.738281 63.71875 2.730469 63.667969 2.71875 C 63.738281 2.699219 64.34375 2.722656 65.199219 2.84375 C 65.109375 2.832031 65.015625 2.824219 64.925781 2.8125 " fill-opacity="1" fill-rule="nonzero"/><path fill="#d9d9d9" d="M 8.613281 21.589844 C 6.390625 23.851562 4.277344 25.019531 4.179688 24.042969 C 4.03125 22.542969 9.410156 16.832031 11.15625 17.3125 C 11.863281 17.816406 9.972656 20.203125 8.613281 21.589844 " fill-opacity="1" fill-rule="nonzero"/><path fill="#d9d9d9" d="M 16.800781 17.027344 C 14.089844 19.304688 11.792969 19.839844 11.988281 18.589844 C 12.289062 16.703125 17.398438 12.96875 19.089844 13.402344 C 19.980469 13.890625 18.160156 15.886719 16.800781 17.027344 " fill-opacity="1" fill-rule="nonzero"/><path fill="#d9d9d9" d="M 25.605469 13.171875 C 23.003906 15.019531 20.671875 15.382812 20.765625 14.316406 C 20.898438 12.71875 25.851562 9.75 27.644531 10.191406 C 28.59375 10.632812 26.898438 12.253906 25.605469 13.171875 " fill-opacity="1" fill-rule="nonzero"/><path fill="#d9d9d9" d="M 34.558594 9.980469 C 32.054688 11.507812 29.765625 11.683594 30.042969 10.652344 C 30.40625 9.300781 34.710938 7.230469 36.351562 7.617188 C 37.355469 8.042969 35.398438 9.46875 34.558594 9.980469 " fill-opacity="1" fill-rule="nonzero"/><path fill="#d9d9d9" d="M 43.175781 7.410156 C 40.9375 8.59375 38.992188 8.667969 39.226562 7.855469 C 39.527344 6.820312 43.28125 5.304688 44.726562 5.632812 C 45.574219 5.96875 43.894531 7.027344 43.175781 7.410156 " fill-opacity="1" fill-rule="nonzero"/><path fill="#d9d9d9" d="M 50.984375 5.425781 C 49.152344 6.261719 47.589844 6.292969 47.800781 5.707031 C 48.089844 4.910156 51.242188 3.964844 52.304688 4.199219 C 52.921875 4.429688 51.558594 5.164062 50.984375 5.425781 " fill-opacity="1" fill-rule="nonzero"/><path fill="#ff751f" d="M 57.539062 4.007812 C 56.027344 4.574219 55.054688 4.511719 55.246094 4.167969 C 55.542969 3.640625 57.957031 3.136719 58.636719 3.277344 C 58.710938 3.304688 58.933594 3.390625 58.085938 3.78125 C 57.96875 3.835938 57.78125 3.914062 57.539062 4.007812 " fill-opacity="1" fill-rule="nonzero"/><path fill="#d9d9d9" d="M 62.429688 3.144531 C 61.183594 3.46875 60.972656 3.328125 61.039062 3.238281 C 61.234375 2.972656 62.941406 2.785156 63.3125 2.859375 C 63.320312 2.859375 63.324219 2.863281 63.328125 2.863281 C 63.328125 2.867188 63.328125 2.875 63.328125 2.878906 C 63.246094 2.929688 62.566406 3.105469 62.429688 3.144531 " fill-opacity="1" fill-rule="nonzero"/><path fill="#d9d9d9" d="M 65.191406 2.84375 C 65.109375 2.847656 65.03125 2.851562 64.953125 2.859375 C 64.832031 2.867188 64.746094 2.871094 64.734375 2.863281 C 64.746094 2.847656 64.917969 2.832031 65.199219 2.84375 C 65.195312 2.84375 65.191406 2.84375 65.191406 2.84375 " fill-opacity="1" fill-rule="nonzero"/><path fill="#d9d9d9" d="M 6.667969 27.984375 C 4.464844 30.820312 1.933594 31.976562 1.832031 30.191406 C 1.707031 27.929688 6.097656 22.566406 8.179688 23.105469 C 9.347656 23.746094 7.871094 26.4375 6.667969 27.984375 " fill-opacity="1" fill-rule="nonzero"/><path fill="#d9d9d9" d="M 14.976562 22.921875 C 12.597656 25.472656 9.710938 26.285156 9.738281 24.398438 C 9.769531 22.277344 14.085938 18.148438 16.3125 18.699219 C 17.632812 19.316406 16.191406 21.617188 14.976562 22.921875 " fill-opacity="1" fill-rule="nonzero"/><path fill="#d9d9d9" d="M 23.902344 18.503906 C 21.609375 20.640625 18.714844 21.25 18.652344 19.609375 C 18.582031 17.785156 22.773438 14.378906 25.0625 14.925781 C 26.410156 15.492188 25.066406 17.421875 23.902344 18.503906 " fill-opacity="1" fill-rule="nonzero"/><path fill="#ff751f" d="M 32.980469 14.6875 C 30.792969 16.519531 27.894531 16.886719 28.058594 15.316406 C 28.234375 13.601562 32.039062 11.292969 33.957031 11.738281 C 35.226562 12.230469 34.03125 13.808594 32.980469 14.6875 " fill-opacity="1" fill-rule="nonzero"/><path fill="#d9d9d9" d="M 41.726562 11.425781 C 39.699219 13 37.296875 13.058594 37.394531 11.871094 C 37.511719 10.496094 40.816406 8.691406 42.523438 9.078125 C 43.625 9.480469 42.621094 10.730469 41.726562 11.425781 " fill-opacity="1" fill-rule="nonzero"/><path fill="#d9d9d9" d="M 49.675781 8.6875 C 48.035156 9.90625 46.070312 9.933594 46.132812 9.007812 C 46.207031 7.957031 48.886719 6.601562 50.292969 6.90625 C 51.171875 7.214844 50.378906 8.164062 49.675781 8.6875 " fill-opacity="1" fill-rule="nonzero"/><path fill="#d9d9d9" d="M 56.375 6.453125 C 55.1875 7.335938 53.703125 7.355469 53.75 6.683594 C 53.796875 5.957031 55.808594 4.980469 56.824219 5.191406 C 57.449219 5.40625 56.878906 6.078125 56.375 6.453125 " fill-opacity="1" fill-rule="nonzero"/><path fill="#d9d9d9" d="M 61.417969 4.710938 C 60.691406 5.289062 59.714844 5.316406 59.746094 4.882812 C 59.78125 4.386719 61.113281 3.808594 61.707031 3.921875 C 62.109375 4.058594 61.621094 4.546875 61.417969 4.710938 " fill-opacity="1" fill-rule="nonzero"/><path fill="#d9d9d9" d="M 64.441406 3.472656 C 64.113281 3.824219 63.707031 3.800781 63.6875 3.625 C 63.660156 3.367188 64.382812 3.058594 64.589844 3.097656 C 64.730469 3.144531 64.445312 3.46875 64.441406 3.472656 " fill-opacity="1" fill-rule="nonzero"/><path fill="#d9d9d9" d="M 65.203125 2.851562 C 65.203125 2.867188 65.203125 2.875 65.199219 2.875 C 65.199219 2.875 65.1875 2.871094 65.199219 2.84375 C 65.199219 2.847656 65.199219 2.847656 65.203125 2.851562 " fill-opacity="1" fill-rule="nonzero"/><g clip-path="url(#e05c9ec02a)"><path fill="#ff751f" d="M 6.183594 35.132812 C 4.289062 38.222656 1.539062 39.429688 0.929688 37.441406 C 0.152344 34.910156 3.976562 29.039062 6.640625 29.699219 C 8.183594 30.425781 7.304688 33.3125 6.183594 35.132812 " fill-opacity="1" fill-rule="nonzero"/></g><path fill="#d9d9d9" d="M 14.578125 29.625 C 12.496094 32.457031 9.351562 33.320312 8.878906 31.199219 C 8.332031 28.734375 12.148438 24.175781 14.945312 24.847656 C 16.605469 25.542969 15.730469 28.0625 14.578125 29.625 " fill-opacity="1" fill-rule="nonzero"/><path fill="#d9d9d9" d="M 23.613281 24.699219 C 21.511719 27.21875 18.132812 27.785156 17.878906 25.660156 C 17.617188 23.476562 21.28125 19.964844 23.882812 20.570312 C 25.539062 21.214844 24.722656 23.371094 23.613281 24.699219 " fill-opacity="1" fill-rule="nonzero"/><path fill="#d9d9d9" d="M 32.820312 20.316406 C 30.808594 22.546875 27.414062 22.851562 27.40625 20.796875 C 27.394531 18.898438 30.609375 16.28125 32.96875 16.816406 C 34.53125 17.386719 33.824219 19.203125 32.820312 20.316406 " fill-opacity="1" fill-rule="nonzero"/><path fill="#d9d9d9" d="M 41.710938 16.425781 C 39.851562 18.425781 36.972656 18.371094 36.914062 16.777344 C 36.851562 15.207031 39.632812 13.074219 41.742188 13.539062 C 43.125 14.015625 42.558594 15.515625 41.710938 16.425781 " fill-opacity="1" fill-rule="nonzero"/><path fill="#d9d9d9" d="M 49.820312 12.996094 C 48.382812 14.589844 45.941406 14.539062 45.835938 13.265625 C 45.734375 12.042969 48.003906 10.324219 49.726562 10.691406 C 50.878906 11.074219 50.476562 12.269531 49.820312 12.996094 " fill-opacity="1" fill-rule="nonzero"/><path fill="#d9d9d9" d="M 56.695312 10.007812 C 55.675781 11.277344 53.800781 11.238281 53.648438 10.230469 C 53.496094 9.214844 55.246094 7.992188 56.484375 8.25 C 57.375 8.535156 57.144531 9.449219 56.695312 10.007812 " fill-opacity="1" fill-rule="nonzero"/><path fill="#d9d9d9" d="M 61.925781 7.453125 C 61.375 8.378906 60.046875 8.378906 59.863281 7.648438 C 59.675781 6.921875 60.757812 6.023438 61.613281 6.191406 C 62.234375 6.382812 62.167969 7.042969 61.925781 7.453125 " fill-opacity="1" fill-rule="nonzero"/><path fill="#d9d9d9" d="M 65.152344 5.335938 C 65.046875 5.898438 64.394531 6.003906 64.105469 5.628906 C 63.761719 5.175781 64.246094 4.457031 64.710938 4.515625 C 64.726562 4.515625 64.746094 4.519531 64.757812 4.523438 C 65.113281 4.632812 65.203125 5.074219 65.152344 5.335938 " fill-opacity="1" fill-rule="nonzero"/><path fill="#d9d9d9" d="M 66.042969 3.6875 C 66.191406 3.910156 66.152344 4.046875 66.023438 4.015625 C 65.722656 3.945312 65.503906 3.335938 65.578125 3.261719 C 65.585938 3.257812 65.597656 3.257812 65.605469 3.257812 C 65.695312 3.289062 65.921875 3.5 66.042969 3.6875 " fill-opacity="1" fill-rule="nonzero"/><path fill="#d9d9d9" d="M 7.125 42.953125 C 5.449219 46.425781 2.269531 47.570312 1.359375 45.03125 C 0.273438 42.007812 3.425781 36.277344 6.550781 37.03125 C 8.519531 37.859375 8.070312 40.992188 7.125 42.953125 " fill-opacity="1" fill-rule="nonzero"/><path fill="#d9d9d9" d="M 15.578125 37.054688 C 13.675781 40.300781 10.0625 41.074219 9.339844 38.386719 C 8.574219 35.546875 11.890625 31.050781 15.011719 31.777344 C 17.066406 32.574219 16.582031 35.34375 15.578125 37.054688 " fill-opacity="1" fill-rule="nonzero"/><path fill="#d9d9d9" d="M 24.714844 31.679688 C 22.761719 34.644531 18.882812 35.085938 18.421875 32.402344 C 17.996094 29.898438 21.214844 26.390625 24.113281 27.050781 C 26.148438 27.792969 25.691406 30.203125 24.714844 31.679688 " fill-opacity="1" fill-rule="nonzero"/><path fill="#d9d9d9" d="M 34.054688 26.785156 C 32.261719 29.351562 28.605469 29.679688 28.121094 27.324219 C 27.679688 25.160156 30.65625 22.183594 33.398438 22.792969 C 35.3125 23.453125 34.933594 25.527344 34.054688 26.785156 " fill-opacity="1" fill-rule="nonzero"/><path fill="#d9d9d9" d="M 43.105469 22.328125 C 41.621094 24.46875 38.304688 24.730469 37.8125 22.742188 C 37.355469 20.914062 39.925781 18.421875 42.382812 18.953125 C 44.101562 19.519531 43.839844 21.269531 43.105469 22.328125 " fill-opacity="1" fill-rule="nonzero"/><path fill="#d9d9d9" d="M 51.398438 18.269531 C 50.191406 20.171875 47.207031 20.261719 46.898438 18.40625 C 46.652344 16.929688 48.632812 15.074219 50.609375 15.488281 C 52.074219 15.953125 51.953125 17.394531 51.398438 18.269531 " fill-opacity="1" fill-rule="nonzero"/><path fill="#d9d9d9" d="M 58.476562 14.59375 C 57.699219 16.125 55.316406 16.214844 54.9375 14.730469 C 54.636719 13.550781 56.050781 12.054688 57.628906 12.371094 C 58.808594 12.734375 58.835938 13.890625 58.476562 14.59375 " fill-opacity="1" fill-rule="nonzero"/><path fill="#d9d9d9" d="M 63.933594 11.289062 C 63.574219 12.511719 61.960938 12.515625 61.460938 11.5625 C 60.992188 10.667969 61.839844 9.355469 63.035156 9.585938 C 63.921875 9.851562 64.097656 10.742188 63.933594 11.289062 " fill-opacity="1" fill-rule="nonzero"/><path fill="#d9d9d9" d="M 67.328125 8.347656 C 67.367188 9.113281 66.644531 9.296875 66.109375 8.847656 C 65.425781 8.273438 65.613281 7.191406 66.238281 7.117188 C 66.320312 7.109375 66.394531 7.121094 66.445312 7.132812 C 67.015625 7.296875 67.308594 7.953125 67.328125 8.347656 " fill-opacity="1" fill-rule="nonzero"/><path fill="#d9d9d9" d="M 68.378906 5.804688 C 68.605469 6.1875 68.511719 6.386719 68.285156 6.335938 C 67.78125 6.222656 67.191406 5.195312 67.417969 5.027344 C 67.453125 5.003906 67.488281 5.007812 67.527344 5.011719 C 67.796875 5.09375 68.191406 5.492188 68.378906 5.804688 " fill-opacity="1" fill-rule="nonzero"/><path fill="#d9d9d9" d="M 67.042969 3.757812 C 67.242188 3.882812 67.464844 4.035156 67.492188 4.101562 C 67.488281 4.101562 67.484375 4.105469 67.480469 4.109375 C 67.328125 4.089844 66.234375 3.335938 66.226562 3.328125 C 66.226562 3.328125 66.226562 3.328125 66.230469 3.324219 C 66.296875 3.34375 66.691406 3.539062 67.042969 3.757812 " fill-opacity="1" fill-rule="nonzero"/><path fill="#d9d9d9" d="M 9.382812 51.347656 C 8 54.996094 4.613281 56.175781 3.238281 53.488281 C 1.585938 50.246094 4.265625 44.167969 7.867188 45.007812 C 10.222656 45.925781 10.171875 49.269531 9.382812 51.347656 " fill-opacity="1" fill-rule="nonzero"/><path fill="#d9d9d9" d="M 17.882812 45.113281 C 16.261719 48.554688 12.386719 49.359375 11.195312 46.5 C 9.914062 43.425781 12.886719 38.597656 16.441406 39.410156 C 18.871094 40.296875 18.746094 43.28125 17.882812 45.113281 " fill-opacity="1" fill-rule="nonzero"/><path fill="#d9d9d9" d="M 27.113281 39.351562 C 25.425781 42.53125 21.234375 43 20.320312 40.105469 C 19.457031 37.371094 22.429688 33.550781 25.710938 34.28125 C 28.09375 35.109375 27.964844 37.742188 27.113281 39.351562 " fill-opacity="1" fill-rule="nonzero"/><path fill="#d9d9d9" d="M 36.589844 34.007812 C 35.039062 36.808594 31.078125 37.171875 30.171875 34.59375 C 29.328125 32.199219 32.089844 28.902344 35.191406 29.574219 C 37.4375 30.320312 37.363281 32.613281 36.589844 34.007812 " fill-opacity="1" fill-rule="nonzero"/><path fill="#d9d9d9" d="M 45.820312 29.046875 C 44.457031 31.609375 40.625 31.738281 39.964844 29.246094 C 39.429688 27.222656 41.757812 24.671875 44.40625 25.230469 C 46.441406 25.878906 46.460938 27.851562 45.820312 29.046875 " fill-opacity="1" fill-rule="nonzero"/><path fill="#d9d9d9" d="M 54.324219 24.425781 C 53.332031 26.570312 50.015625 26.6875 49.324219 24.597656 C 48.761719 22.894531 50.609375 20.742188 52.890625 21.210938 C 54.65625 21.75 54.792969 23.417969 54.324219 24.425781 " fill-opacity="1" fill-rule="nonzero"/><path fill="#d9d9d9" d="M 61.648438 20.121094 C 61.085938 21.800781 58.597656 22.035156 57.726562 20.492188 C 56.925781 19.066406 58.222656 17.09375 60.199219 17.480469 C 61.660156 17.914062 61.925781 19.285156 61.648438 20.121094 " fill-opacity="1" fill-rule="nonzero"/><path fill="#d9d9d9" d="M 67.265625 16.105469 C 67.097656 17.414062 65.496094 17.71875 64.585938 16.617188 C 63.648438 15.476562 64.382812 13.8125 65.746094 13.996094 C 65.789062 14.003906 65.84375 14.015625 65.886719 14.023438 C 66.980469 14.339844 67.351562 15.433594 67.265625 16.105469 " fill-opacity="1" fill-rule="nonzero"/><path fill="#d9d9d9" d="M 70.738281 12.371094 C 70.886719 13.339844 70.050781 13.585938 69.347656 13.03125 C 68.390625 12.277344 68.421875 10.894531 69.1875 10.789062 C 69.285156 10.773438 69.378906 10.789062 69.449219 10.800781 C 70.195312 11.015625 70.65625 11.863281 70.738281 12.371094 " fill-opacity="1" fill-rule="nonzero"/><path fill="#d9d9d9" d="M 71.9375 8.992188 C 72.226562 9.511719 72.121094 9.835938 71.707031 9.695312 C 70.976562 9.453125 70.230469 8.105469 70.566406 7.894531 C 70.621094 7.859375 70.675781 7.871094 70.738281 7.878906 C 71.160156 7.996094 71.6875 8.546875 71.9375 8.992188 " fill-opacity="1" fill-rule="nonzero"/><path fill="#d9d9d9" d="M 70.824219 6.0625 C 71.210938 6.390625 71.324219 6.589844 71.207031 6.585938 C 70.941406 6.585938 69.535156 5.429688 69.6875 5.339844 C 69.695312 5.335938 69.710938 5.339844 69.722656 5.339844 C 69.917969 5.394531 70.445312 5.738281 70.824219 6.0625 " fill-opacity="1" fill-rule="nonzero"/><path fill="#d9d9d9" d="M 67.449219 3.695312 C 67.773438 3.839844 68.0625 3.980469 68.125 4.023438 C 68.070312 4.023438 66.472656 3.304688 66.460938 3.300781 C 66.539062 3.324219 66.980469 3.488281 67.449219 3.695312 " fill-opacity="1" fill-rule="nonzero"/><path fill="#d9d9d9" d="M 12.800781 60.191406 C 11.625 64.109375 7.832031 65.070312 6.152344 61.878906 C 4.328125 58.417969 6.683594 52.675781 10.460938 53.53125 C 13.15625 54.527344 13.453125 58.027344 12.800781 60.191406 " fill-opacity="1" fill-rule="nonzero"/><path fill="#d9d9d9" d="M 21.324219 53.699219 C 19.855469 57.515625 15.449219 58.140625 14.078125 54.726562 C 12.726562 51.382812 15.382812 46.804688 19.132812 47.640625 C 21.886719 48.597656 22.074219 51.761719 21.324219 53.699219 " fill-opacity="1" fill-rule="nonzero"/><path fill="#d9d9d9" d="M 30.65625 47.605469 C 29.148438 51.039062 24.753906 51.523438 23.421875 48.398438 C 22.171875 45.46875 24.929688 41.382812 28.550781 42.167969 C 31.253906 43.066406 31.40625 45.886719 30.65625 47.605469 " fill-opacity="1" fill-rule="nonzero"/><path fill="#d9d9d9" d="M 40.289062 41.878906 C 38.832031 45.09375 34.316406 45.28125 33.289062 42.171875 C 32.445312 39.617188 34.996094 36.382812 38.234375 37.066406 C 40.789062 37.882812 40.972656 40.371094 40.289062 41.878906 " fill-opacity="1" fill-rule="nonzero"/><path fill="#ff751f" d="M 49.722656 36.476562 C 48.546875 39.242188 44.398438 39.390625 43.382812 36.703125 C 42.542969 34.480469 44.75 31.671875 47.699219 32.277344 C 50.023438 32.992188 50.28125 35.160156 49.722656 36.476562 " fill-opacity="1" fill-rule="nonzero"/><path fill="#d9d9d9" d="M 58.472656 31.355469 C 57.628906 33.765625 54.050781 33.90625 53.003906 31.566406 C 52.152344 29.660156 53.890625 27.246094 56.464844 27.757812 C 58.507812 28.363281 58.867188 30.226562 58.472656 31.355469 " fill-opacity="1" fill-rule="nonzero"/><path fill="#d9d9d9" d="M 65.960938 26.464844 C 65.542969 28.371094 62.898438 28.65625 61.738281 26.925781 C 60.65625 25.308594 61.820312 23.042969 64.0625 23.46875 C 65.71875 23.949219 66.171875 25.511719 65.960938 26.464844 " fill-opacity="1" fill-rule="nonzero"/><path fill="#d9d9d9" d="M 71.589844 21.761719 C 71.535156 23.253906 69.824219 23.640625 68.730469 22.40625 C 67.628906 21.164062 68.117188 19.28125 69.53125 19.308594 C 69.628906 19.308594 69.75 19.328125 69.84375 19.347656 C 71.097656 19.699219 71.621094 20.972656 71.589844 21.761719 " fill-opacity="1" fill-rule="nonzero"/><path fill="#d9d9d9" d="M 75.136719 17.289062 C 75.34375 18.308594 74.621094 18.773438 73.730469 18.195312 C 72.582031 17.445312 72.238281 15.558594 73.222656 15.394531 C 73.335938 15.378906 73.449219 15.394531 73.53125 15.410156 C 74.414062 15.65625 75.011719 16.675781 75.136719 17.289062 " fill-opacity="1" fill-rule="nonzero"/><path fill="#d9d9d9" d="M 76.476562 13.125 C 76.8125 13.769531 76.675781 14.171875 76.175781 14.011719 C 75.234375 13.703125 74.335938 12.03125 74.785156 11.75 C 74.855469 11.707031 74.929688 11.71875 75.007812 11.726562 C 75.542969 11.875 76.183594 12.566406 76.476562 13.125 " fill-opacity="1" fill-rule="nonzero"/><path fill="#d9d9d9" d="M 75.574219 9.363281 C 75.953125 9.761719 76.09375 10.058594 75.902344 10.054688 C 75.5 10.046875 73.976562 8.59375 74.171875 8.402344 C 74.191406 8.382812 74.226562 8.386719 74.25 8.390625 C 74.5625 8.476562 75.1875 8.960938 75.574219 9.363281 " fill-opacity="1" fill-rule="nonzero"/><path fill="#d9d9d9" d="M 72.476562 6.121094 C 72.570312 6.179688 73.039062 6.472656 73.109375 6.582031 C 73.105469 6.585938 73.101562 6.589844 73.101562 6.59375 C 72.910156 6.582031 71.347656 5.585938 71.300781 5.507812 C 71.304688 5.507812 71.308594 5.503906 71.3125 5.503906 C 71.457031 5.542969 72.035156 5.851562 72.476562 6.121094 " fill-opacity="1" fill-rule="nonzero"/><path fill="#d9d9d9" d="M 67.320312 3.53125 C 67.660156 3.652344 67.960938 3.765625 68.054688 3.808594 C 68.019531 3.800781 66.359375 3.207031 66.347656 3.203125 C 66.414062 3.222656 66.839844 3.359375 67.320312 3.53125 " fill-opacity="1" fill-rule="nonzero"/><path fill="#d9d9d9" d="M 17.207031 69.066406 C 16.265625 72.839844 12.335938 73.710938 10.316406 70.59375 C 8 67.019531 10.203125 61.777344 13.785156 62.347656 C 13.902344 62.367188 14.054688 62.410156 14.167969 62.433594 C 17.144531 63.476562 17.734375 66.941406 17.207031 69.066406 " fill-opacity="1" fill-rule="nonzero"/><path fill="#d9d9d9" d="M 25.695312 62.679688 C 24.410156 66.582031 19.878906 67.179688 18.117188 63.683594 C 16.40625 60.285156 18.890625 55.492188 22.902344 56.359375 C 25.929688 57.371094 26.355469 60.664062 25.695312 62.679688 " fill-opacity="1" fill-rule="nonzero"/><path fill="#d9d9d9" d="M 35.132812 56.328125 C 33.789062 59.894531 29.171875 60.402344 27.53125 57.164062 C 25.929688 54.003906 28.476562 49.757812 32.46875 50.605469 C 35.4375 51.554688 35.816406 54.523438 35.132812 56.328125 " fill-opacity="1" fill-rule="nonzero"/><path fill="#d9d9d9" d="M 44.945312 50.28125 C 43.640625 53.644531 38.851562 53.851562 37.519531 50.597656 C 36.382812 47.824219 38.78125 44.425781 42.363281 45.164062 C 45.175781 46.03125 45.566406 48.679688 44.945312 50.28125 " fill-opacity="1" fill-rule="nonzero"/><path fill="#d9d9d9" d="M 54.617188 44.5 C 53.546875 47.507812 49.175781 47.679688 47.84375 44.761719 C 46.753906 42.375 48.878906 39.34375 52.089844 39.988281 C 54.671875 40.753906 55.125 43.085938 54.617188 44.5 " fill-opacity="1" fill-rule="nonzero"/><path fill="#d9d9d9" d="M 63.542969 38.917969 C 62.8125 41.550781 59.078125 41.730469 57.753906 39.195312 C 56.671875 37.125 58.335938 34.480469 61.152344 35.023438 C 63.371094 35.664062 63.886719 37.6875 63.542969 38.917969 " fill-opacity="1" fill-rule="nonzero"/><path fill="#d9d9d9" d="M 70.992188 33.453125 C 70.660156 35.582031 67.976562 35.941406 66.640625 34.039062 C 65.375 32.238281 66.554688 29.867188 68.582031 30.132812 C 68.652344 30.144531 68.742188 30.164062 68.808594 30.175781 C 70.585938 30.675781 71.15625 32.394531 70.992188 33.453125 " fill-opacity="1" fill-rule="nonzero"/><path fill="#ff751f" d="M 76.632812 28.117188 C 76.644531 29.714844 75.0625 30.246094 73.804688 29.058594 C 72.386719 27.71875 72.699219 25.386719 74.300781 25.390625 C 74.402344 25.390625 74.535156 25.410156 74.636719 25.425781 C 76.003906 25.804688 76.625 27.230469 76.632812 28.117188 " fill-opacity="1" fill-rule="nonzero"/><path fill="#d9d9d9" d="M 80.253906 22.96875 C 80.503906 24.125 79.738281 24.675781 78.761719 24.035156 C 77.464844 23.191406 77.015625 21.023438 78.089844 20.816406 C 78.214844 20.792969 78.339844 20.8125 78.433594 20.828125 C 79.425781 21.097656 80.097656 22.242188 80.253906 22.96875 " fill-opacity="1" fill-rule="nonzero"/><path fill="#d9d9d9" d="M 81.730469 18.078125 C 82.089844 18.828125 81.921875 19.308594 81.371094 19.128906 C 80.3125 18.789062 79.308594 16.789062 79.8125 16.464844 C 79.898438 16.410156 79.988281 16.421875 80.078125 16.433594 C 80.691406 16.597656 81.410156 17.414062 81.730469 18.078125 " fill-opacity="1" fill-rule="nonzero"/><path fill="#d9d9d9" d="M 81.019531 13.539062 C 81.414062 14.023438 81.539062 14.382812 81.308594 14.382812 C 80.773438 14.382812 79.136719 12.601562 79.441406 12.359375 C 79.46875 12.335938 79.515625 12.339844 79.546875 12.34375 C 79.925781 12.441406 80.613281 13.042969 81.019531 13.539062 " fill-opacity="1" fill-rule="nonzero"/><path fill="#d9d9d9" d="M 78.179688 9.46875 C 78.597656 9.792969 78.851562 10.0625 78.757812 10.074219 C 78.550781 10.101562 76.84375 8.824219 76.871094 8.664062 C 76.878906 8.660156 76.894531 8.660156 76.902344 8.660156 C 77.117188 8.714844 77.746094 9.128906 78.179688 9.46875 " fill-opacity="1" fill-rule="nonzero"/><path fill="#d9d9d9" d="M 73.347656 6 C 73.648438 6.152344 73.980469 6.328125 74.039062 6.386719 C 73.941406 6.394531 72.304688 5.53125 72.292969 5.519531 C 72.292969 5.519531 72.292969 5.515625 72.292969 5.515625 C 72.378906 5.539062 72.882812 5.765625 73.347656 6 " fill-opacity="1" fill-rule="nonzero"/><path fill="#d9d9d9" d="M 22.300781 77.738281 C 21.441406 81.605469 17.128906 82.171875 14.976562 78.699219 C 12.828125 75.238281 14.683594 70.375 18.792969 71.273438 C 21.96875 72.335938 22.757812 75.691406 22.300781 77.738281 " fill-opacity="1" fill-rule="nonzero"/><path fill="#d9d9d9" d="M 30.769531 71.667969 C 29.636719 75.410156 24.976562 75.9375 22.976562 72.550781 C 20.996094 69.191406 23.296875 64.503906 27.523438 65.398438 C 30.753906 66.441406 31.367188 69.691406 30.769531 71.667969 " fill-opacity="1" fill-rule="nonzero"/><path fill="#d9d9d9" d="M 40.28125 65.386719 C 38.964844 69.203125 33.820312 69.480469 32.191406 65.824219 C 30.792969 62.679688 33.296875 58.648438 37.230469 59.457031 C 40.40625 60.445312 40.925781 63.519531 40.28125 65.386719 " fill-opacity="1" fill-rule="nonzero"/><path fill="#d9d9d9" d="M 50.304688 59.085938 C 49.050781 62.628906 44.113281 62.855469 42.535156 59.441406 C 41.195312 56.539062 43.542969 52.976562 47.351562 53.738281 C 50.375 54.644531 50.898438 57.410156 50.304688 59.085938 " fill-opacity="1" fill-rule="nonzero"/><path fill="#d9d9d9" d="M 60.167969 52.976562 C 59.179688 56.089844 54.632812 56.296875 53.117188 53.300781 C 51.816406 50.722656 53.863281 47.558594 57.359375 48.234375 C 60.085938 49.023438 60.640625 51.480469 60.167969 52.976562 " fill-opacity="1" fill-rule="nonzero"/><path fill="#d9d9d9" d="M 69.019531 46.929688 C 68.382812 49.578125 64.945312 50 63.359375 47.625 C 61.878906 45.40625 63.433594 42.265625 66.472656 42.820312 C 68.753906 43.46875 69.335938 45.613281 69.019531 46.929688 " fill-opacity="1" fill-rule="nonzero"/><path fill="#d9d9d9" d="M 76.433594 40.949219 C 76.15625 43.128906 73.703125 43.675781 72.199219 41.898438 C 70.589844 39.996094 71.65625 37.144531 73.871094 37.410156 C 73.941406 37.417969 74.035156 37.4375 74.105469 37.449219 C 75.949219 37.960938 76.578125 39.804688 76.433594 40.949219 " fill-opacity="1" fill-rule="nonzero"/><path fill="#d9d9d9" d="M 82.097656 35.046875 C 82.136719 36.777344 80.519531 37.390625 79.210938 36.136719 C 77.707031 34.695312 77.96875 32.132812 79.621094 32.101562 C 79.726562 32.097656 79.867188 32.121094 79.972656 32.136719 C 81.402344 32.523438 82.074219 34.070312 82.097656 35.046875 " fill-opacity="1" fill-rule="nonzero"/><path fill="#d9d9d9" d="M 85.796875 29.28125 C 86.0625 30.558594 85.261719 31.1875 84.242188 30.503906 C 82.875 29.585938 82.371094 27.171875 83.496094 26.917969 C 83.632812 26.886719 83.765625 26.90625 83.863281 26.921875 C 84.917969 27.199219 85.628906 28.46875 85.796875 29.28125 " fill-opacity="1" fill-rule="nonzero"/><path fill="#d9d9d9" d="M 87.398438 23.71875 C 87.789062 24.617188 87.546875 25.175781 86.890625 24.886719 C 85.789062 24.40625 84.695312 22.160156 85.425781 21.882812 C 85.503906 21.851562 85.59375 21.863281 85.65625 21.871094 C 86.390625 22.0625 87.117188 23.066406 87.398438 23.71875 " fill-opacity="1" fill-rule="nonzero"/><path fill="#d9d9d9" d="M 86.871094 18.453125 C 87.300781 19.058594 87.382812 19.492188 87.058594 19.4375 C 86.390625 19.324219 84.84375 17.371094 85.203125 17.089844 C 85.234375 17.0625 85.289062 17.066406 85.328125 17.070312 C 85.753906 17.179688 86.460938 17.875 86.871094 18.453125 " fill-opacity="1" fill-rule="nonzero"/><path fill="#d9d9d9" d="M 84.261719 13.605469 C 84.6875 14.003906 84.914062 14.320312 84.796875 14.335938 C 84.546875 14.375 82.75 12.777344 82.894531 12.640625 C 82.902344 12.632812 82.921875 12.636719 82.933594 12.636719 C 83.179688 12.699219 83.820312 13.1875 84.261719 13.605469 " fill-opacity="1" fill-rule="nonzero"/><path fill="#d9d9d9" d="M 79.726562 9.308594 C 80.003906 9.488281 80.339844 9.722656 80.378906 9.796875 C 80.285156 9.847656 78.695312 8.792969 78.625 8.695312 C 78.628906 8.695312 78.632812 8.691406 78.632812 8.6875 C 78.761719 8.71875 79.316406 9.042969 79.726562 9.308594 " fill-opacity="1" fill-rule="nonzero"/><path fill="#d9d9d9" d="M 27.757812 86.074219 C 26.960938 89.671875 22.601562 90.15625 20.351562 86.894531 C 17.972656 83.441406 19.914062 79.191406 23.601562 79.789062 C 23.726562 79.808594 23.894531 79.851562 24.019531 79.878906 C 27.3125 80.933594 28.1875 84.136719 27.757812 86.074219 " fill-opacity="1" fill-rule="nonzero"/><path fill="#d9d9d9" d="M 36.25 80.382812 C 35.105469 84.128906 30 84.351562 28.09375 80.738281 C 26.410156 77.539062 28.660156 73.472656 32.765625 74.324219 C 36.125 75.367188 36.828125 78.496094 36.25 80.382812 " fill-opacity="1" fill-rule="nonzero"/><path fill="#ff751f" d="M 45.835938 74.429688 C 44.539062 78.148438 39.363281 78.371094 37.566406 74.78125 C 36.023438 71.6875 38.476562 67.75 42.558594 68.570312 C 45.878906 69.570312 46.476562 72.597656 45.835938 74.429688 " fill-opacity="1" fill-rule="nonzero"/><path fill="#d9d9d9" d="M 56.003906 68.140625 C 54.765625 71.703125 49.707031 71.964844 48.046875 68.550781 C 46.726562 65.847656 48.679688 61.84375 52.921875 62.667969 C 55.859375 63.523438 56.703125 66.125 56.003906 68.140625 " fill-opacity="1" fill-rule="nonzero"/><path fill="#d9d9d9" d="M 65.773438 61.695312 C 64.773438 64.941406 60.34375 65.238281 58.808594 62.160156 C 57.480469 59.507812 59.496094 56.1875 62.988281 56.832031 C 65.703125 57.605469 66.25 60.140625 65.773438 61.695312 " fill-opacity="1" fill-rule="nonzero"/><path fill="#d9d9d9" d="M 74.5625 55.257812 C 73.925781 57.996094 70.511719 58.5 68.949219 56.085938 C 67.460938 53.792969 68.996094 50.476562 72.023438 51.003906 C 74.308594 51.636719 74.886719 53.871094 74.5625 55.257812 " fill-opacity="1" fill-rule="nonzero"/><path fill="#d9d9d9" d="M 81.96875 48.824219 C 81.683594 51.117188 79.230469 51.746094 77.738281 49.910156 C 76.128906 47.933594 77.1875 44.890625 79.40625 45.125 C 79.476562 45.132812 79.570312 45.152344 79.640625 45.164062 C 81.496094 45.667969 82.117188 47.605469 81.96875 48.824219 " fill-opacity="1" fill-rule="nonzero"/><path fill="#d9d9d9" d="M 87.671875 42.417969 C 87.699219 44.257812 86.070312 44.949219 84.769531 43.648438 C 83.257812 42.136719 83.523438 39.378906 85.1875 39.308594 C 85.292969 39.304688 85.4375 39.320312 85.542969 39.339844 C 86.992188 39.722656 87.660156 41.371094 87.671875 42.417969 " fill-opacity="1" fill-rule="nonzero"/><path fill="#d9d9d9" d="M 91.453125 36.089844 C 91.699219 37.46875 90.886719 38.175781 89.871094 37.464844 C 88.425781 36.457031 87.992188 33.675781 89.261719 33.546875 C 89.335938 33.539062 89.441406 33.550781 89.515625 33.558594 C 90.589844 33.839844 91.292969 35.207031 91.453125 36.089844 " fill-opacity="1" fill-rule="nonzero"/><path fill="#d9d9d9" d="M 93.179688 29.910156 C 93.550781 30.898438 93.289062 31.527344 92.632812 31.230469 C 91.519531 30.726562 90.449219 28.253906 91.199219 27.921875 C 91.28125 27.886719 91.371094 27.894531 91.4375 27.902344 C 92.109375 28.074219 92.863281 29.078125 93.179688 29.910156 " fill-opacity="1" fill-rule="nonzero"/><path fill="#d9d9d9" d="M 92.8125 23.972656 C 93.222656 24.652344 93.289062 25.144531 92.964844 25.09375 C 92.265625 24.988281 90.753906 22.804688 91.144531 22.46875 C 91.179688 22.433594 91.234375 22.4375 91.273438 22.441406 C 91.714844 22.550781 92.414062 23.320312 92.8125 23.972656 " fill-opacity="1" fill-rule="nonzero"/><path fill="#d9d9d9" d="M 90.410156 18.398438 C 90.847656 18.890625 91.058594 19.273438 90.878906 19.253906 C 90.492188 19.207031 88.871094 17.480469 89.054688 17.304688 C 89.0625 17.296875 89.085938 17.296875 89.097656 17.296875 C 89.359375 17.359375 89.980469 17.917969 90.410156 18.398438 " fill-opacity="1" fill-rule="nonzero"/><path fill="#d9d9d9" d="M 86.132812 13.320312 C 86.398438 13.539062 86.722656 13.820312 86.75 13.90625 C 86.746094 13.910156 86.738281 13.914062 86.734375 13.917969 C 86.523438 13.867188 85.121094 12.773438 85.046875 12.597656 C 85.050781 12.597656 85.054688 12.59375 85.058594 12.589844 C 85.1875 12.621094 85.730469 13 86.132812 13.320312 " fill-opacity="1" fill-rule="nonzero"/><path fill="#ff751f" d="M 33.25 93.9375 C 32.355469 97.484375 27.714844 97.664062 25.609375 94.238281 C 23.675781 91.085938 25.433594 87.25 29.519531 88.109375 C 32.847656 89.136719 33.703125 92.136719 33.25 93.9375 " fill-opacity="1" fill-rule="nonzero"/><path fill="#d9d9d9" d="M 41.792969 88.691406 C 40.542969 92.363281 35.066406 92.273438 33.421875 88.558594 C 32.074219 85.519531 34.28125 82.117188 38.304688 82.9375 C 41.714844 83.957031 42.394531 86.917969 41.792969 88.691406 " fill-opacity="1" fill-rule="nonzero"/><path fill="#d9d9d9" d="M 51.453125 83.117188 C 50.039062 86.828125 44.496094 86.761719 42.980469 83.015625 C 41.898438 80.347656 44.027344 76.695312 48.199219 77.511719 C 51.542969 78.484375 52.113281 81.375 51.453125 83.117188 " fill-opacity="1" fill-rule="nonzero"/><path fill="#d9d9d9" d="M 61.414062 77.078125 C 60.136719 80.507812 55.308594 80.78125 53.703125 77.519531 C 52.3125 74.683594 54.710938 71.027344 58.550781 71.738281 C 61.574219 72.601562 62.046875 75.382812 61.414062 77.078125 " fill-opacity="1" fill-rule="nonzero"/><path fill="#d9d9d9" d="M 71.070312 70.519531 C 69.996094 73.804688 65.683594 74.1875 64.285156 71.125 C 63.0625 68.445312 65.105469 65.019531 68.492188 65.613281 C 71.285156 66.390625 71.554688 69.035156 71.070312 70.519531 " fill-opacity="1" fill-rule="nonzero"/><path fill="#d9d9d9" d="M 79.839844 63.753906 C 79.132812 66.566406 75.789062 67.15625 74.335938 64.722656 C 72.949219 62.394531 74.53125 58.945312 77.472656 59.421875 C 79.707031 60.03125 80.203125 62.324219 79.839844 63.753906 " fill-opacity="1" fill-rule="nonzero"/><path fill="#d9d9d9" d="M 87.269531 56.941406 C 86.917969 59.3125 84.507812 60.023438 83.105469 58.167969 C 81.578125 56.144531 82.6875 52.953125 84.855469 53.148438 C 84.925781 53.15625 85.015625 53.171875 85.085938 53.183594 C 86.902344 53.667969 87.457031 55.671875 87.269531 56.941406 " fill-opacity="1" fill-rule="nonzero"/><path fill="#ff751f" d="M 93.035156 50.097656 C 93 52.066406 91.414062 52.824219 90.160156 51.472656 C 88.621094 49.8125 89.078125 46.765625 90.851562 46.875 C 90.90625 46.878906 90.976562 46.894531 91.027344 46.898438 C 92.445312 47.269531 93.054688 48.992188 93.035156 50.097656 " fill-opacity="1" fill-rule="nonzero"/><path fill="#d9d9d9" d="M 96.902344 43.273438 C 97.105469 44.757812 96.308594 45.523438 95.324219 44.789062 C 93.929688 43.75 93.578125 40.785156 94.828125 40.613281 C 94.902344 40.601562 95.003906 40.609375 95.078125 40.617188 C 96.121094 40.882812 96.773438 42.332031 96.902344 43.273438 " fill-opacity="1" fill-rule="nonzero"/><path fill="#d9d9d9" d="M 98.742188 36.53125 C 99.082031 37.609375 98.820312 38.292969 98.183594 37.988281 C 97.078125 37.464844 96.09375 34.613281 96.941406 34.402344 C 96.988281 34.386719 97.054688 34.394531 97.101562 34.394531 C 97.832031 34.578125 98.5 35.753906 98.742188 36.53125 " fill-opacity="1" fill-rule="nonzero"/><path fill="#d9d9d9" d="M 98.519531 29.976562 C 98.925781 30.765625 98.957031 31.328125 98.585938 31.207031 C 97.871094 30.976562 96.527344 28.558594 96.984375 28.335938 C 97.011719 28.324219 97.050781 28.324219 97.078125 28.324219 C 97.496094 28.425781 98.152344 29.257812 98.519531 29.976562 " fill-opacity="1" fill-rule="nonzero"/><path fill="#d9d9d9" d="M 96.296875 23.71875 C 96.710938 24.273438 96.90625 24.699219 96.738281 24.6875 C 96.375 24.660156 94.851562 22.742188 95.027344 22.523438 C 95.035156 22.511719 95.054688 22.511719 95.066406 22.511719 C 95.308594 22.566406 95.894531 23.179688 96.296875 23.71875 " fill-opacity="1" fill-rule="nonzero"/><path fill="#d9d9d9" d="M 92.230469 17.90625 C 92.457031 18.125 92.835938 18.519531 92.820312 18.597656 C 92.695312 18.640625 91.207031 17.234375 91.226562 17.089844 C 91.226562 17.089844 91.230469 17.085938 91.234375 17.085938 C 91.351562 17.109375 91.84375 17.53125 92.230469 17.90625 " fill-opacity="1" fill-rule="nonzero"/><path fill="#d9d9d9" d="M 38.441406 101.203125 C 37.378906 104.535156 32.492188 104.433594 30.753906 101.042969 C 29.300781 98.207031 31.148438 95.054688 34.960938 95.839844 C 38.234375 96.816406 38.964844 99.5625 38.441406 101.203125 " fill-opacity="1" fill-rule="nonzero"/><path fill="#d9d9d9" d="M 47.039062 96.460938 C 45.644531 99.859375 40.335938 99.746094 38.808594 96.285156 C 37.554688 93.449219 39.839844 90.308594 43.800781 91.097656 C 47.152344 92.070312 47.710938 94.816406 47.039062 96.460938 " fill-opacity="1" fill-rule="nonzero"/><path fill="#d9d9d9" d="M 56.496094 91.257812 C 54.96875 94.710938 49.761719 94.671875 48.425781 91.199219 C 47.371094 88.457031 49.902344 85.320312 53.664062 86.03125 C 56.816406 86.925781 57.21875 89.625 56.496094 91.257812 " fill-opacity="1" fill-rule="nonzero"/><path fill="#d9d9d9" d="M 66.230469 85.519531 C 64.824219 88.789062 60.304688 89.082031 58.902344 85.996094 C 57.691406 83.328125 60.121094 79.847656 63.746094 80.492188 C 66.609375 81.289062 66.921875 83.914062 66.230469 85.519531 " fill-opacity="1" fill-rule="nonzero"/><path fill="#d9d9d9" d="M 75.746094 79.207031 C 74.535156 82.398438 70.46875 82.808594 69.25 79.859375 C 68.203125 77.324219 70.355469 73.910156 73.53125 74.425781 C 76.046875 75.117188 76.339844 77.636719 75.746094 79.207031 " fill-opacity="1" fill-rule="nonzero"/><path fill="#d9d9d9" d="M 84.519531 72.304688 C 83.671875 75.148438 80.4375 75.820312 79.195312 73.410156 C 77.960938 71.019531 79.628906 67.527344 82.488281 67.957031 C 84.609375 68.527344 84.953125 70.84375 84.519531 72.304688 " fill-opacity="1" fill-rule="nonzero"/><path fill="#d9d9d9" d="M 92.011719 65.179688 C 91.546875 67.601562 89.199219 68.390625 87.964844 66.546875 C 86.625 64.535156 87.707031 61.054688 90.121094 61.375 C 91.84375 61.828125 92.265625 63.871094 92.011719 65.179688 " fill-opacity="1" fill-rule="nonzero"/><path fill="#d9d9d9" d="M 97.859375 57.960938 C 97.726562 59.992188 96.183594 60.824219 95.0625 59.472656 C 93.675781 57.792969 94.257812 54.613281 95.9375 54.679688 C 95.988281 54.679688 96.054688 54.691406 96.105469 54.695312 C 97.441406 55.035156 97.9375 56.808594 97.859375 57.960938 " fill-opacity="1" fill-rule="nonzero"/><path fill="#d9d9d9" d="M 101.828125 50.695312 C 101.953125 52.246094 101.171875 53.082031 100.28125 52.347656 C 98.949219 51.25 98.816406 47.964844 100.105469 47.953125 C 100.140625 47.953125 100.1875 47.960938 100.222656 47.964844 C 101.199219 48.207031 101.75 49.707031 101.828125 50.695312 " fill-opacity="1" fill-rule="nonzero"/><path fill="#ff751f" d="M 103.78125 43.453125 C 104.074219 44.667969 103.753906 45.410156 103.125 44.984375 C 102.050781 44.25 101.367188 41.300781 102.257812 41.226562 C 102.28125 41.226562 102.3125 41.230469 102.335938 41.230469 C 103 41.390625 103.578125 42.625 103.78125 43.453125 " fill-opacity="1" fill-rule="nonzero"/><path fill="#d9d9d9" d="M 103.683594 36.328125 C 104.042969 37.1875 104.066406 37.796875 103.738281 37.683594 C 103.101562 37.46875 101.914062 34.882812 102.328125 34.609375 C 102.351562 34.59375 102.386719 34.59375 102.410156 34.589844 C 102.824219 34.683594 103.402344 35.664062 103.683594 36.328125 " fill-opacity="1" fill-rule="nonzero"/><path fill="#d9d9d9" d="M 101.597656 29.441406 C 101.996094 30.082031 102.175781 30.570312 101.996094 30.511719 C 101.613281 30.378906 100.285156 28.289062 100.5 28.15625 C 100.503906 28.152344 100.515625 28.152344 100.519531 28.152344 C 100.71875 28.195312 101.234375 28.855469 101.597656 29.441406 " fill-opacity="1" fill-rule="nonzero"/><path fill="#d9d9d9" d="M 97.695312 22.933594 C 97.898438 23.175781 98.25 23.613281 98.261719 23.710938 C 98.125 23.742188 96.839844 22.167969 96.820312 22.050781 C 96.824219 22.046875 96.824219 22.046875 96.824219 22.042969 C 96.90625 22.058594 97.34375 22.515625 97.695312 22.933594 " fill-opacity="1" fill-rule="nonzero"/><path fill="#d9d9d9" d="M 43.019531 107.75 C 41.660156 110.855469 36.75 110.507812 35.515625 107.21875 C 34.589844 104.746094 36.523438 102.234375 40.019531 102.9375 C 42.855469 103.757812 43.773438 106.027344 43.019531 107.75 " fill-opacity="1" fill-rule="nonzero"/><path fill="#d9d9d9" d="M 51.421875 103.503906 C 49.738281 106.742188 44.558594 106.425781 43.617188 103.027344 C 42.929688 100.554688 45.332031 97.996094 48.824219 98.664062 C 51.898438 99.535156 52.191406 102.015625 51.421875 103.503906 " fill-opacity="1" fill-rule="nonzero"/><path fill="#d9d9d9" d="M 60.636719 98.722656 C 58.941406 101.832031 54.109375 101.839844 53.136719 98.726562 C 52.34375 96.183594 54.84375 93.296875 58.394531 93.941406 C 61.296875 94.742188 61.449219 97.21875 60.636719 98.722656 " fill-opacity="1" fill-rule="nonzero"/><path fill="#d9d9d9" d="M 70.179688 93.355469 C 68.554688 96.480469 63.988281 96.601562 63.199219 93.539062 C 62.570312 91.085938 65.066406 88.171875 68.230469 88.703125 C 70.875 89.421875 70.960938 91.859375 70.179688 93.355469 " fill-opacity="1" fill-rule="nonzero"/><path fill="#d9d9d9" d="M 79.566406 87.367188 C 78.199219 90.332031 74.367188 90.765625 73.445312 88.058594 C 72.640625 85.683594 74.898438 82.445312 77.839844 82.894531 C 80.164062 83.519531 80.25 85.886719 79.566406 87.367188 " fill-opacity="1" fill-rule="nonzero"/><path fill="#ff751f" d="M 88.292969 80.707031 C 87.265625 83.476562 84.238281 84.167969 83.230469 81.863281 C 82.246094 79.609375 84.113281 76.125 86.738281 76.476562 C 88.699219 77 88.828125 79.265625 88.292969 80.707031 " fill-opacity="1" fill-rule="nonzero"/><path fill="#d9d9d9" d="M 95.878906 73.414062 C 95.242188 75.859375 92.996094 76.726562 92 74.910156 C 90.90625 72.917969 92.191406 69.367188 94.417969 69.621094 C 96 70.027344 96.222656 72.085938 95.878906 73.414062 " fill-opacity="1" fill-rule="nonzero"/><path fill="#d9d9d9" d="M 101.839844 65.886719 C 101.566406 67.953125 100.089844 68.859375 99.160156 67.527344 C 98.046875 65.925781 98.683594 62.457031 100.464844 62.609375 C 101.671875 62.910156 101.996094 64.707031 101.839844 65.886719 " fill-opacity="1" fill-rule="nonzero"/><path fill="#d9d9d9" d="M 105.917969 58.246094 C 105.933594 59.84375 105.183594 60.742188 104.433594 60.027344 C 103.296875 58.941406 103.371094 55.535156 104.535156 55.46875 C 104.566406 55.464844 104.609375 55.472656 104.644531 55.472656 C 105.507812 55.683594 105.910156 57.21875 105.917969 58.246094 " fill-opacity="1" fill-rule="nonzero"/><path fill="#d9d9d9" d="M 107.976562 50.550781 C 108.179688 51.8125 107.878906 52.617188 107.359375 52.207031 C 106.496094 51.523438 106.011719 48.40625 106.753906 48.285156 C 106.773438 48.28125 106.800781 48.285156 106.820312 48.28125 C 107.386719 48.414062 107.835938 49.6875 107.976562 50.550781 " fill-opacity="1" fill-rule="nonzero"/><path fill="#d9d9d9" d="M 107.976562 42.910156 C 108.269531 43.8125 108.300781 44.472656 108.042969 44.378906 C 107.5 44.1875 106.507812 41.296875 106.925781 41.125 C 106.933594 41.121094 106.949219 41.121094 106.960938 41.117188 C 107.285156 41.1875 107.75 42.207031 107.976562 42.910156 " fill-opacity="1" fill-rule="nonzero"/><path fill="#d9d9d9" d="M 105.992188 35.4375 C 106.335938 36.121094 106.519531 36.660156 106.398438 36.613281 C 106.132812 36.511719 104.972656 34.207031 105.132812 34.09375 C 105.261719 34.117188 105.679688 34.808594 105.992188 35.4375 " fill-opacity="1" fill-rule="nonzero"/><path fill="#d9d9d9" d="M 102.199219 28.28125 C 102.460938 28.664062 102.742188 29.09375 102.757812 29.152344 C 102.683594 29.101562 101.539062 27.445312 101.507812 27.339844 C 101.5625 27.375 101.945312 27.914062 102.199219 28.28125 " fill-opacity="1" fill-rule="nonzero"/><path fill="#d9d9d9" d="M 46.492188 113.421875 C 44.78125 116.167969 40.167969 115.660156 39.636719 112.667969 C 39.273438 110.648438 41.292969 108.683594 44.339844 109.277344 C 47.117188 110.058594 47.269531 112.171875 46.492188 113.421875 " fill-opacity="1" fill-rule="nonzero"/><path fill="#d9d9d9" d="M 54.652344 109.71875 C 52.699219 112.554688 48.101562 112.308594 47.621094 109.34375 C 47.269531 107.167969 49.742188 104.894531 52.847656 105.464844 C 55.589844 106.222656 55.554688 108.410156 54.652344 109.71875 " fill-opacity="1" fill-rule="nonzero"/><path fill="#d9d9d9" d="M 63.65625 105.429688 C 61.707031 108.246094 57.347656 108.285156 56.796875 105.492188 C 56.347656 103.214844 58.960938 100.597656 62.140625 101.144531 C 64.742188 101.851562 64.59375 104.074219 63.65625 105.429688 " fill-opacity="1" fill-rule="nonzero"/><path fill="#d9d9d9" d="M 73.039062 100.5 C 71.265625 103.222656 67.335938 103.554688 66.667969 101.035156 C 66.0625 98.742188 68.679688 95.785156 71.75 96.269531 C 74.128906 96.902344 73.933594 99.125 73.039062 100.5 " fill-opacity="1" fill-rule="nonzero"/><path fill="#d9d9d9" d="M 82.304688 94.890625 C 80.699219 97.683594 77.195312 98.128906 76.621094 95.613281 C 76.125 93.429688 78.53125 90.402344 81.191406 90.777344 C 83.273438 91.324219 83.097656 93.511719 82.304688 94.890625 " fill-opacity="1" fill-rule="nonzero"/><path fill="#d9d9d9" d="M 90.976562 88.5625 C 89.761719 91.140625 86.929688 91.84375 86.246094 89.734375 C 85.570312 87.644531 87.617188 84.351562 89.980469 84.632812 C 91.734375 85.085938 91.621094 87.203125 90.976562 88.5625 " fill-opacity="1" fill-rule="nonzero"/><path fill="#d9d9d9" d="M 98.585938 81.496094 C 97.742188 83.894531 95.660156 84.777344 94.933594 83.039062 C 94.148438 81.175781 95.707031 77.625 97.667969 77.800781 C 99.066406 78.15625 99.046875 80.175781 98.585938 81.496094 " fill-opacity="1" fill-rule="nonzero"/><path fill="#d9d9d9" d="M 104.683594 73.769531 C 104.253906 75.746094 102.980469 76.753906 102.25 75.6875 C 101.289062 74.296875 102.183594 70.429688 103.792969 70.511719 C 104.839844 70.769531 104.945312 72.570312 104.683594 73.769531 " fill-opacity="1" fill-rule="nonzero"/><path fill="#d9d9d9" d="M 108.890625 65.804688 C 108.765625 67.433594 108.058594 68.390625 107.484375 67.707031 C 106.648438 66.703125 106.855469 63.046875 108.039062 63.035156 C 108.757812 63.203125 108.96875 64.757812 108.890625 65.804688 " fill-opacity="1" fill-rule="nonzero"/><g clip-path="url(#3d17fab06b)"><path fill="#d9d9d9" d="M 111.046875 57.71875 C 111.132812 58.941406 110.902344 59.792969 110.546875 59.546875 C 109.882812 59.082031 109.601562 55.632812 110.207031 55.445312 C 110.222656 55.4375 110.246094 55.4375 110.261719 55.4375 C 110.695312 55.53125 110.980469 56.828125 111.046875 57.71875 " fill-opacity="1" fill-rule="nonzero"/></g><g clip-path="url(#12de8b1065)"><path fill="#d9d9d9" d="M 111.121094 49.609375 C 111.332031 50.546875 111.371094 51.253906 111.207031 51.1875 C 110.855469 51.042969 110.140625 47.9375 110.425781 47.796875 C 110.632812 47.832031 110.957031 48.878906 111.121094 49.609375 " fill-opacity="1" fill-rule="nonzero"/></g><path fill="#d9d9d9" d="M 109.191406 41.597656 C 109.367188 42.058594 109.625 42.78125 109.625 42.871094 C 109.496094 42.773438 108.601562 40.332031 108.605469 40.222656 C 108.675781 40.277344 109.0625 41.257812 109.191406 41.597656 " fill-opacity="1" fill-rule="nonzero"/><path fill="#d9d9d9" d="M 48.632812 118.128906 C 46.785156 120.121094 42.71875 120.070312 42.746094 117.519531 C 42.761719 115.851562 44.867188 114.226562 47.453125 114.710938 C 49.617188 115.308594 49.753906 116.917969 48.632812 118.128906 " fill-opacity="1" fill-rule="nonzero"/><path fill="#d9d9d9" d="M 56.578125 115.042969 C 54.554688 117.179688 50.316406 117.363281 50.371094 114.757812 C 50.414062 112.882812 52.914062 110.9375 55.671875 111.417969 C 57.832031 112.003906 57.828125 113.722656 56.578125 115.042969 " fill-opacity="1" fill-rule="nonzero"/><path fill="#d9d9d9" d="M 65.402344 111.308594 C 63.207031 113.722656 59.285156 113.792969 59.226562 111.421875 C 59.179688 109.433594 61.933594 107.125 64.707031 107.570312 C 66.980469 108.175781 66.484375 110.121094 65.402344 111.308594 " fill-opacity="1" fill-rule="nonzero"/><path fill="#d9d9d9" d="M 74.632812 106.871094 C 72.628906 109.285156 69.042969 109.625 68.820312 107.425781 C 68.613281 105.390625 71.40625 102.71875 74.097656 103.113281 C 76.175781 103.652344 75.660156 105.636719 74.632812 106.871094 " fill-opacity="1" fill-rule="nonzero"/><path fill="#ff751f" d="M 83.789062 101.703125 C 82.058594 104.085938 79.015625 104.675781 78.625 102.699219 C 78.234375 100.730469 80.910156 97.683594 83.363281 97.992188 C 85.179688 98.457031 84.707031 100.441406 83.789062 101.703125 " fill-opacity="1" fill-rule="nonzero"/><path fill="#d9d9d9" d="M 92.390625 95.761719 C 91.035156 98.011719 88.585938 98.808594 88.09375 97.164062 C 87.546875 95.347656 89.894531 91.957031 92.039062 92.167969 C 93.542969 92.546875 93.148438 94.496094 92.390625 95.761719 " fill-opacity="1" fill-rule="nonzero"/><path fill="#d9d9d9" d="M 99.980469 89.023438 C 98.992188 91.144531 97.199219 92.089844 96.671875 90.757812 C 96.042969 89.171875 97.890625 85.507812 99.660156 85.613281 C 100.835938 85.902344 100.554688 87.78125 99.980469 89.023438 " fill-opacity="1" fill-rule="nonzero"/><path fill="#d9d9d9" d="M 106.136719 81.476562 C 105.523438 83.402344 104.328125 84.433594 103.855469 83.449219 C 103.226562 82.136719 104.476562 78.308594 105.828125 78.308594 C 106.675781 78.511719 106.515625 80.285156 106.136719 81.476562 " fill-opacity="1" fill-rule="nonzero"/><path fill="#d9d9d9" d="M 110.476562 73.28125 C 110.214844 74.816406 109.609375 75.832031 109.234375 75.371094 C 108.640625 74.636719 109.152344 70.652344 110.140625 70.550781 C 110.675781 70.667969 110.660156 72.21875 110.476562 73.28125 " fill-opacity="1" fill-rule="nonzero"/><path fill="#d9d9d9" d="M 49.335938 121.816406 C 47.4375 123.109375 43.976562 123.414062 44.394531 121.511719 C 44.667969 120.269531 46.808594 118.734375 49.199219 119.160156 C 50.980469 119.644531 50.65625 120.914062 49.335938 121.816406 " fill-opacity="1" fill-rule="nonzero"/><path fill="#d9d9d9" d="M 57.105469 119.414062 C 54.886719 121.050781 51.335938 121.3125 51.691406 119.394531 C 51.953125 117.992188 54.613281 116.039062 57.152344 116.457031 C 58.949219 116.933594 58.527344 118.363281 57.105469 119.414062 " fill-opacity="1" fill-rule="nonzero"/><path fill="#d9d9d9" d="M 65.769531 116.296875 C 63.617188 118.050781 60.078125 118.546875 60.261719 116.648438 C 60.414062 115.109375 63.335938 112.75 65.949219 113.140625 C 67.875 113.644531 67.003906 115.289062 65.769531 116.296875 " fill-opacity="1" fill-rule="nonzero"/><path fill="#d9d9d9" d="M 74.859375 112.417969 C 72.886719 114.246094 69.636719 114.96875 69.613281 113.1875 C 69.59375 111.574219 72.566406 108.824219 75.132812 109.160156 C 76.886719 109.609375 76.03125 111.335938 74.859375 112.417969 " fill-opacity="1" fill-rule="nonzero"/><path fill="#d9d9d9" d="M 83.898438 107.746094 C 81.9375 109.867188 79.171875 110.445312 79.203125 108.726562 C 79.234375 107.144531 82.003906 104.230469 84.222656 104.464844 C 85.742188 104.84375 84.949219 106.613281 83.898438 107.746094 " fill-opacity="1" fill-rule="nonzero"/><path fill="#d9d9d9" d="M 92.414062 102.238281 C 90.847656 104.285156 88.605469 105.074219 88.484375 103.617188 C 88.339844 101.960938 90.910156 98.886719 92.75 99.019531 C 93.988281 99.316406 93.296875 101.082031 92.414062 102.238281 " fill-opacity="1" fill-rule="nonzero"/><path fill="#d9d9d9" d="M 99.945312 95.878906 C 98.84375 97.710938 97.28125 98.679688 96.960938 97.730469 C 96.523438 96.441406 98.746094 92.753906 100.273438 92.78125 C 101.203125 93 100.640625 94.722656 99.945312 95.878906 " fill-opacity="1" fill-rule="nonzero"/><path fill="#d9d9d9" d="M 106.085938 88.652344 C 105.347656 90.335938 104.316406 91.375 104.046875 90.707031 C 103.65625 89.738281 105.296875 85.828125 106.378906 85.746094 C 106.996094 85.882812 106.578125 87.527344 106.085938 88.652344 " fill-opacity="1" fill-rule="nonzero"/><path fill="#d9d9d9" d="M 110.476562 80.578125 C 110.078125 81.992188 109.558594 83.019531 109.359375 82.773438 C 109.046875 82.386719 110 78.132812 110.71875 77.914062 C 111.046875 77.980469 110.773438 79.511719 110.476562 80.578125 " fill-opacity="1" fill-rule="nonzero"/><g clip-path="url(#298811a3f3)"><path fill="#d9d9d9" d="M 48.570312 124.445312 C 46.828125 125.101562 43.972656 125.386719 44.335938 124.5 C 44.667969 123.683594 47.378906 122.226562 49.496094 122.585938 C 50.78125 122.925781 50.09375 123.679688 49.320312 124.105469 C 49.164062 124.191406 48.863281 124.332031 48.570312 124.445312 " fill-opacity="1" fill-rule="nonzero"/></g><path fill="#d9d9d9" d="M 56.1875 122.789062 C 54.203125 123.742188 50.972656 124.242188 51.40625 123.042969 C 51.773438 122.027344 54.898438 120.175781 57.210938 120.53125 C 58.492188 120.867188 57.925781 121.792969 56.742188 122.496094 C 56.582031 122.589844 56.359375 122.707031 56.1875 122.789062 " fill-opacity="1" fill-rule="nonzero"/><path fill="#d9d9d9" d="M 64.710938 120.355469 C 62.457031 121.667969 59.339844 122.140625 59.785156 120.828125 C 60.203125 119.582031 63.59375 117.507812 65.789062 117.808594 C 67.203125 118.167969 66.332031 119.410156 64.710938 120.355469 " fill-opacity="1" fill-rule="nonzero"/><path fill="#d9d9d9" d="M 73.667969 117.097656 C 71.621094 118.527344 68.710938 119.242188 68.914062 117.96875 C 69.117188 116.6875 72.59375 114.117188 74.765625 114.367188 C 76.050781 114.683594 75.195312 116.03125 73.667969 117.097656 " fill-opacity="1" fill-rule="nonzero"/><path fill="#d9d9d9" d="M 82.585938 112.976562 C 80.636719 114.617188 78.320312 115.304688 78.316406 114.242188 C 78.308594 113.019531 81.628906 109.980469 83.675781 110.148438 C 84.890625 110.445312 83.769531 111.980469 82.585938 112.976562 " fill-opacity="1" fill-rule="nonzero"/><path fill="#d9d9d9" d="M 90.992188 107.957031 C 89.304688 109.703125 87.371094 110.507812 87.429688 109.445312 C 87.5 108.109375 90.492188 105.070312 92.042969 105.125 C 92.894531 105.320312 92.160156 106.75 90.992188 107.957031 " fill-opacity="1" fill-rule="nonzero"/><path fill="#d9d9d9" d="M 98.429688 102.019531 C 97.226562 103.589844 95.859375 104.550781 95.71875 103.917969 C 95.5 102.953125 98.160156 99.3125 99.421875 99.25 C 100.082031 99.394531 99.238281 100.957031 98.429688 102.019531 " fill-opacity="1" fill-rule="nonzero"/><path fill="#d9d9d9" d="M 104.488281 95.152344 C 103.628906 96.644531 102.757812 97.636719 102.660156 97.230469 C 102.503906 96.609375 104.617188 92.699219 105.398438 92.523438 C 105.769531 92.59375 105.089844 94.101562 104.488281 95.152344 " fill-opacity="1" fill-rule="nonzero"/><path fill="#d9d9d9" d="M 108.8125 87.367188 C 108.519531 88.101562 107.980469 89.390625 107.824219 89.542969 C 107.671875 89.347656 109.445312 85.117188 109.632812 84.933594 C 109.730469 85.058594 108.847656 87.273438 108.8125 87.367188 " fill-opacity="1" fill-rule="nonzero"/><g clip-path="url(#54afd981ba)"><path fill="#d9d9d9" d="M 53.84375 125.148438 C 51.820312 125.695312 49.28125 125.875 49.464844 125.457031 C 49.667969 124.992188 53.820312 123.320312 55.824219 123.605469 C 56.597656 123.800781 56.097656 124.199219 55.730469 124.421875 C 55.316406 124.667969 54.628906 124.933594 53.84375 125.148438 " fill-opacity="1" fill-rule="nonzero"/></g><g clip-path="url(#228c428ba9)"><path fill="#d9d9d9" d="M 62.242188 123.457031 C 60.113281 124.285156 57.316406 124.726562 57.714844 124.015625 C 58.125 123.285156 62.269531 121.304688 64.203125 121.535156 C 65.246094 121.796875 63.957031 122.613281 63.6875 122.773438 C 63.507812 122.878906 63.011719 123.15625 62.242188 123.457031 " fill-opacity="1" fill-rule="nonzero"/></g><path fill="#d9d9d9" d="M 71.074219 120.878906 C 68.941406 121.964844 66.5625 122.480469 66.679688 121.835938 C 66.835938 120.996094 71.144531 118.519531 72.984375 118.6875 C 73.820312 118.890625 73.035156 119.707031 71.949219 120.386719 C 71.714844 120.53125 71.355469 120.734375 71.074219 120.878906 " fill-opacity="1" fill-rule="nonzero"/><path fill="#d9d9d9" d="M 79.863281 117.363281 C 77.875 118.652344 75.777344 119.320312 75.929688 118.617188 C 76.121094 117.734375 80.085938 114.929688 81.703125 115.007812 C 82.523438 115.195312 81.386719 116.378906 79.863281 117.363281 " fill-opacity="1" fill-rule="nonzero"/><path fill="#d9d9d9" d="M 88.136719 112.882812 C 86.515625 114.210938 84.835938 115.03125 84.863281 114.484375 C 84.902344 113.765625 88.539062 110.480469 89.882812 110.453125 C 90.484375 110.582031 89.445312 111.816406 88.136719 112.882812 " fill-opacity="1" fill-rule="nonzero"/><path fill="#d9d9d9" d="M 95.4375 107.414062 C 94.164062 108.746094 92.957031 109.65625 92.953125 109.289062 C 92.949219 108.710938 96.195312 105.140625 97.074219 104.992188 C 97.429688 105.054688 96.5 106.300781 95.4375 107.414062 " fill-opacity="1" fill-rule="nonzero"/><path fill="#d9d9d9" d="M 100.226562 102.429688 C 99.824219 102.9375 99.738281 102.992188 99.703125 103.015625 C 99.699219 103.007812 99.695312 103 99.691406 102.996094 C 99.867188 102.496094 102.511719 98.84375 102.867188 98.601562 C 102.871094 98.609375 102.878906 98.617188 102.882812 98.625 C 102.859375 98.679688 102.820312 98.800781 102.421875 99.398438 L 100.226562 102.429688 " fill-opacity="1" fill-rule="nonzero"/><g clip-path="url(#e219aab661)"><g transform="matrix(1, 0, 0, 1, 131, 40)"><g clip-path="url(#91b775e619)"><g fill="#f3f3f7" fill-opacity="1"><g transform="translate(0.92405, 51.934088)"><g><path d="M 75.34375 -32.671875 C 75.34375 -34.335938 74.789062 -35.71875 73.6875 -36.8125 C 72.59375 -37.914062 71.210938 -38.46875 69.546875 -38.46875 L 18.703125 -38.46875 C 17.078125 -38.46875 15.703125 -37.914062 14.578125 -36.8125 C 13.460938 -35.71875 12.90625 -34.335938 12.90625 -32.671875 L 12.90625 -26.875 L 75.34375 -26.875 Z M 5.265625 0 L 5.265625 -32.671875 C 5.265625 -35.253906 5.847656 -37.554688 7.015625 -39.578125 C 8.179688 -41.597656 9.769531 -43.1875 11.78125 -44.34375 C 13.800781 -45.507812 16.109375 -46.09375 18.703125 -46.09375 L 69.546875 -46.09375 C 72.140625 -46.09375 74.445312 -45.507812 76.46875 -44.34375 C 78.488281 -43.1875 80.078125 -41.597656 81.234375 -39.578125 C 82.398438 -37.554688 82.984375 -35.253906 82.984375 -32.671875 L 82.984375 0 L 75.34375 0 L 75.34375 -19.234375 L 12.90625 -19.234375 L 12.90625 0 Z M 5.265625 0 "/></g></g></g><g fill="#f3f3f7" fill-opacity="1"><g transform="translate(89.16526, 51.934088)"><g><path d="M 5.265625 -32.671875 C 5.265625 -35.253906 5.847656 -37.554688 7.015625 -39.578125 C 8.179688 -41.597656 9.769531 -43.1875 11.78125 -44.34375 C 13.800781 -45.507812 16.109375 -46.09375 18.703125 -46.09375 L 82.984375 -46.09375 L 82.984375 -38.46875 L 18.703125 -38.46875 C 17.078125 -38.46875 15.703125 -37.914062 14.578125 -36.8125 C 13.460938 -35.71875 12.90625 -34.335938 12.90625 -32.671875 L 12.90625 -26.875 L 82.984375 -26.875 L 82.984375 -19.234375 L 12.90625 -19.234375 L 12.90625 -13.4375 C 12.90625 -11.8125 13.460938 -10.4375 14.578125 -9.3125 C 15.703125 -8.195312 17.078125 -7.640625 18.703125 -7.640625 L 82.984375 -7.640625 L 82.984375 0 L 18.703125 0 C 16.109375 0 13.800781 -0.578125 11.78125 -1.734375 C 9.769531 -2.898438 8.179688 -4.492188 7.015625 -6.515625 C 5.847656 -8.535156 5.265625 -10.84375 5.265625 -13.4375 Z M 5.265625 -32.671875 "/></g></g></g><g fill="#f3f3f7" fill-opacity="1"><g transform="translate(177.40647, 51.934088)"><g><path d="M 69.546875 -46.09375 C 72.140625 -46.09375 74.445312 -45.507812 76.46875 -44.34375 C 78.488281 -43.1875 80.078125 -41.597656 81.234375 -39.578125 C 82.398438 -37.554688 82.984375 -35.253906 82.984375 -32.671875 L 82.984375 -13.4375 C 82.984375 -10.84375 82.398438 -8.535156 81.234375 -6.515625 C 80.078125 -4.492188 78.488281 -2.898438 76.46875 -1.734375 C 74.445312 -0.578125 72.140625 0 69.546875 0 L 18.703125 0 C 16.109375 0 13.800781 -0.578125 11.78125 -1.734375 C 9.769531 -2.898438 8.179688 -4.492188 7.015625 -6.515625 C 5.847656 -8.535156 5.265625 -10.84375 5.265625 -13.4375 L 5.265625 -32.671875 C 5.265625 -35.253906 5.847656 -37.554688 7.015625 -39.578125 C 8.179688 -41.597656 9.769531 -43.1875 11.78125 -44.34375 C 13.800781 -45.507812 16.109375 -46.09375 18.703125 -46.09375 Z M 12.90625 -13.4375 C 12.90625 -11.8125 13.460938 -10.4375 14.578125 -9.3125 C 15.703125 -8.195312 17.078125 -7.640625 18.703125 -7.640625 L 69.546875 -7.640625 C 71.210938 -7.640625 72.59375 -8.195312 73.6875 -9.3125 C 74.789062 -10.4375 75.34375 -11.8125 75.34375 -13.4375 L 75.34375 -32.671875 C 75.34375 -34.335938 74.789062 -35.71875 73.6875 -36.8125 C 72.59375 -37.914062 71.210938 -38.46875 69.546875 -38.46875 L 18.703125 -38.46875 C 17.078125 -38.46875 15.703125 -37.914062 14.578125 -36.8125 C 13.460938 -35.71875 12.90625 -34.335938 12.90625 -32.671875 Z M 12.90625 -13.4375 "/></g></g></g><g fill="#f3f3f7" fill-opacity="1"><g transform="translate(265.64768, 51.934088)"><g><path d="M 75.34375 -32.671875 C 75.34375 -34.335938 74.789062 -35.71875 73.6875 -36.8125 C 72.59375 -37.914062 71.210938 -38.46875 69.546875 -38.46875 L 18.703125 -38.46875 C 17.078125 -38.46875 15.703125 -37.914062 14.578125 -36.8125 C 13.460938 -35.71875 12.90625 -34.335938 12.90625 -32.671875 L 12.90625 0 L 5.265625 0 L 5.265625 -32.671875 C 5.265625 -35.253906 5.847656 -37.554688 7.015625 -39.578125 C 8.179688 -41.597656 9.769531 -43.1875 11.78125 -44.34375 C 13.800781 -45.507812 16.109375 -46.09375 18.703125 -46.09375 L 69.546875 -46.09375 C 72.140625 -46.09375 74.445312 -45.507812 76.46875 -44.34375 C 78.488281 -43.1875 80.078125 -41.597656 81.234375 -39.578125 C 82.398438 -37.554688 82.984375 -35.253906 82.984375 -32.671875 L 82.984375 0 L 75.34375 0 Z M 75.34375 -32.671875 "/></g></g></g><g fill="#f3f3f7" fill-opacity="1"><g transform="translate(353.88889, 51.934088)"><g><path d="M 69.546875 -26.875 C 72.140625 -26.875 74.445312 -26.289062 76.46875 -25.125 C 78.488281 -23.957031 80.078125 -22.363281 81.234375 -20.34375 C 82.398438 -18.332031 82.984375 -16.03125 82.984375 -13.4375 C 82.984375 -10.84375 82.398438 -8.535156 81.234375 -6.515625 C 80.078125 -4.492188 78.488281 -2.898438 76.46875 -1.734375 C 74.445312 -0.578125 72.140625 0 69.546875 0 L 7.25 0 L 7.25 -7.640625 L 69.546875 -7.640625 C 71.210938 -7.640625 72.59375 -8.195312 73.6875 -9.3125 C 74.789062 -10.4375 75.34375 -11.8125 75.34375 -13.4375 C 75.34375 -15.101562 74.789062 -16.484375 73.6875 -17.578125 C 72.59375 -18.679688 71.210938 -19.234375 69.546875 -19.234375 L 18.703125 -19.234375 C 16.109375 -19.234375 13.800781 -19.8125 11.78125 -20.96875 C 9.769531 -22.132812 8.179688 -23.726562 7.015625 -25.75 C 5.847656 -27.769531 5.265625 -30.078125 5.265625 -32.671875 C 5.265625 -35.253906 5.847656 -37.554688 7.015625 -39.578125 C 8.179688 -41.597656 9.769531 -43.1875 11.78125 -44.34375 C 13.800781 -45.507812 16.109375 -46.09375 18.703125 -46.09375 L 81 -46.09375 L 81 -38.46875 L 18.703125 -38.46875 C 17.078125 -38.46875 15.703125 -37.914062 14.578125 -36.8125 C 13.460938 -35.71875 12.90625 -34.335938 12.90625 -32.671875 C 12.90625 -31.046875 13.460938 -29.671875 14.578125 -28.546875 C 15.703125 -27.429688 17.078125 -26.875 18.703125 -26.875 Z M 69.546875 -26.875 "/></g></g></g><g fill="#f3f3f7" fill-opacity="1"><g transform="translate(442.130101, 51.934088)"><g><path d="M 75.34375 -32.671875 C 75.34375 -34.335938 74.789062 -35.71875 73.6875 -36.8125 C 72.59375 -37.914062 71.210938 -38.46875 69.546875 -38.46875 L 18.703125 -38.46875 C 17.078125 -38.46875 15.703125 -37.914062 14.578125 -36.8125 C 13.460938 -35.71875 12.90625 -34.335938 12.90625 -32.671875 L 12.90625 -26.875 L 75.34375 -26.875 Z M 5.265625 0 L 5.265625 -32.671875 C 5.265625 -35.253906 5.847656 -37.554688 7.015625 -39.578125 C 8.179688 -41.597656 9.769531 -43.1875 11.78125 -44.34375 C 13.800781 -45.507812 16.109375 -46.09375 18.703125 -46.09375 L 69.546875 -46.09375 C 72.140625 -46.09375 74.445312 -45.507812 76.46875 -44.34375 C 78.488281 -43.1875 80.078125 -41.597656 81.234375 -39.578125 C 82.398438 -37.554688 82.984375 -35.253906 82.984375 -32.671875 L 82.984375 0 L 75.34375 0 L 75.34375 -19.234375 L 12.90625 -19.234375 L 12.90625 0 Z M 5.265625 0 "/></g></g></g><g fill="#f3f3f7" fill-opacity="1"><g transform="translate(530.371311, 51.934088)"><g><path d="M 50.046875 -19.234375 L 50.046875 -26.875 L 82.984375 -26.875 L 82.984375 -13.4375 C 82.984375 -10.84375 82.398438 -8.535156 81.234375 -6.515625 C 80.078125 -4.492188 78.488281 -2.898438 76.46875 -1.734375 C 74.445312 -0.578125 72.140625 0 69.546875 0 L 18.703125 0 C 16.109375 0 13.800781 -0.578125 11.78125 -1.734375 C 9.769531 -2.898438 8.179688 -4.492188 7.015625 -6.515625 C 5.847656 -8.535156 5.265625 -10.84375 5.265625 -13.4375 L 5.265625 -32.921875 C 5.304688 -35.472656 5.910156 -37.734375 7.078125 -39.703125 C 8.242188 -41.679688 9.835938 -43.238281 11.859375 -44.375 C 13.878906 -45.519531 16.160156 -46.09375 18.703125 -46.09375 L 69.546875 -46.09375 C 72.140625 -46.09375 74.445312 -45.507812 76.46875 -44.34375 C 78.488281 -43.1875 80.078125 -41.597656 81.234375 -39.578125 C 82.398438 -37.554688 82.984375 -35.253906 82.984375 -32.671875 L 75.34375 -32.671875 C 75.34375 -34.335938 74.789062 -35.71875 73.6875 -36.8125 C 72.59375 -37.914062 71.210938 -38.46875 69.546875 -38.46875 L 18.703125 -38.46875 C 17.078125 -38.46875 15.703125 -37.914062 14.578125 -36.8125 C 13.460938 -35.71875 12.90625 -34.335938 12.90625 -32.671875 L 12.90625 -13.4375 C 12.90625 -11.8125 13.460938 -10.4375 14.578125 -9.3125 C 15.703125 -8.195312 17.078125 -7.640625 18.703125 -7.640625 L 69.546875 -7.640625 C 71.210938 -7.640625 72.59375 -8.195312 73.6875 -9.3125 C 74.789062 -10.4375 75.34375 -11.8125 75.34375 -13.4375 L 75.34375 -19.234375 Z M 50.046875 -19.234375 "/></g></g></g><g fill="#f3f3f7" fill-opacity="1"><g transform="translate(618.612521, 51.934088)"><g><path d="M 5.265625 -32.671875 C 5.265625 -35.253906 5.847656 -37.554688 7.015625 -39.578125 C 8.179688 -41.597656 9.769531 -43.1875 11.78125 -44.34375 C 13.800781 -45.507812 16.109375 -46.09375 18.703125 -46.09375 L 82.984375 -46.09375 L 82.984375 -38.46875 L 18.703125 -38.46875 C 17.078125 -38.46875 15.703125 -37.914062 14.578125 -36.8125 C 13.460938 -35.71875 12.90625 -34.335938 12.90625 -32.671875 L 12.90625 -26.875 L 82.984375 -26.875 L 82.984375 -19.234375 L 12.90625 -19.234375 L 12.90625 -13.4375 C 12.90625 -11.8125 13.460938 -10.4375 14.578125 -9.3125 C 15.703125 -8.195312 17.078125 -7.640625 18.703125 -7.640625 L 82.984375 -7.640625 L 82.984375 0 L 18.703125 0 C 16.109375 0 13.800781 -0.578125 11.78125 -1.734375 C 9.769531 -2.898438 8.179688 -4.492188 7.015625 -6.515625 C 5.847656 -8.535156 5.265625 -10.84375 5.265625 -13.4375 Z M 5.265625 -32.671875 "/></g></g></g></g></g></g></g></g></svg>