<svg xmlns="http://www.w3.org/2000/svg" xmlns:xlink="http://www.w3.org/1999/xlink" width="200" zoomAndPan="magnify" viewBox="0 0 150 149.999998" height="200" preserveAspectRatio="xMidYMid meet" version="1.0"><path fill="#d9d9d9" d="M 79.613281 1.109375 C 78.128906 0.878906 76.628906 0.753906 75.144531 0.511719 C 75.292969 0.488281 76.558594 0.625 77.375 0.730469 C 79.140625 0.964844 80.910156 1.261719 82.679688 1.628906 C 83.898438 1.878906 84.867188 2.113281 84.976562 2.136719 C 83.847656 1.878906 82.0625 1.488281 79.613281 1.109375 " fill-opacity="1" fill-rule="nonzero"/><path fill="#d9d9d9" d="M 61.070312 0.570312 C 56.351562 1.011719 56.351562 1.011719 56.28125 1.007812 C 56.316406 0.953125 56.339844 0.917969 57.058594 0.792969 C 59.910156 0.394531 62.792969 0.160156 65.707031 0.0898438 C 66.179688 0.0976562 66.523438 0.101562 66.621094 0.128906 C 66.511719 0.160156 66.488281 0.164062 65.519531 0.226562 C 64.488281 0.292969 63.078125 0.382812 61.070312 0.570312 " fill-opacity="1" fill-rule="nonzero"/><path fill="#d9d9d9" d="M 71.25 0.46875 C 66.710938 0.351562 66.710938 0.351562 66.699219 0.347656 C 68.292969 0.00390625 75.242188 0.441406 76.328125 0.714844 C 74.625 0.804688 72.945312 0.511719 71.25 0.46875 " fill-opacity="1" fill-rule="nonzero"/><path fill="#d9d9d9" d="M 81.136719 1.445312 C 79.824219 1.242188 78.5 1.136719 77.1875 0.921875 C 77.320312 0.90625 80.335938 1.101562 85.277344 2.210938 C 84.71875 2.085938 83.238281 1.761719 81.136719 1.445312 " fill-opacity="1" fill-rule="nonzero"/><path fill="#d9d9d9" d="M 43.339844 4.453125 C 40.460938 5.441406 38.9375 5.960938 38.476562 5.984375 C 38.46875 5.972656 38.457031 5.953125 38.449219 5.9375 C 38.515625 5.878906 38.535156 5.863281 38.648438 5.796875 C 41.867188 4.46875 45.179688 3.355469 48.574219 2.476562 C 48.792969 2.449219 48.804688 2.449219 48.859375 2.46875 C 48.707031 2.605469 48.707031 2.605469 43.339844 4.453125 " fill-opacity="1" fill-rule="nonzero"/><path fill="#d9d9d9" d="M 53.378906 2.265625 C 50.394531 2.933594 48.804688 3.25 48.4375 3.144531 C 48.4375 3.125 48.441406 3.09375 48.441406 3.070312 C 49.605469 2.191406 57.367188 0.734375 58.410156 1.027344 C 58.347656 1.152344 58.019531 1.234375 53.378906 2.265625 " fill-opacity="1" fill-rule="nonzero"/><path fill="#d9d9d9" d="M 63.679688 1.125 C 61.050781 1.414062 59.464844 1.585938 59.042969 1.476562 C 59.035156 1.460938 59.03125 1.4375 59.023438 1.421875 C 59.992188 0.78125 67.195312 0.320312 68.25 0.582031 C 68.160156 0.636719 68.160156 0.636719 63.679688 1.125 " fill-opacity="1" fill-rule="nonzero"/><path fill="#d9d9d9" d="M 73.636719 0.972656 C 69.769531 0.9375 69.769531 0.9375 69.59375 0.898438 C 69.976562 0.472656 76.832031 0.859375 77.773438 1.078125 C 76.390625 1.183594 75.015625 0.984375 73.636719 0.972656 " fill-opacity="1" fill-rule="nonzero"/><path fill="#d9d9d9" d="M 82.667969 1.761719 C 81.585938 1.605469 80.488281 1.59375 79.417969 1.351562 C 79.570312 1.34375 81.664062 1.464844 85.277344 2.210938 C 84.671875 2.089844 83.828125 1.929688 82.667969 1.761719 " fill-opacity="1" fill-rule="nonzero"/><path fill="#d9d9d9" d="M 27.132812 12.328125 C 23.085938 14.886719 22.65625 14.96875 22.496094 15 C 22.488281 14.984375 22.476562 14.960938 22.46875 14.941406 C 25.59375 12.628906 28.894531 10.558594 32.335938 8.75 L 32.367188 8.765625 C 32.28125 8.902344 32.105469 9.183594 27.132812 12.328125 " fill-opacity="1" fill-rule="nonzero"/><path fill="#d9d9d9" d="M 36.566406 8.246094 C 33.347656 9.808594 31.292969 10.53125 31.457031 10.046875 C 31.816406 8.96875 40.113281 5.105469 41.316406 5.457031 C 41.324219 5.46875 41.335938 5.488281 41.347656 5.5 C 41.222656 5.957031 37.652344 7.71875 36.566406 8.246094 " fill-opacity="1" fill-rule="nonzero"/><path fill="#d9d9d9" d="M 46.785156 5.183594 C 42.917969 6.589844 41.410156 6.742188 41.648438 6.289062 C 42.183594 5.273438 49.6875 2.773438 51.09375 3.144531 C 51.109375 3.15625 51.125 3.167969 51.140625 3.179688 C 51.171875 3.558594 47.816406 4.808594 46.785156 5.183594 " fill-opacity="1" fill-rule="nonzero"/><path fill="#d9d9d9" d="M 57.214844 3.074219 C 53.410156 4.046875 52.242188 4.019531 52.394531 3.699219 C 52.769531 2.914062 59.609375 1.382812 61.105469 1.753906 C 61.121094 1.757812 61.140625 1.769531 61.152344 1.777344 C 61.128906 1.859375 61.054688 2.09375 57.214844 3.074219 " fill-opacity="1" fill-rule="nonzero"/><path fill="#d9d9d9" d="M 67.273438 1.871094 C 65.402344 2.148438 63.234375 2.429688 63.066406 2.160156 C 63.308594 1.496094 69.671875 0.957031 70.765625 1.214844 C 70.777344 1.21875 70.789062 1.226562 70.800781 1.230469 C 70.734375 1.304688 70.679688 1.367188 67.273438 1.871094 " fill-opacity="1" fill-rule="nonzero"/><path fill="#d9d9d9" d="M 76.386719 1.527344 C 73.648438 1.601562 73.226562 1.613281 73.03125 1.519531 C 73.230469 1.125 78.585938 1.277344 79.488281 1.476562 C 79.414062 1.496094 79.414062 1.496094 78.953125 1.496094 C 78.371094 1.496094 77.644531 1.496094 76.386719 1.527344 " fill-opacity="1" fill-rule="nonzero"/><path fill="#d9d9d9" d="M 84 2.015625 C 83.203125 1.914062 82.394531 1.917969 81.605469 1.753906 C 81.734375 1.734375 83.039062 1.804688 85.277344 2.210938 C 85.066406 2.171875 84.621094 2.097656 84 2.015625 " fill-opacity="1" fill-rule="nonzero"/><path fill="#d9d9d9" d="M 21.511719 17.984375 C 18.675781 20.269531 16.503906 21.515625 16.566406 20.816406 C 16.703125 19.363281 24.488281 13.246094 25.722656 13.625 C 26.175781 14.210938 21.558594 17.945312 21.511719 17.984375 " fill-opacity="1" fill-rule="nonzero"/><path fill="#d9d9d9" d="M 31.148438 13.175781 C 28.125 15.132812 25.652344 16.050781 25.753906 15.179688 C 25.929688 13.644531 33.328125 9.15625 34.957031 9.597656 C 35.625 10.078125 32.433594 12.34375 31.148438 13.175781 " fill-opacity="1" fill-rule="nonzero"/><path fill="#d9d9d9" d="M 41.539062 9.300781 C 38.167969 11.066406 35.898438 11.445312 36.121094 10.601562 C 36.503906 9.152344 43.203125 6.035156 44.96875 6.480469 C 45.90625 7.003906 41.582031 9.277344 41.539062 9.300781 " fill-opacity="1" fill-rule="nonzero"/><path fill="#d9d9d9" d="M 52.117188 6.300781 C 48.804688 7.6875 46.65625 7.839844 47.082031 7.039062 C 47.738281 5.808594 53.492188 3.800781 55.1875 4.207031 C 56.066406 4.632812 52.28125 6.230469 52.117188 6.300781 " fill-opacity="1" fill-rule="nonzero"/><path fill="#d9d9d9" d="M 62.300781 4.121094 C 59.371094 5.070312 57.539062 5.125 57.917969 4.539062 C 58.535156 3.59375 63.664062 2.402344 65.019531 2.714844 C 65.140625 2.769531 65.511719 2.933594 63.527344 3.691406 C 63.261719 3.789062 62.835938 3.949219 62.300781 4.121094 " fill-opacity="1" fill-rule="nonzero"/><path fill="#d9d9d9" d="M 71.519531 2.722656 C 68.722656 3.34375 67.871094 3.195312 67.988281 2.957031 C 68.285156 2.363281 72.746094 1.691406 73.902344 1.949219 C 73.921875 1.957031 73.949219 1.976562 73.964844 1.992188 C 73.863281 2.140625 73.039062 2.382812 71.519531 2.722656 " fill-opacity="1" fill-rule="nonzero"/><path fill="#d9d9d9" d="M 79.234375 2.078125 C 78.117188 2.1875 76.851562 2.304688 76.699219 2.15625 C 76.738281 1.824219 80.542969 1.71875 81.289062 1.871094 C 81.28125 1.882812 81.28125 1.882812 79.234375 2.078125 " fill-opacity="1" fill-rule="nonzero"/><path fill="#d9d9d9" d="M 84.949219 2.171875 C 84.5625 2.132812 84.21875 2.117188 83.886719 2.09375 C 83.609375 2.082031 83.503906 2.074219 83.445312 2.0625 C 83.53125 2.035156 84.253906 2.0625 85.277344 2.210938 C 85.167969 2.195312 85.058594 2.183594 84.949219 2.171875 " fill-opacity="1" fill-rule="nonzero"/><path fill="#d9d9d9" d="M 17.480469 24.667969 C 14.820312 27.378906 12.289062 28.78125 12.167969 27.605469 C 11.992188 25.8125 18.433594 18.96875 20.527344 19.542969 C 21.375 20.148438 19.109375 23.007812 17.480469 24.667969 " fill-opacity="1" fill-rule="nonzero"/><path fill="#d9d9d9" d="M 27.289062 19.203125 C 24.039062 21.929688 21.289062 22.570312 21.527344 21.078125 C 21.886719 18.816406 28.007812 14.339844 30.03125 14.859375 C 31.101562 15.445312 28.917969 17.835938 27.289062 19.203125 " fill-opacity="1" fill-rule="nonzero"/><path fill="#d9d9d9" d="M 37.839844 14.582031 C 34.722656 16.796875 31.929688 17.234375 32.039062 15.957031 C 32.199219 14.042969 38.132812 10.484375 40.28125 11.011719 C 41.417969 11.542969 39.386719 13.484375 37.839844 14.582031 " fill-opacity="1" fill-rule="nonzero"/><path fill="#d9d9d9" d="M 48.566406 10.757812 C 45.566406 12.589844 42.824219 12.800781 43.15625 11.566406 C 43.589844 9.945312 48.75 7.464844 50.714844 7.925781 C 51.917969 8.4375 49.570312 10.144531 48.566406 10.757812 " fill-opacity="1" fill-rule="nonzero"/><path fill="#d9d9d9" d="M 58.890625 7.679688 C 56.207031 9.097656 53.878906 9.1875 54.160156 8.214844 C 54.519531 6.972656 59.015625 5.15625 60.75 5.554688 C 61.761719 5.953125 59.75 7.222656 58.890625 7.679688 " fill-opacity="1" fill-rule="nonzero"/><path fill="#d9d9d9" d="M 68.246094 5.304688 C 66.050781 6.300781 64.179688 6.339844 64.433594 5.640625 C 64.78125 4.6875 68.554688 3.554688 69.828125 3.832031 C 70.570312 4.109375 68.9375 4.988281 68.246094 5.304688 " fill-opacity="1" fill-rule="nonzero"/><path fill="#ff751f" d="M 76.101562 3.605469 C 74.289062 4.285156 73.125 4.207031 73.351562 3.792969 C 73.707031 3.164062 76.601562 2.558594 77.414062 2.730469 C 77.503906 2.761719 77.773438 2.863281 76.753906 3.332031 C 76.613281 3.394531 76.390625 3.492188 76.101562 3.605469 " fill-opacity="1" fill-rule="nonzero"/><path fill="#d9d9d9" d="M 81.960938 2.570312 C 80.46875 2.957031 80.214844 2.789062 80.292969 2.683594 C 80.527344 2.363281 82.570312 2.140625 83.019531 2.226562 C 83.023438 2.226562 83.03125 2.230469 83.035156 2.230469 C 83.035156 2.238281 83.035156 2.246094 83.035156 2.25 C 82.9375 2.3125 82.121094 2.523438 81.960938 2.570312 " fill-opacity="1" fill-rule="nonzero"/><path fill="#d9d9d9" d="M 85.265625 2.210938 C 85.171875 2.214844 85.078125 2.21875 84.984375 2.226562 C 84.839844 2.234375 84.738281 2.242188 84.71875 2.230469 C 84.734375 2.214844 84.941406 2.195312 85.277344 2.210938 C 85.273438 2.210938 85.269531 2.210938 85.265625 2.210938 " fill-opacity="1" fill-rule="nonzero"/><path fill="#d9d9d9" d="M 15.152344 32.332031 C 12.511719 35.730469 9.476562 37.113281 9.355469 34.972656 C 9.203125 32.261719 14.464844 25.839844 16.960938 26.484375 C 18.359375 27.25 16.59375 30.476562 15.152344 32.332031 " fill-opacity="1" fill-rule="nonzero"/><path fill="#d9d9d9" d="M 25.105469 26.265625 C 22.253906 29.320312 18.792969 30.296875 18.828125 28.035156 C 18.863281 25.492188 24.039062 20.546875 26.703125 21.207031 C 28.285156 21.945312 26.5625 24.703125 25.105469 26.265625 " fill-opacity="1" fill-rule="nonzero"/><path fill="#d9d9d9" d="M 35.800781 20.972656 C 33.050781 23.53125 29.582031 24.261719 29.507812 22.296875 C 29.425781 20.113281 34.449219 16.03125 37.1875 16.6875 C 38.800781 17.363281 37.191406 19.675781 35.800781 20.972656 " fill-opacity="1" fill-rule="nonzero"/><path fill="#ff751f" d="M 46.675781 16.398438 C 44.054688 18.59375 40.582031 19.035156 40.777344 17.152344 C 40.988281 15.097656 45.546875 12.332031 47.84375 12.863281 C 49.363281 13.453125 47.933594 15.34375 46.675781 16.398438 " fill-opacity="1" fill-rule="nonzero"/><path fill="#d9d9d9" d="M 57.15625 12.492188 C 54.726562 14.375 51.847656 14.445312 51.964844 13.027344 C 52.101562 11.378906 56.0625 9.21875 58.109375 9.675781 C 59.429688 10.160156 58.226562 11.660156 57.15625 12.492188 " fill-opacity="1" fill-rule="nonzero"/><path fill="#d9d9d9" d="M 66.675781 9.210938 C 64.714844 10.671875 62.359375 10.707031 62.433594 9.59375 C 62.523438 8.335938 65.734375 6.710938 67.414062 7.078125 C 68.472656 7.445312 67.523438 8.582031 66.675781 9.210938 " fill-opacity="1" fill-rule="nonzero"/><path fill="#d9d9d9" d="M 74.707031 6.535156 C 73.28125 7.589844 71.503906 7.617188 71.558594 6.8125 C 71.617188 5.941406 74.027344 4.769531 75.242188 5.023438 C 75.992188 5.277344 75.308594 6.082031 74.707031 6.535156 " fill-opacity="1" fill-rule="nonzero"/><path fill="#d9d9d9" d="M 80.75 4.445312 C 79.878906 5.140625 78.707031 5.171875 78.746094 4.652344 C 78.789062 4.058594 80.382812 3.363281 81.09375 3.503906 C 81.578125 3.664062 80.992188 4.25 80.75 4.445312 " fill-opacity="1" fill-rule="nonzero"/><path fill="#d9d9d9" d="M 84.371094 2.960938 C 83.976562 3.382812 83.488281 3.351562 83.464844 3.144531 C 83.433594 2.835938 84.300781 2.46875 84.550781 2.511719 C 84.71875 2.570312 84.375 2.957031 84.371094 2.960938 " fill-opacity="1" fill-rule="nonzero"/><path fill="#d9d9d9" d="M 85.28125 2.21875 C 85.285156 2.234375 85.28125 2.246094 85.277344 2.246094 C 85.277344 2.246094 85.265625 2.242188 85.277344 2.210938 C 85.277344 2.214844 85.28125 2.214844 85.28125 2.21875 " fill-opacity="1" fill-rule="nonzero"/><path fill="#ff751f" d="M 14.570312 40.898438 C 12.300781 44.597656 9.003906 46.042969 8.273438 43.660156 C 7.34375 40.628906 11.925781 33.59375 15.113281 34.386719 C 16.964844 35.253906 15.910156 38.714844 14.570312 40.898438 " fill-opacity="1" fill-rule="nonzero"/><path fill="#d9d9d9" d="M 24.628906 34.296875 C 22.128906 37.6875 18.367188 38.726562 17.800781 36.179688 C 17.140625 33.226562 21.714844 27.765625 25.070312 28.574219 C 27.058594 29.40625 26.007812 32.421875 24.628906 34.296875 " fill-opacity="1" fill-rule="nonzero"/><path fill="#d9d9d9" d="M 35.453125 28.394531 C 32.933594 31.414062 28.886719 32.09375 28.582031 29.546875 C 28.265625 26.933594 32.65625 22.722656 35.773438 23.449219 C 37.761719 24.21875 36.78125 26.804688 35.453125 28.394531 " fill-opacity="1" fill-rule="nonzero"/><path fill="#d9d9d9" d="M 46.484375 23.140625 C 44.074219 25.816406 40.007812 26.179688 39.996094 23.71875 C 39.984375 21.441406 43.835938 18.308594 46.664062 18.953125 C 48.535156 19.632812 47.683594 21.8125 46.484375 23.140625 " fill-opacity="1" fill-rule="nonzero"/><path fill="#d9d9d9" d="M 57.136719 18.480469 C 54.910156 20.878906 51.457031 20.8125 51.386719 18.902344 C 51.316406 17.019531 54.648438 14.46875 57.171875 15.023438 C 58.828125 15.597656 58.148438 17.390625 57.136719 18.480469 " fill-opacity="1" fill-rule="nonzero"/><path fill="#d9d9d9" d="M 66.851562 14.371094 C 65.128906 16.285156 62.207031 16.222656 62.078125 14.695312 C 61.957031 13.230469 64.675781 11.171875 66.738281 11.613281 C 68.121094 12.070312 67.636719 13.503906 66.851562 14.371094 " fill-opacity="1" fill-rule="nonzero"/><path fill="#d9d9d9" d="M 75.089844 10.792969 C 73.867188 12.3125 71.621094 12.269531 71.4375 11.058594 C 71.257812 9.84375 73.351562 8.378906 74.835938 8.683594 C 75.902344 9.027344 75.625 10.125 75.089844 10.792969 " fill-opacity="1" fill-rule="nonzero"/><path fill="#d9d9d9" d="M 81.359375 7.730469 C 80.699219 8.84375 79.105469 8.839844 78.882812 7.964844 C 78.660156 7.09375 79.957031 6.019531 80.984375 6.21875 C 81.722656 6.449219 81.648438 7.242188 81.359375 7.730469 " fill-opacity="1" fill-rule="nonzero"/><path fill="#d9d9d9" d="M 85.222656 5.195312 C 85.09375 5.871094 84.3125 5.996094 83.964844 5.546875 C 83.554688 5.003906 84.132812 4.140625 84.695312 4.210938 C 84.710938 4.210938 84.734375 4.21875 84.75 4.21875 C 85.175781 4.351562 85.285156 4.878906 85.222656 5.195312 " fill-opacity="1" fill-rule="nonzero"/><path fill="#d9d9d9" d="M 86.289062 3.21875 C 86.46875 3.488281 86.421875 3.648438 86.265625 3.609375 C 85.90625 3.527344 85.640625 2.796875 85.730469 2.710938 C 85.742188 2.703125 85.753906 2.707031 85.761719 2.707031 C 85.871094 2.742188 86.144531 2.996094 86.289062 3.21875 " fill-opacity="1" fill-rule="nonzero"/><path fill="#d9d9d9" d="M 15.695312 50.265625 C 13.6875 54.425781 9.878906 55.796875 8.789062 52.757812 C 7.488281 49.132812 11.265625 42.269531 15.011719 43.167969 C 17.367188 44.164062 16.832031 47.917969 15.695312 50.265625 " fill-opacity="1" fill-rule="nonzero"/><path fill="#d9d9d9" d="M 25.828125 43.195312 C 23.546875 47.085938 19.21875 48.011719 18.351562 44.792969 C 17.4375 41.390625 21.410156 36.003906 25.144531 36.875 C 27.609375 37.832031 27.027344 41.148438 25.828125 43.195312 " fill-opacity="1" fill-rule="nonzero"/><path fill="#d9d9d9" d="M 36.773438 36.761719 C 34.433594 40.308594 29.78125 40.839844 29.234375 37.621094 C 28.722656 34.621094 32.582031 30.421875 36.054688 31.210938 C 38.488281 32.101562 37.941406 34.992188 36.773438 36.761719 " fill-opacity="1" fill-rule="nonzero"/><path fill="#d9d9d9" d="M 47.960938 30.894531 C 45.816406 33.96875 41.433594 34.363281 40.855469 31.539062 C 40.324219 28.949219 43.890625 25.378906 47.175781 26.109375 C 49.46875 26.902344 49.015625 29.386719 47.960938 30.894531 " fill-opacity="1" fill-rule="nonzero"/><path fill="#d9d9d9" d="M 58.808594 25.554688 C 57.027344 28.121094 53.054688 28.429688 52.464844 26.050781 C 51.917969 23.859375 54.996094 20.875 57.941406 21.507812 C 60.003906 22.1875 59.6875 24.285156 58.808594 25.554688 " fill-opacity="1" fill-rule="nonzero"/><path fill="#d9d9d9" d="M 68.742188 20.691406 C 67.296875 22.96875 63.71875 23.078125 63.347656 20.855469 C 63.054688 19.085938 65.429688 16.863281 67.796875 17.355469 C 69.554688 17.917969 69.40625 19.644531 68.742188 20.691406 " fill-opacity="1" fill-rule="nonzero"/><path fill="#d9d9d9" d="M 77.226562 16.289062 C 76.292969 18.121094 73.4375 18.230469 72.984375 16.449219 C 72.625 15.035156 74.320312 13.246094 76.207031 13.625 C 77.625 14.0625 77.65625 15.445312 77.226562 16.289062 " fill-opacity="1" fill-rule="nonzero"/><path fill="#d9d9d9" d="M 83.761719 12.328125 C 83.332031 13.789062 81.398438 13.800781 80.800781 12.652344 C 80.238281 11.582031 81.253906 10.011719 82.683594 10.289062 C 83.75 10.605469 83.957031 11.671875 83.761719 12.328125 " fill-opacity="1" fill-rule="nonzero"/><path fill="#d9d9d9" d="M 87.828125 8.800781 C 87.875 9.722656 87.011719 9.941406 86.367188 9.402344 C 85.550781 8.714844 85.773438 7.417969 86.523438 7.332031 C 86.621094 7.320312 86.707031 7.335938 86.773438 7.347656 C 87.453125 7.546875 87.808594 8.332031 87.828125 8.800781 " fill-opacity="1" fill-rule="nonzero"/><path fill="#d9d9d9" d="M 89.085938 5.757812 C 89.359375 6.214844 89.25 6.453125 88.972656 6.390625 C 88.371094 6.257812 87.667969 5.027344 87.9375 4.824219 C 87.976562 4.796875 88.019531 4.800781 88.066406 4.808594 C 88.390625 4.90625 88.863281 5.382812 89.085938 5.757812 " fill-opacity="1" fill-rule="nonzero"/><path fill="#d9d9d9" d="M 87.488281 3.300781 C 87.726562 3.453125 87.992188 3.636719 88.023438 3.714844 C 88.019531 3.714844 88.015625 3.722656 88.011719 3.722656 C 87.828125 3.703125 86.519531 2.796875 86.507812 2.789062 C 86.507812 2.785156 86.511719 2.785156 86.511719 2.785156 C 86.59375 2.808594 87.066406 3.042969 87.488281 3.300781 " fill-opacity="1" fill-rule="nonzero"/><path fill="#d9d9d9" d="M 18.402344 60.324219 C 16.746094 64.695312 12.6875 66.109375 11.042969 62.886719 C 9.058594 59 12.273438 51.71875 16.585938 52.726562 C 19.40625 53.828125 19.347656 57.832031 18.402344 60.324219 " fill-opacity="1" fill-rule="nonzero"/><path fill="#d9d9d9" d="M 28.585938 52.855469 C 26.644531 56.980469 22.003906 57.941406 20.574219 54.511719 C 19.039062 50.832031 22.597656 45.046875 26.859375 46.019531 C 29.769531 47.082031 29.621094 50.65625 28.585938 52.855469 " fill-opacity="1" fill-rule="nonzero"/><path fill="#d9d9d9" d="M 39.648438 45.949219 C 37.621094 49.761719 32.601562 50.320312 31.507812 46.855469 C 30.472656 43.578125 34.035156 39.003906 37.964844 39.878906 C 40.824219 40.867188 40.667969 44.023438 39.648438 45.949219 " fill-opacity="1" fill-rule="nonzero"/><path fill="#d9d9d9" d="M 51 39.550781 C 49.140625 42.90625 44.398438 43.335938 43.308594 40.25 C 42.300781 37.378906 45.609375 33.429688 49.320312 34.238281 C 52.015625 35.128906 51.925781 37.878906 51 39.550781 " fill-opacity="1" fill-rule="nonzero"/><path fill="#d9d9d9" d="M 62.0625 33.605469 C 60.425781 36.671875 55.832031 36.828125 55.042969 33.84375 C 54.402344 31.417969 57.195312 28.363281 60.367188 29.03125 C 62.804688 29.804688 62.828125 32.171875 62.0625 33.605469 " fill-opacity="1" fill-rule="nonzero"/><path fill="#d9d9d9" d="M 72.25 28.066406 C 71.058594 30.636719 67.085938 30.777344 66.257812 28.277344 C 65.582031 26.234375 67.796875 23.65625 70.53125 24.214844 C 72.644531 24.863281 72.808594 26.859375 72.25 28.066406 " fill-opacity="1" fill-rule="nonzero"/><path fill="#d9d9d9" d="M 81.023438 22.910156 C 80.351562 24.921875 77.367188 25.203125 76.328125 23.351562 C 75.367188 21.648438 76.917969 19.28125 79.285156 19.746094 C 81.035156 20.265625 81.355469 21.910156 81.023438 22.910156 " fill-opacity="1" fill-rule="nonzero"/><path fill="#d9d9d9" d="M 87.753906 18.101562 C 87.550781 19.667969 85.632812 20.03125 84.542969 18.710938 C 83.417969 17.347656 84.300781 15.351562 85.933594 15.574219 C 85.984375 15.578125 86.050781 15.59375 86.101562 15.601562 C 87.414062 15.984375 87.855469 17.292969 87.753906 18.101562 " fill-opacity="1" fill-rule="nonzero"/><path fill="#d9d9d9" d="M 91.914062 13.625 C 92.09375 14.785156 91.089844 15.082031 90.246094 14.417969 C 89.101562 13.511719 89.136719 11.855469 90.054688 11.726562 C 90.175781 11.710938 90.285156 11.730469 90.371094 11.742188 C 91.261719 11.996094 91.820312 13.015625 91.914062 13.625 " fill-opacity="1" fill-rule="nonzero"/><path fill="#d9d9d9" d="M 93.347656 9.574219 C 93.695312 10.199219 93.570312 10.585938 93.078125 10.421875 C 92.199219 10.128906 91.308594 8.511719 91.707031 8.261719 C 91.773438 8.21875 91.839844 8.230469 91.914062 8.242188 C 92.417969 8.382812 93.050781 9.042969 93.347656 9.574219 " fill-opacity="1" fill-rule="nonzero"/><path fill="#d9d9d9" d="M 92.015625 6.0625 C 92.480469 6.460938 92.613281 6.695312 92.476562 6.695312 C 92.15625 6.691406 90.472656 5.308594 90.65625 5.203125 C 90.667969 5.195312 90.683594 5.199219 90.695312 5.203125 C 90.933594 5.265625 91.5625 5.679688 92.015625 6.0625 " fill-opacity="1" fill-rule="nonzero"/><path fill="#d9d9d9" d="M 87.972656 3.230469 C 88.359375 3.402344 88.710938 3.570312 88.785156 3.625 C 88.71875 3.625 86.804688 2.761719 86.789062 2.753906 C 86.882812 2.785156 87.410156 2.984375 87.972656 3.230469 " fill-opacity="1" fill-rule="nonzero"/><path fill="#d9d9d9" d="M 22.496094 70.917969 C 21.085938 75.613281 16.546875 76.765625 14.53125 72.945312 C 12.347656 68.796875 15.167969 61.914062 19.695312 62.941406 C 22.925781 64.132812 23.277344 68.324219 22.496094 70.917969 " fill-opacity="1" fill-rule="nonzero"/><path fill="#d9d9d9" d="M 32.710938 63.140625 C 30.949219 67.710938 25.671875 68.460938 24.027344 64.375 C 22.410156 60.363281 25.589844 54.882812 30.085938 55.878906 C 33.382812 57.03125 33.605469 60.816406 32.710938 63.140625 " fill-opacity="1" fill-rule="nonzero"/><path fill="#d9d9d9" d="M 43.890625 55.839844 C 42.082031 59.957031 36.820312 60.535156 35.222656 56.789062 C 33.722656 53.277344 37.03125 48.382812 41.367188 49.328125 C 44.605469 50.402344 44.792969 53.78125 43.890625 55.839844 " fill-opacity="1" fill-rule="nonzero"/><path fill="#d9d9d9" d="M 55.433594 48.980469 C 53.6875 52.832031 48.277344 53.054688 47.042969 49.328125 C 46.03125 46.269531 49.089844 42.394531 52.96875 43.214844 C 56.03125 44.1875 56.253906 47.171875 55.433594 48.980469 " fill-opacity="1" fill-rule="nonzero"/><path fill="#ff751f" d="M 66.738281 42.503906 C 65.324219 45.816406 60.355469 45.996094 59.140625 42.777344 C 58.132812 40.113281 60.777344 36.746094 64.308594 37.472656 C 67.09375 38.328125 67.40625 40.929688 66.738281 42.503906 " fill-opacity="1" fill-rule="nonzero"/><path fill="#d9d9d9" d="M 77.21875 36.367188 C 76.207031 39.257812 71.921875 39.425781 70.667969 36.621094 C 69.648438 34.339844 71.730469 31.445312 74.8125 32.058594 C 77.257812 32.785156 77.691406 35.015625 77.21875 36.367188 " fill-opacity="1" fill-rule="nonzero"/><path fill="#d9d9d9" d="M 86.191406 30.511719 C 85.6875 32.792969 82.519531 33.136719 81.128906 31.058594 C 79.832031 29.125 81.230469 26.410156 83.914062 26.921875 C 85.902344 27.496094 86.441406 29.367188 86.191406 30.511719 " fill-opacity="1" fill-rule="nonzero"/><path fill="#d9d9d9" d="M 92.933594 24.875 C 92.867188 26.664062 90.816406 27.125 89.507812 25.644531 C 88.191406 24.15625 88.773438 21.902344 90.46875 21.933594 C 90.582031 21.9375 90.734375 21.960938 90.84375 21.980469 C 92.34375 22.40625 92.96875 23.929688 92.933594 24.875 " fill-opacity="1" fill-rule="nonzero"/><path fill="#d9d9d9" d="M 97.183594 19.519531 C 97.429688 20.738281 96.566406 21.296875 95.5 20.601562 C 94.121094 19.703125 93.710938 17.445312 94.890625 17.25 C 95.027344 17.226562 95.164062 17.246094 95.261719 17.265625 C 96.320312 17.558594 97.035156 18.78125 97.183594 19.519531 " fill-opacity="1" fill-rule="nonzero"/><path fill="#d9d9d9" d="M 98.789062 14.527344 C 99.191406 15.296875 99.027344 15.785156 98.429688 15.589844 C 97.300781 15.21875 96.222656 13.214844 96.761719 12.882812 C 96.847656 12.828125 96.9375 12.839844 97.03125 12.855469 C 97.667969 13.027344 98.441406 13.859375 98.789062 14.527344 " fill-opacity="1" fill-rule="nonzero"/><path fill="#d9d9d9" d="M 97.707031 10.023438 C 98.164062 10.496094 98.332031 10.851562 98.101562 10.847656 C 97.617188 10.839844 95.796875 9.101562 96.027344 8.867188 C 96.050781 8.847656 96.089844 8.851562 96.125 8.855469 C 96.496094 8.957031 97.242188 9.539062 97.707031 10.023438 " fill-opacity="1" fill-rule="nonzero"/><path fill="#d9d9d9" d="M 93.996094 6.136719 C 94.109375 6.207031 94.671875 6.554688 94.753906 6.6875 C 94.75 6.691406 94.75 6.699219 94.746094 6.703125 C 94.515625 6.6875 92.644531 5.496094 92.585938 5.402344 C 92.59375 5.402344 92.597656 5.398438 92.601562 5.398438 C 92.777344 5.445312 93.46875 5.8125 93.996094 6.136719 " fill-opacity="1" fill-rule="nonzero"/><path fill="#d9d9d9" d="M 87.820312 3.03125 C 88.226562 3.175781 88.585938 3.3125 88.695312 3.363281 C 88.65625 3.355469 86.667969 2.644531 86.652344 2.636719 C 86.730469 2.660156 87.242188 2.828125 87.820312 3.03125 " fill-opacity="1" fill-rule="nonzero"/><path fill="#d9d9d9" d="M 27.777344 81.554688 C 26.648438 86.074219 21.941406 87.121094 19.519531 83.382812 C 16.742188 79.097656 19.386719 72.820312 23.675781 73.503906 C 23.816406 73.527344 23.996094 73.574219 24.136719 73.605469 C 27.703125 74.855469 28.410156 79.003906 27.777344 81.554688 " fill-opacity="1" fill-rule="nonzero"/><path fill="#d9d9d9" d="M 37.945312 73.902344 C 36.410156 78.578125 30.980469 79.292969 28.867188 75.101562 C 26.816406 71.03125 29.792969 65.289062 34.601562 66.328125 C 38.226562 67.542969 38.738281 71.488281 37.945312 73.902344 " fill-opacity="1" fill-rule="nonzero"/><path fill="#d9d9d9" d="M 49.257812 66.292969 C 47.644531 70.566406 42.109375 71.171875 40.144531 67.289062 C 38.226562 63.503906 41.277344 58.421875 46.0625 59.433594 C 49.621094 60.574219 50.070312 64.128906 49.257812 66.292969 " fill-opacity="1" fill-rule="nonzero"/><path fill="#d9d9d9" d="M 61.011719 59.046875 C 59.449219 63.078125 53.710938 63.324219 52.113281 59.425781 C 50.75 56.101562 53.625 52.027344 57.914062 52.914062 C 61.289062 53.953125 61.757812 57.125 61.011719 59.046875 " fill-opacity="1" fill-rule="nonzero"/><path fill="#d9d9d9" d="M 72.601562 52.117188 C 71.316406 55.722656 66.082031 55.929688 64.484375 52.433594 C 63.179688 49.570312 65.722656 45.941406 69.570312 46.710938 C 72.664062 47.632812 73.207031 50.425781 72.601562 52.117188 " fill-opacity="1" fill-rule="nonzero"/><path fill="#d9d9d9" d="M 83.292969 45.433594 C 82.417969 48.585938 77.945312 48.800781 76.355469 45.761719 C 75.0625 43.28125 77.054688 40.113281 80.429688 40.765625 C 83.085938 41.53125 83.703125 43.957031 83.292969 45.433594 " fill-opacity="1" fill-rule="nonzero"/><path fill="#d9d9d9" d="M 92.21875 38.882812 C 91.824219 41.433594 88.605469 41.867188 87.003906 39.585938 C 85.488281 37.429688 86.902344 34.585938 89.332031 34.90625 C 89.414062 34.917969 89.523438 34.941406 89.605469 34.957031 C 91.734375 35.558594 92.414062 37.613281 92.21875 38.882812 " fill-opacity="1" fill-rule="nonzero"/><path fill="#ff751f" d="M 98.976562 32.492188 C 98.992188 34.40625 97.09375 35.039062 95.589844 33.621094 C 93.890625 32.011719 94.265625 29.21875 96.179688 29.222656 C 96.304688 29.222656 96.464844 29.246094 96.585938 29.265625 C 98.222656 29.71875 98.96875 31.425781 98.976562 32.492188 " fill-opacity="1" fill-rule="nonzero"/><path fill="#d9d9d9" d="M 103.316406 26.324219 C 103.617188 27.710938 102.695312 28.367188 101.527344 27.601562 C 99.976562 26.585938 99.433594 23.992188 100.71875 23.746094 C 100.871094 23.714844 101.023438 23.738281 101.132812 23.753906 C 102.324219 24.078125 103.128906 25.453125 103.316406 26.324219 " fill-opacity="1" fill-rule="nonzero"/><path fill="#d9d9d9" d="M 105.085938 20.464844 C 105.511719 21.359375 105.316406 21.9375 104.652344 21.722656 C 103.386719 21.3125 102.183594 18.917969 102.789062 18.53125 C 102.890625 18.464844 102.996094 18.476562 103.105469 18.492188 C 103.839844 18.6875 104.703125 19.667969 105.085938 20.464844 " fill-opacity="1" fill-rule="nonzero"/><path fill="#d9d9d9" d="M 104.234375 15.023438 C 104.707031 15.601562 104.855469 16.035156 104.578125 16.035156 C 103.941406 16.035156 101.976562 13.902344 102.34375 13.609375 C 102.375 13.582031 102.429688 13.585938 102.46875 13.59375 C 102.921875 13.710938 103.746094 14.429688 104.234375 15.023438 " fill-opacity="1" fill-rule="nonzero"/><path fill="#d9d9d9" d="M 100.828125 10.144531 C 101.332031 10.539062 101.636719 10.855469 101.523438 10.871094 C 101.277344 10.90625 99.226562 9.375 99.261719 9.183594 C 99.273438 9.179688 99.289062 9.179688 99.300781 9.179688 C 99.554688 9.246094 100.3125 9.742188 100.828125 10.144531 " fill-opacity="1" fill-rule="nonzero"/><path fill="#d9d9d9" d="M 95.042969 5.992188 C 95.402344 6.171875 95.796875 6.386719 95.871094 6.453125 C 95.75 6.460938 93.789062 5.425781 93.777344 5.417969 C 93.777344 5.414062 93.777344 5.410156 93.777344 5.410156 C 93.878906 5.4375 94.484375 5.710938 95.042969 5.992188 " fill-opacity="1" fill-rule="nonzero"/><path fill="#d9d9d9" d="M 33.882812 91.941406 C 32.851562 96.574219 27.679688 97.253906 25.101562 93.09375 C 22.53125 88.949219 24.75 83.121094 29.675781 84.199219 C 33.480469 85.46875 34.425781 89.492188 33.882812 91.941406 " fill-opacity="1" fill-rule="nonzero"/><path fill="#d9d9d9" d="M 44.023438 84.671875 C 42.667969 89.152344 37.085938 89.785156 34.6875 85.726562 C 32.316406 81.703125 35.074219 76.085938 40.136719 77.160156 C 44.011719 78.40625 44.742188 82.304688 44.023438 84.671875 " fill-opacity="1" fill-rule="nonzero"/><path fill="#d9d9d9" d="M 55.425781 77.144531 C 53.84375 81.71875 47.683594 82.050781 45.730469 77.667969 C 44.054688 73.898438 47.054688 69.070312 51.769531 70.039062 C 55.574219 71.222656 56.195312 74.90625 55.425781 77.144531 " fill-opacity="1" fill-rule="nonzero"/><path fill="#d9d9d9" d="M 67.433594 69.59375 C 65.929688 73.839844 60.015625 74.109375 58.125 70.019531 C 56.519531 66.542969 59.332031 62.273438 63.894531 63.1875 C 67.515625 64.273438 68.144531 67.585938 67.433594 69.59375 " fill-opacity="1" fill-rule="nonzero"/><path fill="#d9d9d9" d="M 79.25 62.273438 C 78.0625 66.003906 72.617188 66.253906 70.804688 62.664062 C 69.246094 59.574219 71.699219 55.78125 75.886719 56.59375 C 79.148438 57.539062 79.816406 60.484375 79.25 62.273438 " fill-opacity="1" fill-rule="nonzero"/><path fill="#d9d9d9" d="M 89.855469 55.03125 C 89.09375 58.203125 84.972656 58.707031 83.074219 55.863281 C 81.300781 53.207031 83.164062 49.441406 86.804688 50.109375 C 89.535156 50.882812 90.230469 53.453125 89.855469 55.03125 " fill-opacity="1" fill-rule="nonzero"/><path fill="#d9d9d9" d="M 98.738281 47.863281 C 98.40625 50.476562 95.46875 51.132812 93.664062 49 C 91.738281 46.722656 93.011719 43.308594 95.671875 43.625 C 95.753906 43.636719 95.867188 43.660156 95.949219 43.671875 C 98.160156 44.285156 98.910156 46.492188 98.738281 47.863281 " fill-opacity="1" fill-rule="nonzero"/><path fill="#d9d9d9" d="M 105.523438 40.792969 C 105.570312 42.867188 103.632812 43.597656 102.066406 42.097656 C 100.265625 40.371094 100.578125 37.300781 102.558594 37.261719 C 102.683594 37.261719 102.855469 37.285156 102.980469 37.304688 C 104.691406 37.769531 105.496094 39.625 105.523438 40.792969 " fill-opacity="1" fill-rule="nonzero"/><path fill="#d9d9d9" d="M 109.957031 33.882812 C 110.273438 35.417969 109.316406 36.167969 108.097656 35.351562 C 106.453125 34.25 105.851562 31.359375 107.199219 31.054688 C 107.363281 31.015625 107.523438 31.039062 107.640625 31.054688 C 108.902344 31.390625 109.757812 32.910156 109.957031 33.882812 " fill-opacity="1" fill-rule="nonzero"/><path fill="#d9d9d9" d="M 111.878906 27.21875 C 112.34375 28.296875 112.050781 28.964844 111.265625 28.621094 C 109.949219 28.042969 108.636719 25.351562 109.511719 25.019531 C 109.605469 24.984375 109.710938 24.996094 109.789062 25.007812 C 110.671875 25.234375 111.539062 26.4375 111.878906 27.21875 " fill-opacity="1" fill-rule="nonzero"/><path fill="#d9d9d9" d="M 111.242188 20.910156 C 111.757812 21.640625 111.859375 22.15625 111.46875 22.089844 C 110.667969 21.953125 108.816406 19.613281 109.246094 19.277344 C 109.285156 19.246094 109.347656 19.25 109.394531 19.253906 C 109.90625 19.386719 110.753906 20.214844 111.242188 20.910156 " fill-opacity="1" fill-rule="nonzero"/><path fill="#d9d9d9" d="M 108.117188 15.101562 C 108.625 15.582031 108.902344 15.957031 108.757812 15.980469 C 108.457031 16.027344 106.308594 14.109375 106.480469 13.949219 C 106.492188 13.9375 106.515625 13.941406 106.527344 13.941406 C 106.824219 14.015625 107.589844 14.601562 108.117188 15.101562 " fill-opacity="1" fill-rule="nonzero"/><path fill="#d9d9d9" d="M 102.683594 9.957031 C 103.015625 10.171875 103.421875 10.453125 103.464844 10.539062 C 103.355469 10.601562 101.449219 9.339844 101.363281 9.222656 C 101.367188 9.21875 101.371094 9.214844 101.375 9.210938 C 101.527344 9.25 102.191406 9.636719 102.683594 9.957031 " fill-opacity="1" fill-rule="nonzero"/><path fill="#d9d9d9" d="M 40.417969 101.929688 C 39.464844 106.238281 34.238281 106.820312 31.546875 102.914062 C 28.695312 98.777344 31.019531 93.683594 35.4375 94.398438 C 35.589844 94.421875 35.789062 94.476562 35.941406 94.507812 C 39.882812 95.769531 40.933594 99.609375 40.417969 101.929688 " fill-opacity="1" fill-rule="nonzero"/><path fill="#d9d9d9" d="M 50.59375 95.113281 C 49.222656 99.601562 43.101562 99.863281 40.820312 95.535156 C 38.800781 91.703125 41.5 86.832031 46.417969 87.855469 C 50.445312 89.101562 51.285156 92.851562 50.59375 95.113281 " fill-opacity="1" fill-rule="nonzero"/><path fill="#ff751f" d="M 62.078125 87.976562 C 60.523438 92.433594 54.320312 92.699219 52.171875 88.398438 C 50.320312 84.695312 53.261719 79.976562 58.152344 80.957031 C 62.128906 82.15625 62.84375 85.785156 62.078125 87.976562 " fill-opacity="1" fill-rule="nonzero"/><path fill="#d9d9d9" d="M 74.257812 80.445312 C 72.777344 84.714844 66.71875 85.023438 64.726562 80.9375 C 63.144531 77.695312 65.484375 72.898438 70.566406 73.886719 C 74.089844 74.910156 75.097656 78.03125 74.257812 80.445312 " fill-opacity="1" fill-rule="nonzero"/><path fill="#d9d9d9" d="M 85.964844 72.722656 C 84.765625 76.613281 79.460938 76.964844 77.621094 73.277344 C 76.03125 70.097656 78.445312 66.121094 82.628906 66.894531 C 85.882812 67.820312 86.539062 70.859375 85.964844 72.722656 " fill-opacity="1" fill-rule="nonzero"/><path fill="#d9d9d9" d="M 96.496094 65.007812 C 95.730469 68.289062 91.644531 68.894531 89.769531 66 C 87.988281 63.253906 89.824219 59.28125 93.453125 59.910156 C 96.195312 60.667969 96.882812 63.347656 96.496094 65.007812 " fill-opacity="1" fill-rule="nonzero"/><path fill="#d9d9d9" d="M 105.367188 57.296875 C 105.027344 60.042969 102.089844 60.800781 100.300781 58.601562 C 98.375 56.234375 99.640625 52.589844 102.300781 52.867188 C 102.382812 52.878906 102.496094 52.898438 102.582031 52.914062 C 104.804688 53.515625 105.550781 55.839844 105.367188 57.296875 " fill-opacity="1" fill-rule="nonzero"/><path fill="#d9d9d9" d="M 112.207031 49.625 C 112.234375 51.828125 110.28125 52.65625 108.726562 51.097656 C 106.914062 49.289062 107.234375 45.984375 109.226562 45.898438 C 109.355469 45.890625 109.527344 45.914062 109.65625 45.933594 C 111.386719 46.394531 112.1875 48.371094 112.207031 49.625 " fill-opacity="1" fill-rule="nonzero"/><path fill="#d9d9d9" d="M 116.734375 42.042969 C 117.03125 43.695312 116.054688 44.539062 114.839844 43.691406 C 113.109375 42.484375 112.589844 39.148438 114.109375 38.996094 C 114.199219 38.988281 114.320312 39 114.414062 39.011719 C 115.699219 39.347656 116.542969 40.984375 116.734375 42.042969 " fill-opacity="1" fill-rule="nonzero"/><path fill="#d9d9d9" d="M 118.800781 34.640625 C 119.246094 35.824219 118.933594 36.578125 118.144531 36.222656 C 116.8125 35.617188 115.527344 32.652344 116.429688 32.253906 C 116.527344 32.210938 116.636719 32.222656 116.714844 32.230469 C 117.523438 32.4375 118.425781 33.640625 118.800781 34.640625 " fill-opacity="1" fill-rule="nonzero"/><path fill="#d9d9d9" d="M 118.359375 27.527344 C 118.855469 28.339844 118.933594 28.929688 118.542969 28.871094 C 117.707031 28.742188 115.894531 26.121094 116.363281 25.71875 C 116.40625 25.683594 116.472656 25.6875 116.519531 25.6875 C 117.046875 25.820312 117.882812 26.742188 118.359375 27.527344 " fill-opacity="1" fill-rule="nonzero"/><path fill="#d9d9d9" d="M 115.484375 20.847656 C 116.007812 21.433594 116.261719 21.894531 116.046875 21.867188 C 115.582031 21.816406 113.640625 19.746094 113.859375 19.535156 C 113.871094 19.523438 113.894531 19.523438 113.910156 19.523438 C 114.222656 19.597656 114.96875 20.269531 115.484375 20.847656 " fill-opacity="1" fill-rule="nonzero"/><path fill="#d9d9d9" d="M 110.355469 14.761719 C 110.679688 15.019531 111.066406 15.359375 111.097656 15.464844 C 111.09375 15.46875 111.085938 15.472656 111.082031 15.476562 C 110.828125 15.417969 109.144531 14.105469 109.058594 13.898438 C 109.0625 13.894531 109.066406 13.890625 109.070312 13.886719 C 109.230469 13.921875 109.875 14.378906 110.355469 14.761719 " fill-opacity="1" fill-rule="nonzero"/><path fill="#ff751f" d="M 46.996094 111.351562 C 45.925781 115.601562 40.367188 115.816406 37.847656 111.710938 C 35.527344 107.933594 37.632812 103.335938 42.527344 104.367188 C 46.515625 105.601562 47.539062 109.195312 46.996094 111.351562 " fill-opacity="1" fill-rule="nonzero"/><path fill="#d9d9d9" d="M 57.234375 105.066406 C 55.738281 109.464844 49.175781 109.359375 47.203125 104.910156 C 45.589844 101.265625 48.234375 97.1875 53.054688 98.171875 C 57.136719 99.394531 57.957031 102.941406 57.234375 105.066406 " fill-opacity="1" fill-rule="nonzero"/><path fill="#d9d9d9" d="M 68.804688 98.386719 C 67.113281 102.835938 60.472656 102.753906 58.65625 98.265625 C 57.359375 95.070312 59.910156 90.691406 64.910156 91.671875 C 68.917969 92.835938 69.601562 96.300781 68.804688 98.386719 " fill-opacity="1" fill-rule="nonzero"/><path fill="#d9d9d9" d="M 80.742188 91.152344 C 79.210938 95.261719 73.425781 95.589844 71.503906 91.679688 C 69.835938 88.285156 72.710938 83.902344 77.3125 84.753906 C 80.9375 85.789062 81.5 89.121094 80.742188 91.152344 " fill-opacity="1" fill-rule="nonzero"/><path fill="#d9d9d9" d="M 92.308594 83.292969 C 91.023438 87.226562 85.859375 87.691406 84.183594 84.019531 C 82.71875 80.808594 85.164062 76.707031 89.226562 77.414062 C 92.570312 78.347656 92.890625 81.515625 92.308594 83.292969 " fill-opacity="1" fill-rule="nonzero"/><path fill="#d9d9d9" d="M 102.820312 75.191406 C 101.96875 78.558594 97.964844 79.261719 96.226562 76.351562 C 94.5625 73.558594 96.457031 69.425781 99.984375 70 C 102.660156 70.730469 103.253906 73.472656 102.820312 75.191406 " fill-opacity="1" fill-rule="nonzero"/><path fill="#d9d9d9" d="M 111.71875 67.027344 C 111.300781 69.867188 108.410156 70.71875 106.730469 68.496094 C 104.898438 66.070312 106.234375 62.25 108.828125 62.480469 C 108.914062 62.488281 109.023438 62.511719 109.105469 62.523438 C 111.28125 63.101562 111.945312 65.503906 111.71875 67.027344 " fill-opacity="1" fill-rule="nonzero"/><path fill="#ff751f" d="M 118.628906 58.828125 C 118.585938 61.183594 116.6875 62.089844 115.183594 60.472656 C 113.339844 58.484375 113.886719 54.832031 116.011719 54.964844 C 116.078125 54.972656 116.160156 54.988281 116.226562 54.996094 C 117.921875 55.4375 118.652344 57.5 118.628906 58.828125 " fill-opacity="1" fill-rule="nonzero"/><path fill="#d9d9d9" d="M 123.261719 50.648438 C 123.507812 52.425781 122.550781 53.34375 121.371094 52.464844 C 119.703125 51.21875 119.28125 47.667969 120.773438 47.460938 C 120.863281 47.449219 120.984375 47.457031 121.074219 47.46875 C 122.328125 47.785156 123.109375 49.519531 123.261719 50.648438 " fill-opacity="1" fill-rule="nonzero"/><path fill="#d9d9d9" d="M 125.46875 42.570312 C 125.875 43.863281 125.558594 44.679688 124.796875 44.316406 C 123.476562 43.691406 122.292969 40.273438 123.308594 40.019531 C 123.363281 40.003906 123.445312 40.007812 123.503906 40.011719 C 124.375 40.230469 125.179688 41.640625 125.46875 42.570312 " fill-opacity="1" fill-rule="nonzero"/><path fill="#d9d9d9" d="M 125.203125 34.714844 C 125.6875 35.660156 125.722656 36.339844 125.28125 36.195312 C 124.425781 35.914062 122.8125 33.019531 123.363281 32.753906 C 123.394531 32.738281 123.441406 32.738281 123.472656 32.738281 C 123.976562 32.859375 124.761719 33.859375 125.203125 34.714844 " fill-opacity="1" fill-rule="nonzero"/><path fill="#d9d9d9" d="M 122.539062 27.222656 C 123.035156 27.886719 123.265625 28.394531 123.066406 28.382812 C 122.628906 28.351562 120.804688 26.046875 121.015625 25.789062 C 121.023438 25.777344 121.046875 25.773438 121.066406 25.773438 C 121.355469 25.839844 122.054688 26.578125 122.539062 27.222656 " fill-opacity="1" fill-rule="nonzero"/><path fill="#d9d9d9" d="M 117.664062 20.257812 C 117.933594 20.519531 118.390625 20.988281 118.371094 21.082031 C 118.222656 21.136719 116.4375 19.449219 116.460938 19.277344 C 116.464844 19.277344 116.46875 19.273438 116.46875 19.273438 C 116.609375 19.304688 117.203125 19.804688 117.664062 20.257812 " fill-opacity="1" fill-rule="nonzero"/><path fill="#d9d9d9" d="M 53.222656 120.054688 C 51.945312 124.046875 46.089844 123.929688 44.011719 119.867188 C 42.265625 116.464844 44.480469 112.6875 49.046875 113.628906 C 52.96875 114.800781 53.847656 118.09375 53.222656 120.054688 " fill-opacity="1" fill-rule="nonzero"/><path fill="#d9d9d9" d="M 63.519531 114.371094 C 61.851562 118.449219 55.488281 118.3125 53.65625 114.164062 C 52.15625 110.769531 54.894531 107.003906 59.640625 107.949219 C 63.652344 109.113281 64.324219 112.40625 63.519531 114.371094 " fill-opacity="1" fill-rule="nonzero"/><path fill="#d9d9d9" d="M 74.851562 108.140625 C 73.019531 112.277344 66.785156 112.234375 65.183594 108.070312 C 63.914062 104.785156 66.949219 101.023438 71.460938 101.878906 C 75.234375 102.949219 75.714844 106.183594 74.851562 108.140625 " fill-opacity="1" fill-rule="nonzero"/><path fill="#d9d9d9" d="M 86.515625 101.265625 C 84.832031 105.183594 79.414062 105.535156 77.734375 101.835938 C 76.28125 98.640625 79.191406 94.472656 83.539062 95.242188 C 86.96875 96.195312 87.34375 99.339844 86.515625 101.265625 " fill-opacity="1" fill-rule="nonzero"/><path fill="#d9d9d9" d="M 97.914062 93.703125 C 96.460938 97.527344 91.589844 98.019531 90.128906 94.484375 C 88.878906 91.445312 91.457031 87.355469 95.261719 87.976562 C 98.273438 88.804688 98.625 91.820312 97.914062 93.703125 " fill-opacity="1" fill-rule="nonzero"/><path fill="#d9d9d9" d="M 108.425781 85.433594 C 107.410156 88.835938 103.535156 89.644531 102.046875 86.757812 C 100.566406 83.890625 102.566406 79.710938 105.992188 80.222656 C 108.535156 80.90625 108.945312 83.679688 108.425781 85.433594 " fill-opacity="1" fill-rule="nonzero"/><path fill="#d9d9d9" d="M 117.402344 76.898438 C 116.84375 79.796875 114.035156 80.746094 112.554688 78.53125 C 110.949219 76.125 112.242188 71.953125 115.136719 72.335938 C 117.203125 72.878906 117.707031 75.328125 117.402344 76.898438 " fill-opacity="1" fill-rule="nonzero"/><path fill="#d9d9d9" d="M 124.410156 68.246094 C 124.25 70.679688 122.402344 71.679688 121.058594 70.054688 C 119.398438 68.046875 120.09375 64.238281 122.109375 64.3125 C 122.167969 64.316406 122.25 64.328125 122.308594 64.335938 C 123.910156 64.742188 124.5 66.867188 124.410156 68.246094 " fill-opacity="1" fill-rule="nonzero"/><path fill="#d9d9d9" d="M 129.164062 59.539062 C 129.3125 61.402344 128.375 62.402344 127.308594 61.523438 C 125.714844 60.207031 125.554688 56.269531 127.097656 56.257812 C 127.140625 56.253906 127.199219 56.265625 127.242188 56.269531 C 128.414062 56.558594 129.070312 58.355469 129.164062 59.539062 " fill-opacity="1" fill-rule="nonzero"/><path fill="#ff751f" d="M 131.503906 50.863281 C 131.855469 52.320312 131.472656 53.210938 130.71875 52.695312 C 129.433594 51.820312 128.613281 48.289062 129.679688 48.199219 C 129.707031 48.195312 129.742188 48.199219 129.769531 48.203125 C 130.570312 48.390625 131.261719 49.871094 131.503906 50.863281 " fill-opacity="1" fill-rule="nonzero"/><path fill="#d9d9d9" d="M 131.386719 42.328125 C 131.816406 43.355469 131.847656 44.085938 131.453125 43.953125 C 130.691406 43.695312 129.269531 40.597656 129.761719 40.269531 C 129.789062 40.25 129.832031 40.25 129.863281 40.246094 C 130.359375 40.359375 131.050781 41.53125 131.386719 42.328125 " fill-opacity="1" fill-rule="nonzero"/><path fill="#d9d9d9" d="M 128.886719 34.078125 C 129.363281 34.84375 129.582031 35.429688 129.363281 35.355469 C 128.90625 35.199219 127.316406 32.695312 127.574219 32.539062 C 127.578125 32.535156 127.589844 32.535156 127.597656 32.53125 C 127.835938 32.582031 128.453125 33.371094 128.886719 34.078125 " fill-opacity="1" fill-rule="nonzero"/><path fill="#d9d9d9" d="M 124.210938 26.28125 C 124.457031 26.570312 124.878906 27.09375 124.894531 27.210938 C 124.730469 27.25 123.1875 25.359375 123.164062 25.222656 C 123.167969 25.21875 123.167969 25.214844 123.171875 25.214844 C 123.269531 25.230469 123.789062 25.78125 124.210938 26.28125 " fill-opacity="1" fill-rule="nonzero"/><path fill="#d9d9d9" d="M 58.703125 127.898438 C 57.074219 131.621094 51.195312 131.203125 49.714844 127.265625 C 48.601562 124.300781 50.921875 121.289062 55.113281 122.132812 C 58.507812 123.117188 59.605469 125.835938 58.703125 127.898438 " fill-opacity="1" fill-rule="nonzero"/><path fill="#d9d9d9" d="M 68.769531 122.8125 C 66.753906 126.691406 60.546875 126.3125 59.417969 122.242188 C 58.597656 119.277344 61.472656 116.210938 65.65625 117.015625 C 69.339844 118.058594 69.695312 121.03125 68.769531 122.8125 " fill-opacity="1" fill-rule="nonzero"/><path fill="#d9d9d9" d="M 79.808594 117.082031 C 77.78125 120.8125 71.988281 120.816406 70.828125 117.09375 C 69.875 114.042969 72.871094 110.585938 77.125 111.355469 C 80.601562 112.316406 80.785156 115.285156 79.808594 117.082031 " fill-opacity="1" fill-rule="nonzero"/><path fill="#d9d9d9" d="M 91.246094 110.65625 C 89.296875 114.398438 83.824219 114.542969 82.882812 110.875 C 82.125 107.933594 85.117188 104.441406 88.910156 105.078125 C 92.078125 105.941406 92.183594 108.859375 91.246094 110.65625 " fill-opacity="1" fill-rule="nonzero"/><path fill="#d9d9d9" d="M 102.492188 103.476562 C 100.851562 107.035156 96.261719 107.550781 95.160156 104.304688 C 94.191406 101.460938 96.898438 97.582031 100.425781 98.121094 C 103.207031 98.867188 103.308594 101.703125 102.492188 103.476562 " fill-opacity="1" fill-rule="nonzero"/><path fill="#ff751f" d="M 112.949219 95.5 C 111.714844 98.816406 108.085938 99.644531 106.882812 96.886719 C 105.703125 94.1875 107.9375 90.011719 111.082031 90.433594 C 113.4375 91.058594 113.589844 93.773438 112.949219 95.5 " fill-opacity="1" fill-rule="nonzero"/><path fill="#d9d9d9" d="M 122.035156 86.761719 C 121.273438 89.691406 118.582031 90.730469 117.386719 88.554688 C 116.078125 86.167969 117.617188 81.914062 120.285156 82.214844 C 122.179688 82.707031 122.449219 85.167969 122.035156 86.761719 " fill-opacity="1" fill-rule="nonzero"/><path fill="#d9d9d9" d="M 129.179688 77.742188 C 128.851562 80.222656 127.082031 81.304688 125.96875 79.707031 C 124.632812 77.792969 125.394531 73.632812 127.53125 73.816406 C 128.980469 74.179688 129.367188 76.332031 129.179688 77.742188 " fill-opacity="1" fill-rule="nonzero"/><path fill="#d9d9d9" d="M 134.066406 68.585938 C 134.082031 70.5 133.183594 71.578125 132.285156 70.722656 C 130.921875 69.421875 131.015625 65.339844 132.40625 65.261719 C 132.445312 65.257812 132.5 65.265625 132.535156 65.265625 C 133.574219 65.515625 134.054688 67.359375 134.066406 68.585938 " fill-opacity="1" fill-rule="nonzero"/><path fill="#d9d9d9" d="M 136.53125 59.371094 C 136.773438 60.882812 136.414062 61.847656 135.792969 61.355469 C 134.753906 60.535156 134.175781 56.800781 135.0625 56.652344 C 135.089844 56.648438 135.121094 56.652344 135.144531 56.652344 C 135.824219 56.808594 136.363281 58.335938 136.53125 59.371094 " fill-opacity="1" fill-rule="nonzero"/><path fill="#d9d9d9" d="M 136.53125 50.214844 C 136.882812 51.296875 136.917969 52.085938 136.609375 51.976562 C 135.960938 51.746094 134.773438 48.28125 135.269531 48.074219 C 135.28125 48.070312 135.300781 48.066406 135.3125 48.066406 C 135.703125 48.148438 136.261719 49.371094 136.53125 50.214844 " fill-opacity="1" fill-rule="nonzero"/><path fill="#d9d9d9" d="M 134.15625 41.261719 C 134.5625 42.082031 134.785156 42.726562 134.640625 42.671875 C 134.324219 42.550781 132.933594 39.785156 133.125 39.652344 C 133.28125 39.679688 133.78125 40.507812 134.15625 41.261719 " fill-opacity="1" fill-rule="nonzero"/><path fill="#d9d9d9" d="M 129.609375 32.6875 C 129.921875 33.144531 130.261719 33.660156 130.277344 33.726562 C 130.1875 33.671875 128.816406 31.683594 128.78125 31.5625 C 128.847656 31.601562 129.304688 32.246094 129.609375 32.6875 " fill-opacity="1" fill-rule="nonzero"/><path fill="#d9d9d9" d="M 62.863281 134.695312 C 60.816406 137.984375 55.289062 137.378906 54.648438 133.792969 C 54.214844 131.375 56.632812 129.019531 60.285156 129.730469 C 63.613281 130.667969 63.796875 133.199219 62.863281 134.695312 " fill-opacity="1" fill-rule="nonzero"/><path fill="#d9d9d9" d="M 72.640625 130.261719 C 70.304688 133.65625 64.792969 133.359375 64.21875 129.8125 C 63.796875 127.203125 66.757812 124.480469 70.480469 125.164062 C 73.765625 126.074219 73.722656 128.691406 72.640625 130.261719 " fill-opacity="1" fill-rule="nonzero"/><path fill="#d9d9d9" d="M 83.429688 125.117188 C 81.09375 128.492188 75.871094 128.542969 75.210938 125.199219 C 74.675781 122.46875 77.800781 119.332031 81.613281 119.988281 C 84.730469 120.835938 84.554688 123.5 83.429688 125.117188 " fill-opacity="1" fill-rule="nonzero"/><path fill="#d9d9d9" d="M 94.671875 119.214844 C 92.546875 122.476562 87.835938 122.875 87.039062 119.859375 C 86.3125 117.109375 89.449219 113.566406 93.125 114.144531 C 95.976562 114.90625 95.746094 117.566406 94.671875 119.214844 " fill-opacity="1" fill-rule="nonzero"/><path fill="#d9d9d9" d="M 105.773438 112.492188 C 103.851562 115.839844 99.648438 116.375 98.964844 113.359375 C 98.371094 110.742188 101.253906 107.117188 104.4375 107.566406 C 106.933594 108.21875 106.722656 110.839844 105.773438 112.492188 " fill-opacity="1" fill-rule="nonzero"/><path fill="#d9d9d9" d="M 116.164062 104.910156 C 114.703125 108 111.316406 108.839844 110.496094 106.3125 C 109.683594 103.8125 112.136719 99.867188 114.96875 100.203125 C 117.070312 100.746094 116.933594 103.28125 116.164062 104.910156 " fill-opacity="1" fill-rule="nonzero"/><path fill="#d9d9d9" d="M 125.277344 96.441406 C 124.269531 99.316406 121.777344 100.375 120.902344 98.296875 C 119.964844 96.0625 121.832031 91.808594 124.179688 92.015625 C 125.855469 92.441406 125.832031 94.863281 125.277344 96.441406 " fill-opacity="1" fill-rule="nonzero"/><path fill="#d9d9d9" d="M 132.585938 87.1875 C 132.070312 89.558594 130.546875 90.761719 129.667969 89.488281 C 128.519531 87.820312 129.589844 83.1875 131.519531 83.285156 C 132.773438 83.59375 132.898438 85.753906 132.585938 87.1875 " fill-opacity="1" fill-rule="nonzero"/><path fill="#d9d9d9" d="M 137.625 77.648438 C 137.476562 79.59375 136.628906 80.742188 135.941406 79.921875 C 134.941406 78.71875 135.191406 74.34375 136.605469 74.328125 C 137.464844 74.527344 137.71875 76.390625 137.625 77.648438 " fill-opacity="1" fill-rule="nonzero"/><path fill="#d9d9d9" d="M 140.207031 67.957031 C 140.3125 69.421875 140.035156 70.441406 139.609375 70.144531 C 138.816406 69.59375 138.476562 65.457031 139.207031 65.230469 C 139.222656 65.226562 139.25 65.222656 139.269531 65.222656 C 139.789062 65.335938 140.128906 66.890625 140.207031 67.957031 " fill-opacity="1" fill-rule="nonzero"/><path fill="#d9d9d9" d="M 140.296875 58.242188 C 140.550781 59.363281 140.597656 60.210938 140.402344 60.132812 C 139.980469 59.957031 139.125 56.238281 139.46875 56.066406 C 139.714844 56.109375 140.101562 57.367188 140.296875 58.242188 " fill-opacity="1" fill-rule="nonzero"/><path fill="#d9d9d9" d="M 137.984375 48.640625 C 138.195312 49.195312 138.507812 50.058594 138.503906 50.167969 C 138.347656 50.050781 137.28125 47.125 137.285156 46.992188 C 137.371094 47.058594 137.832031 48.234375 137.984375 48.640625 " fill-opacity="1" fill-rule="nonzero"/><path fill="#d9d9d9" d="M 65.425781 140.335938 C 63.214844 142.726562 58.34375 142.664062 58.375 139.605469 C 58.394531 137.609375 60.914062 135.660156 64.015625 136.238281 C 66.609375 136.957031 66.769531 138.886719 65.425781 140.335938 " fill-opacity="1" fill-rule="nonzero"/><path fill="#d9d9d9" d="M 74.949219 136.636719 C 72.523438 139.199219 67.445312 139.417969 67.511719 136.296875 C 67.5625 134.050781 70.558594 131.71875 73.859375 132.296875 C 76.449219 132.996094 76.449219 135.054688 74.949219 136.636719 " fill-opacity="1" fill-rule="nonzero"/><path fill="#d9d9d9" d="M 85.523438 132.164062 C 82.894531 135.058594 78.191406 135.144531 78.121094 132.296875 C 78.066406 129.917969 81.363281 127.148438 84.6875 127.6875 C 87.410156 128.410156 86.816406 130.738281 85.523438 132.164062 " fill-opacity="1" fill-rule="nonzero"/><path fill="#d9d9d9" d="M 96.582031 126.851562 C 94.179688 129.738281 89.882812 130.148438 89.613281 127.511719 C 89.367188 125.070312 92.714844 121.875 95.9375 122.34375 C 98.425781 122.992188 97.8125 125.371094 96.582031 126.851562 " fill-opacity="1" fill-rule="nonzero"/><path fill="#ff751f" d="M 107.550781 120.65625 C 105.476562 123.511719 101.832031 124.214844 101.363281 121.851562 C 100.894531 119.488281 104.101562 115.839844 107.042969 116.210938 C 109.21875 116.765625 108.648438 119.144531 107.550781 120.65625 " fill-opacity="1" fill-rule="nonzero"/><path fill="#d9d9d9" d="M 117.855469 113.535156 C 116.234375 116.230469 113.296875 117.191406 112.707031 115.214844 C 112.054688 113.042969 114.863281 108.976562 117.433594 109.234375 C 119.238281 109.6875 118.765625 112.019531 117.855469 113.535156 " fill-opacity="1" fill-rule="nonzero"/><path fill="#d9d9d9" d="M 126.949219 105.460938 C 125.765625 108.007812 123.621094 109.136719 122.988281 107.542969 C 122.234375 105.640625 124.445312 101.25 126.566406 101.378906 C 127.976562 101.726562 127.640625 103.976562 126.949219 105.460938 " fill-opacity="1" fill-rule="nonzero"/><path fill="#d9d9d9" d="M 134.328125 96.425781 C 133.589844 98.730469 132.160156 99.964844 131.59375 98.785156 C 130.839844 97.210938 132.335938 92.625 133.957031 92.628906 C 134.96875 92.871094 134.78125 94.992188 134.328125 96.425781 " fill-opacity="1" fill-rule="nonzero"/><path fill="#d9d9d9" d="M 139.527344 86.601562 C 139.210938 88.445312 138.488281 89.660156 138.039062 89.105469 C 137.324219 88.226562 137.941406 83.453125 139.125 83.328125 C 139.765625 83.472656 139.746094 85.328125 139.527344 86.601562 " fill-opacity="1" fill-rule="nonzero"/><path fill="#d9d9d9" d="M 142.222656 76.511719 C 142.1875 77.996094 141.9375 79.074219 141.691406 78.820312 C 141.308594 78.425781 141.199219 74.023438 141.820312 73.789062 C 142.140625 73.847656 142.25 75.414062 142.222656 76.511719 " fill-opacity="1" fill-rule="nonzero"/><path fill="#d9d9d9" d="M 142.367188 66.292969 C 142.445312 66.921875 142.574219 68.152344 142.527344 68.304688 C 142.347656 68.136719 141.941406 64.285156 142 64.113281 C 142.113281 64.21875 142.363281 66.269531 142.367188 66.292969 " fill-opacity="1" fill-rule="nonzero"/><path fill="#d9d9d9" d="M 66.273438 144.753906 C 63.996094 146.304688 59.851562 146.667969 60.351562 144.386719 C 60.679688 142.902344 63.242188 141.0625 66.105469 141.574219 C 68.242188 142.152344 67.855469 143.671875 66.273438 144.753906 " fill-opacity="1" fill-rule="nonzero"/><path fill="#d9d9d9" d="M 75.578125 141.875 C 72.921875 143.835938 68.667969 144.148438 69.09375 141.855469 C 69.410156 140.171875 72.597656 137.832031 75.632812 138.332031 C 77.792969 138.90625 77.285156 140.617188 75.578125 141.875 " fill-opacity="1" fill-rule="nonzero"/><path fill="#d9d9d9" d="M 85.960938 138.140625 C 83.382812 140.242188 79.140625 140.835938 79.363281 138.5625 C 79.542969 136.71875 83.046875 133.890625 86.175781 134.359375 C 88.484375 134.960938 87.441406 136.933594 85.960938 138.140625 " fill-opacity="1" fill-rule="nonzero"/><path fill="#d9d9d9" d="M 96.851562 133.496094 C 94.488281 135.683594 90.597656 136.550781 90.570312 134.414062 C 90.542969 132.480469 94.101562 129.1875 97.179688 129.589844 C 99.28125 130.125 98.253906 132.199219 96.851562 133.496094 " fill-opacity="1" fill-rule="nonzero"/><path fill="#d9d9d9" d="M 107.683594 127.898438 C 105.332031 130.4375 102.019531 131.128906 102.058594 129.070312 C 102.09375 127.175781 105.410156 123.683594 108.066406 123.96875 C 109.890625 124.421875 108.9375 126.539062 107.683594 127.898438 " fill-opacity="1" fill-rule="nonzero"/><path fill="#d9d9d9" d="M 117.882812 121.300781 C 116.007812 123.75 113.324219 124.695312 113.175781 122.953125 C 113.003906 120.964844 116.082031 117.28125 118.289062 117.441406 C 119.769531 117.796875 118.941406 119.914062 117.882812 121.300781 " fill-opacity="1" fill-rule="nonzero"/><path fill="#d9d9d9" d="M 126.910156 113.675781 C 125.589844 115.871094 123.714844 117.035156 123.332031 115.898438 C 122.808594 114.351562 125.46875 109.933594 127.300781 109.96875 C 128.414062 110.226562 127.742188 112.292969 126.910156 113.675781 " fill-opacity="1" fill-rule="nonzero"/><path fill="#d9d9d9" d="M 134.265625 105.019531 C 133.378906 107.039062 132.148438 108.28125 131.824219 107.484375 C 131.355469 106.320312 133.320312 101.632812 134.617188 101.535156 C 135.355469 101.703125 134.855469 103.671875 134.265625 105.019531 " fill-opacity="1" fill-rule="nonzero"/><path fill="#d9d9d9" d="M 139.523438 95.34375 C 139.050781 97.039062 138.425781 98.269531 138.1875 97.976562 C 137.816406 97.511719 138.957031 92.414062 139.816406 92.15625 C 140.210938 92.234375 139.882812 94.066406 139.523438 95.34375 " fill-opacity="1" fill-rule="nonzero"/><path fill="#d9d9d9" d="M 142.320312 84.917969 C 142.214844 85.746094 142.003906 87.191406 141.890625 87.363281 C 141.703125 87.148438 142.394531 82.449219 142.527344 82.246094 C 142.644531 82.375 142.332031 84.816406 142.320312 84.917969 " fill-opacity="1" fill-rule="nonzero"/><path fill="#d9d9d9" d="M 65.355469 147.902344 C 63.269531 148.691406 59.847656 149.03125 60.28125 147.96875 C 60.675781 146.992188 63.929688 145.246094 66.464844 145.675781 C 68.003906 146.082031 67.179688 146.988281 66.253906 147.496094 C 66.066406 147.601562 65.707031 147.769531 65.355469 147.902344 " fill-opacity="1" fill-rule="nonzero"/><path fill="#d9d9d9" d="M 74.480469 145.921875 C 72.105469 147.0625 68.230469 147.664062 68.75 146.222656 C 69.191406 145.007812 72.9375 142.789062 75.703125 143.214844 C 77.242188 143.617188 76.566406 144.726562 75.144531 145.566406 C 74.953125 145.683594 74.683594 145.824219 74.480469 145.921875 " fill-opacity="1" fill-rule="nonzero"/><path fill="#d9d9d9" d="M 84.691406 143.003906 C 81.992188 144.574219 78.257812 145.144531 78.789062 143.570312 C 79.289062 142.078125 83.351562 139.59375 85.984375 139.953125 C 87.679688 140.382812 86.632812 141.871094 84.691406 143.003906 " fill-opacity="1" fill-rule="nonzero"/><path fill="#d9d9d9" d="M 95.425781 139.101562 C 92.96875 140.8125 89.488281 141.671875 89.726562 140.144531 C 89.972656 138.609375 94.136719 135.53125 96.742188 135.828125 C 98.277344 136.210938 97.253906 137.824219 95.425781 139.101562 " fill-opacity="1" fill-rule="nonzero"/><path fill="#d9d9d9" d="M 106.109375 134.164062 C 103.773438 136.128906 101 136.949219 100.992188 135.679688 C 100.984375 134.214844 104.964844 130.574219 107.414062 130.777344 C 108.871094 131.128906 107.527344 132.96875 106.109375 134.164062 " fill-opacity="1" fill-rule="nonzero"/><path fill="#d9d9d9" d="M 116.179688 128.148438 C 114.15625 130.242188 111.84375 131.207031 111.914062 129.933594 C 112 128.332031 115.582031 124.6875 117.4375 124.753906 C 118.460938 124.992188 117.582031 126.703125 116.179688 128.148438 " fill-opacity="1" fill-rule="nonzero"/><path fill="#d9d9d9" d="M 125.089844 121.035156 C 123.652344 122.917969 122.011719 124.066406 121.84375 123.308594 C 121.582031 122.152344 124.769531 117.789062 126.277344 117.71875 C 127.074219 117.890625 126.0625 119.761719 125.089844 121.035156 " fill-opacity="1" fill-rule="nonzero"/><path fill="#d9d9d9" d="M 132.351562 112.804688 C 131.324219 114.59375 130.277344 115.78125 130.160156 115.296875 C 129.972656 114.554688 132.503906 109.867188 133.441406 109.65625 C 133.886719 109.742188 133.070312 111.546875 132.351562 112.804688 " fill-opacity="1" fill-rule="nonzero"/><path fill="#d9d9d9" d="M 137.53125 103.476562 C 137.179688 104.359375 136.535156 105.902344 136.347656 106.085938 C 136.164062 105.851562 138.292969 100.78125 138.515625 100.5625 C 138.628906 100.714844 137.574219 103.367188 137.53125 103.476562 " fill-opacity="1" fill-rule="nonzero"/><path fill="#d9d9d9" d="M 62.699219 149.75 C 60.816406 150.011719 58.316406 149.996094 58.113281 149.789062 C 58.289062 149.496094 63.09375 148.183594 65.0625 148.5 C 65.246094 148.546875 65.804688 148.691406 65.246094 149.054688 C 64.824219 149.328125 63.871094 149.585938 62.699219 149.75 " fill-opacity="1" fill-rule="nonzero"/><path fill="#d9d9d9" d="M 71.671875 148.746094 C 69.25 149.402344 66.207031 149.617188 66.425781 149.117188 C 66.667969 148.558594 71.644531 146.554688 74.046875 146.898438 C 74.96875 147.132812 74.371094 147.609375 73.933594 147.875 C 73.4375 148.171875 72.613281 148.488281 71.671875 148.746094 " fill-opacity="1" fill-rule="nonzero"/><path fill="#d9d9d9" d="M 81.734375 146.71875 C 79.183594 147.710938 75.832031 148.242188 76.308594 147.390625 C 76.800781 146.511719 81.769531 144.140625 84.082031 144.417969 C 85.335938 144.730469 83.789062 145.707031 83.464844 145.898438 C 83.25 146.027344 82.65625 146.363281 81.734375 146.71875 " fill-opacity="1" fill-rule="nonzero"/><path fill="#d9d9d9" d="M 92.316406 143.628906 C 89.761719 144.929688 86.910156 145.550781 87.050781 144.777344 C 87.238281 143.769531 92.398438 140.804688 94.605469 141.007812 C 95.609375 141.246094 94.664062 142.226562 93.367188 143.039062 C 93.085938 143.214844 92.652344 143.457031 92.316406 143.628906 " fill-opacity="1" fill-rule="nonzero"/><path fill="#d9d9d9" d="M 102.847656 139.417969 C 100.464844 140.964844 97.953125 141.761719 98.136719 140.921875 C 98.363281 139.863281 103.117188 136.503906 105.050781 136.597656 C 106.035156 136.824219 104.671875 138.238281 102.847656 139.417969 " fill-opacity="1" fill-rule="nonzero"/><path fill="#d9d9d9" d="M 112.761719 134.050781 C 110.820312 135.640625 108.804688 136.625 108.835938 135.96875 C 108.882812 135.109375 113.242188 131.175781 114.851562 131.136719 C 115.570312 131.292969 114.328125 132.769531 112.761719 134.050781 " fill-opacity="1" fill-rule="nonzero"/><path fill="#d9d9d9" d="M 121.507812 127.5 C 119.980469 129.09375 118.535156 130.1875 118.53125 129.742188 C 118.523438 129.050781 122.414062 124.773438 123.46875 124.59375 C 123.894531 124.671875 122.78125 126.164062 121.507812 127.5 " fill-opacity="1" fill-rule="nonzero"/><path fill="#d9d9d9" d="M 127.246094 121.527344 C 126.761719 122.132812 126.664062 122.199219 126.621094 122.230469 C 126.613281 122.222656 126.609375 122.210938 126.601562 122.203125 C 126.816406 121.605469 129.984375 117.230469 130.410156 116.941406 C 130.414062 116.949219 130.421875 116.960938 130.425781 116.96875 C 130.402344 117.035156 130.351562 117.175781 129.878906 117.898438 L 127.246094 121.527344 " fill-opacity="1" fill-rule="nonzero"/></svg>